font.ufo
<glyph name="quotedbl" format="1">
  <advance width="324"/>
  <unicode hex="0022"/>
  <outline>
    <contour>
      <point x="105" y="633" type="line"/>
      <point x="105" y="639"/>
      <point x="103" y="643"/>
      <point x="96" y="643" type="curve" smooth="yes"/>
      <point x="79" y="643" type="line" smooth="yes"/>
      <point x="72" y="643"/>
      <point x="70" y="639"/>
      <point x="70" y="633" type="curve" smooth="yes"/>
      <point x="77" y="451" type="line" smooth="yes"/>
      <point x="77" y="444"/>
      <point x="81" y="441"/>
      <point x="86" y="441" type="curve" smooth="yes"/>
      <point x="89" y="441" type="line" smooth="yes"/>
      <point x="94" y="441"/>
      <point x="98" y="444"/>
      <point x="98" y="451" type="curve" smooth="yes"/>
    </contour>
    <contour>
      <point x="247" y="451" type="line"/>
      <point x="247" y="444"/>
      <point x="243" y="441"/>
      <point x="238" y="441" type="curve" smooth="yes"/>
      <point x="235" y="441" type="line" smooth="yes"/>
      <point x="230" y="441"/>
      <point x="226" y="444"/>
      <point x="226" y="451" type="curve" smooth="yes"/>
      <point x="219" y="633" type="line" smooth="yes"/>
      <point x="219" y="639"/>
      <point x="221" y="643"/>
      <point x="228" y="643" type="curve" smooth="yes"/>
      <point x="245" y="643" type="line" smooth="yes"/>
      <point x="252" y="643"/>
      <point x="254" y="639"/>
      <point x="254" y="633" type="curve" smooth="yes"/>
    </contour>
  </outline>
</glyph>
<glyph name="ampersand" format="1">
  <advance width="592"/>
  <unicode hex="0026"/>
  <outline>
    <contour>
      <point x="214" y="28" type="line"/>
      <point x="147" y="28"/>
      <point x="110" y="66"/>
      <point x="110" y="134" type="curve" smooth="yes"/>
      <point x="110" y="224" type="line" smooth="yes"/>
      <point x="110" y="288"/>
      <point x="143" y="326"/>
      <point x="204" y="330" type="curve"/>
      <point x="400" y="105" type="line"/>
      <point x="391" y="56"/>
      <point x="356" y="28"/>
      <point x="299" y="28" type="curve" smooth="yes"/>
    </contour>
    <contour>
      <point x="487" y="6" type="line"/>
      <point x="491" y="2"/>
      <point x="495" y="0"/>
      <point x="500" y="0" type="curve" smooth="yes"/>
      <point x="519" y="0" type="line" smooth="yes"/>
      <point x="523" y="0"/>
      <point x="523" y="4"/>
      <point x="521" y="6" type="curve" smooth="yes"/>
      <point x="303" y="258" type="line"/>
      <point x="523" y="258" type="line" smooth="yes"/>
      <point x="530" y="258"/>
      <point x="532" y="261"/>
      <point x="532" y="266" type="curve" smooth="yes"/>
      <point x="532" y="278" type="line" smooth="yes"/>
      <point x="532" y="283"/>
      <point x="530" y="286"/>
      <point x="523" y="286" type="curve" smooth="yes"/>
      <point x="279" y="286" type="line"/>
      <point x="212" y="363" type="line"/>
      <point x="178" y="400"/>
      <point x="169" y="424"/>
      <point x="169" y="468" type="curve" smooth="yes"/>
      <point x="169" y="509" type="line" smooth="yes"/>
      <point x="169" y="577"/>
      <point x="206" y="615"/>
      <point x="273" y="615" type="curve" smooth="yes"/>
      <point x="295" y="615" type="line" smooth="yes"/>
      <point x="362" y="615"/>
      <point x="399" y="577"/>
      <point x="399" y="509" type="curve" smooth="yes"/>
      <point x="399" y="461" type="line" smooth="yes"/>
      <point x="399" y="454"/>
      <point x="402" y="452"/>
      <point x="407" y="452" type="curve" smooth="yes"/>
      <point x="421" y="452" type="line" smooth="yes"/>
      <point x="426" y="452"/>
      <point x="429" y="454"/>
      <point x="429" y="461" type="curve" smooth="yes"/>
      <point x="429" y="510" type="line" smooth="yes"/>
      <point x="429" y="593"/>
      <point x="376" y="643"/>
      <point x="295" y="643" type="curve" smooth="yes"/>
      <point x="273" y="643" type="line" smooth="yes"/>
      <point x="192" y="643"/>
      <point x="139" y="593"/>
      <point x="139" y="510" type="curve" smooth="yes"/>
      <point x="139" y="467" type="line" smooth="yes"/>
      <point x="139" y="419"/>
      <point x="154" y="388"/>
      <point x="187" y="349" type="curve"/>
      <point x="108" y="347"/>
      <point x="80" y="283"/>
      <point x="80" y="225" type="curve" smooth="yes"/>
      <point x="80" y="133" type="line" smooth="yes"/>
      <point x="80" y="50"/>
      <point x="133" y="0"/>
      <point x="214" y="0" type="curve" smooth="yes"/>
      <point x="299" y="0" type="line" smooth="yes"/>
      <point x="360" y="0"/>
      <point x="406" y="28"/>
      <point x="424" y="78" type="curve"/>
    </contour>
  </outline>
</glyph>
<glyph name="quotesingle" format="1">
  <advance width="185"/>
  <unicode hex="0027"/>
  <outline>
    <contour>
      <point x="110" y="633" type="line"/>
      <point x="110" y="639"/>
      <point x="108" y="643"/>
      <point x="101" y="643" type="curve" smooth="yes"/>
      <point x="84" y="643" type="line" smooth="yes"/>
      <point x="77" y="643"/>
      <point x="75" y="639"/>
      <point x="75" y="633" type="curve" smooth="yes"/>
      <point x="82" y="451" type="line" smooth="yes"/>
      <point x="82" y="444"/>
      <point x="86" y="441"/>
      <point x="91" y="441" type="curve" smooth="yes"/>
      <point x="94" y="441" type="line" smooth="yes"/>
      <point x="99" y="441"/>
      <point x="101" y="444"/>
      <point x="103" y="451" type="curve"/>
    </contour>
  </outline>
</glyph>
<glyph name="parenleft" format="1">
  <advance width="277"/>
  <unicode hex="0028"/>
  <outline>
    <contour>
      <point x="207" y="623" type="line"/>
      <point x="207" y="618"/>
      <point x="205" y="615"/>
      <point x="198" y="615" type="curve" smooth="yes"/>
      <point x="197" y="615"/>
      <point x="195" y="615"/>
      <point x="194" y="615" type="curve" smooth="yes"/>
      <point x="127" y="615"/>
      <point x="90" y="574"/>
      <point x="90" y="506" type="curve" smooth="yes"/>
      <point x="90" y="35" type="line" smooth="yes"/>
      <point x="90" y="-33"/>
      <point x="127" y="-74"/>
      <point x="194" y="-74" type="curve" smooth="yes"/>
      <point x="195" y="-74"/>
      <point x="197" y="-74"/>
      <point x="198" y="-74" type="curve" smooth="yes"/>
      <point x="205" y="-74"/>
      <point x="207" y="-77"/>
      <point x="207" y="-82" type="curve" smooth="yes"/>
      <point x="207" y="-94" type="line" smooth="yes"/>
      <point x="207" y="-99"/>
      <point x="205" y="-102"/>
      <point x="198" y="-102" type="curve" smooth="yes"/>
      <point x="197" y="-102"/>
      <point x="195" y="-102"/>
      <point x="194" y="-102" type="curve" smooth="yes"/>
      <point x="113" y="-102"/>
      <point x="60" y="-49"/>
      <point x="60" y="34" type="curve" smooth="yes"/>
      <point x="60" y="507" type="line" smooth="yes"/>
      <point x="60" y="590"/>
      <point x="113" y="643"/>
      <point x="194" y="643" type="curve" smooth="yes"/>
      <point x="195" y="643"/>
      <point x="197" y="643"/>
      <point x="198" y="643" type="curve" smooth="yes"/>
      <point x="205" y="643"/>
      <point x="207" y="640"/>
      <point x="207" y="635" type="curve" smooth="yes"/>
    </contour>
  </outline>
</glyph>
<glyph name="plus" format="1">
  <advance width="512"/>
  <unicode hex="002B"/>
  <outline>
    <contour>
      <point x="271" y="498" type="line"/>
      <point x="271" y="505"/>
      <point x="268" y="507"/>
      <point x="263" y="507" type="curve" smooth="yes"/>
      <point x="249" y="507" type="line" smooth="yes"/>
      <point x="244" y="507"/>
      <point x="241" y="505"/>
      <point x="241" y="498" type="curve" smooth="yes"/>
      <point x="241" y="144" type="line" smooth="yes"/>
      <point x="241" y="137"/>
      <point x="244" y="135"/>
      <point x="249" y="135" type="curve" smooth="yes"/>
      <point x="263" y="135" type="line" smooth="yes"/>
      <point x="268" y="135"/>
      <point x="271" y="137"/>
      <point x="271" y="144" type="curve" smooth="yes"/>
    </contour>
    <contour>
      <point x="79" y="335" type="line"/>
      <point x="72" y="335"/>
      <point x="70" y="332"/>
      <point x="70" y="327" type="curve" smooth="yes"/>
      <point x="70" y="315" type="line" smooth="yes"/>
      <point x="70" y="310"/>
      <point x="72" y="307"/>
      <point x="79" y="307" type="curve" smooth="yes"/>
      <point x="433" y="307" type="line" smooth="yes"/>
      <point x="440" y="307"/>
      <point x="442" y="310"/>
      <point x="442" y="315" type="curve" smooth="yes"/>
      <point x="442" y="327" type="line" smooth="yes"/>
      <point x="442" y="332"/>
      <point x="440" y="335"/>
      <point x="433" y="335" type="curve" smooth="yes"/>
    </contour>
  </outline>
</glyph>
<glyph name="comma" format="1">
  <advance width="187"/>
  <unicode hex="002C"/>
  <outline>
    <contour>
      <point x="112" y="128" type="line"/>
      <point x="112" y="135"/>
      <point x="109" y="137"/>
      <point x="104" y="137" type="curve" smooth="yes"/>
      <point x="83" y="137" type="line" smooth="yes"/>
      <point x="78" y="137"/>
      <point x="75" y="135"/>
      <point x="75" y="128" type="curve" smooth="yes"/>
      <point x="75" y="-95" type="line" smooth="yes"/>
      <point x="75" y="-100"/>
      <point x="78" y="-101"/>
      <point x="80" y="-101" type="curve" smooth="yes"/>
      <point x="83" y="-101"/>
      <point x="85" y="-99"/>
      <point x="86" y="-95" type="curve" smooth="yes"/>
      <point x="104" y="-6" type="line" smooth="yes"/>
      <point x="109" y="18"/>
      <point x="112" y="32"/>
      <point x="112" y="49" type="curve" smooth="yes"/>
    </contour>
  </outline>
</glyph>
<glyph name="three" format="1">
  <advance width="493"/>
  <unicode hex="0033"/>
  <outline>
    <contour>
      <point x="227" y="338" type="line"/>
      <point x="220" y="338"/>
      <point x="218" y="335"/>
      <point x="218" y="330" type="curve" smooth="yes"/>
      <point x="218" y="318" type="line" smooth="yes"/>
      <point x="218" y="313"/>
      <point x="220" y="310"/>
      <point x="227" y="310" type="curve" smooth="yes"/>
      <point x="289" y="310" type="line" smooth="yes"/>
      <point x="356" y="310"/>
      <point x="393" y="272"/>
      <point x="393" y="204" type="curve" smooth="yes"/>
      <point x="393" y="134" type="line" smooth="yes"/>
      <point x="393" y="66"/>
      <point x="356" y="28"/>
      <point x="289" y="28" type="curve" smooth="yes"/>
      <point x="204" y="28" type="line" smooth="yes"/>
      <point x="137" y="28"/>
      <point x="100" y="66"/>
      <point x="100" y="134" type="curve" smooth="yes"/>
      <point x="100" y="183" type="line" smooth="yes"/>
      <point x="100" y="190"/>
      <point x="97" y="192"/>
      <point x="92" y="192" type="curve" smooth="yes"/>
      <point x="78" y="192" type="line" smooth="yes"/>
      <point x="73" y="192"/>
      <point x="70" y="190"/>
      <point x="70" y="183" type="curve" smooth="yes"/>
      <point x="70" y="133" type="line" smooth="yes"/>
      <point x="70" y="50"/>
      <point x="123" y="0"/>
      <point x="204" y="0" type="curve" smooth="yes"/>
      <point x="289" y="0" type="line" smooth="yes"/>
      <point x="370" y="0"/>
      <point x="423" y="50"/>
      <point x="423" y="133" type="curve" smooth="yes"/>
      <point x="423" y="205" type="line" smooth="yes"/>
      <point x="423" y="277"/>
      <point x="384" y="312"/>
      <point x="339" y="324" type="curve"/>
      <point x="386" y="338"/>
      <point x="423" y="371"/>
      <point x="423" y="443" type="curve" smooth="yes"/>
      <point x="423" y="510" type="line" smooth="yes"/>
      <point x="423" y="593"/>
      <point x="370" y="643"/>
      <point x="289" y="643" type="curve" smooth="yes"/>
      <point x="204" y="643" type="line" smooth="yes"/>
      <point x="123" y="643"/>
      <point x="70" y="593"/>
      <point x="70" y="510" type="curve" smooth="yes"/>
      <point x="70" y="471" type="line" smooth="yes"/>
      <point x="70" y="464"/>
      <point x="73" y="462"/>
      <point x="78" y="462" type="curve" smooth="yes"/>
      <point x="92" y="462" type="line" smooth="yes"/>
      <point x="97" y="462"/>
      <point x="100" y="464"/>
      <point x="100" y="471" type="curve" smooth="yes"/>
      <point x="100" y="509" type="line" smooth="yes"/>
      <point x="100" y="577"/>
      <point x="137" y="615"/>
      <point x="204" y="615" type="curve" smooth="yes"/>
      <point x="289" y="615" type="line" smooth="yes"/>
      <point x="356" y="615"/>
      <point x="393" y="577"/>
      <point x="393" y="509" type="curve" smooth="yes"/>
      <point x="393" y="444" type="line" smooth="yes"/>
      <point x="393" y="376"/>
      <point x="356" y="338"/>
      <point x="289" y="338" type="curve" smooth="yes"/>
    </contour>
  </outline>
</glyph>
<glyph name="four" format="1">
  <advance width="515"/>
  <unicode hex="0034"/>
  <outline>
    <contour>
      <point x="382" y="0" type="line"/>
      <point x="387" y="0"/>
      <point x="390" y="2"/>
      <point x="390" y="9" type="curve" smooth="yes"/>
      <point x="390" y="135" type="line"/>
      <point x="466" y="135" type="line" smooth="yes"/>
      <point x="473" y="135"/>
      <point x="475" y="138"/>
      <point x="475" y="143" type="curve" smooth="yes"/>
      <point x="475" y="155" type="line" smooth="yes"/>
      <point x="475" y="160"/>
      <point x="473" y="163"/>
      <point x="466" y="163" type="curve" smooth="yes"/>
      <point x="390" y="163" type="line"/>
      <point x="390" y="634" type="line" smooth="yes"/>
      <point x="390" y="641"/>
      <point x="387" y="643"/>
      <point x="382" y="643" type="curve" smooth="yes"/>
      <point x="353" y="643" type="line" smooth="yes"/>
      <point x="343" y="643"/>
      <point x="338" y="639"/>
      <point x="334" y="632" type="curve" smooth="yes"/>
      <point x="56" y="171" type="line" smooth="yes"/>
      <point x="52" y="165"/>
      <point x="50" y="162"/>
      <point x="50" y="155" type="curve" smooth="yes"/>
      <point x="50" y="143" type="line" smooth="yes"/>
      <point x="50" y="138"/>
      <point x="52" y="135"/>
      <point x="59" y="135" type="curve" smooth="yes"/>
      <point x="360" y="135" type="line"/>
      <point x="360" y="9" type="line" smooth="yes"/>
      <point x="360" y="2"/>
      <point x="363" y="0"/>
      <point x="368" y="0" type="curve" smooth="yes"/>
    </contour>
    <contour>
      <point x="360" y="621" type="line"/>
      <point x="360" y="163" type="line"/>
      <point x="84" y="163" type="line"/>
    </contour>
  </outline>
</glyph>
<glyph name="five" format="1">
  <advance width="476"/>
  <unicode hex="0035"/>
  <outline>
    <contour>
      <point x="282" y="371" type="line"/>
      <point x="349" y="371"/>
      <point x="386" y="333"/>
      <point x="386" y="265" type="curve" smooth="yes"/>
      <point x="386" y="137" type="line" smooth="yes"/>
      <point x="386" y="69"/>
      <point x="349" y="28"/>
      <point x="282" y="28" type="curve" smooth="yes"/>
      <point x="204" y="28" type="line" smooth="yes"/>
      <point x="137" y="28"/>
      <point x="100" y="69"/>
      <point x="100" y="137" type="curve" smooth="yes"/>
      <point x="100" y="176" type="line" smooth="yes"/>
      <point x="100" y="183"/>
      <point x="97" y="185"/>
      <point x="92" y="185" type="curve" smooth="yes"/>
      <point x="78" y="185" type="line" smooth="yes"/>
      <point x="73" y="185"/>
      <point x="70" y="183"/>
      <point x="70" y="176" type="curve" smooth="yes"/>
      <point x="70" y="136" type="line" smooth="yes"/>
      <point x="70" y="53"/>
      <point x="123" y="0"/>
      <point x="204" y="0" type="curve" smooth="yes"/>
      <point x="282" y="0" type="line" smooth="yes"/>
      <point x="363" y="0"/>
      <point x="416" y="53"/>
      <point x="416" y="136" type="curve" smooth="yes"/>
      <point x="416" y="266" type="line" smooth="yes"/>
      <point x="416" y="349"/>
      <point x="363" y="399"/>
      <point x="282" y="399" type="curve" smooth="yes"/>
      <point x="186" y="399" type="line" smooth="yes"/>
      <point x="133" y="399"/>
      <point x="109" y="373"/>
      <point x="100" y="350" type="curve"/>
      <point x="100" y="615" type="line"/>
      <point x="397" y="615" type="line" smooth="yes"/>
      <point x="404" y="615"/>
      <point x="406" y="618"/>
      <point x="406" y="623" type="curve" smooth="yes"/>
      <point x="406" y="635" type="line" smooth="yes"/>
      <point x="406" y="640"/>
      <point x="404" y="643"/>
      <point x="397" y="643" type="curve" smooth="yes"/>
      <point x="78" y="643" type="line" smooth="yes"/>
      <point x="73" y="643"/>
      <point x="70" y="641"/>
      <point x="70" y="634" type="curve" smooth="yes"/>
      <point x="70" y="327" type="line" smooth="yes"/>
      <point x="70" y="320"/>
      <point x="73" y="318"/>
      <point x="78" y="318" type="curve" smooth="yes"/>
      <point x="96" y="318" type="line" smooth="yes"/>
      <point x="116" y="318"/>
      <point x="108" y="371"/>
      <point x="186" y="371" type="curve" smooth="yes"/>
    </contour>
  </outline>
</glyph>
<glyph name="six" format="1">
  <advance width="490"/>
  <unicode hex="0036"/>
  <outline>
    <contour>
      <point x="286" y="0" type="line"/>
      <point x="367" y="0"/>
      <point x="420" y="53"/>
      <point x="420" y="136" type="curve" smooth="yes"/>
      <point x="420" y="241" type="line" smooth="yes"/>
      <point x="420" y="324"/>
      <point x="367" y="377"/>
      <point x="286" y="377" type="curve" smooth="yes"/>
      <point x="90" y="377" type="line"/>
      <point x="90" y="506" type="line" smooth="yes"/>
      <point x="90" y="574"/>
      <point x="127" y="615"/>
      <point x="194" y="615" type="curve" smooth="yes"/>
      <point x="380" y="615" type="line" smooth="yes"/>
      <point x="387" y="615"/>
      <point x="389" y="618"/>
      <point x="389" y="623" type="curve" smooth="yes"/>
      <point x="389" y="635" type="line" smooth="yes"/>
      <point x="389" y="640"/>
      <point x="387" y="643"/>
      <point x="380" y="643" type="curve" smooth="yes"/>
      <point x="194" y="643" type="line" smooth="yes"/>
      <point x="113" y="643"/>
      <point x="60" y="590"/>
      <point x="60" y="507" type="curve" smooth="yes"/>
      <point x="60" y="136" type="line" smooth="yes"/>
      <point x="60" y="53"/>
      <point x="113" y="0"/>
      <point x="194" y="0" type="curve" smooth="yes"/>
    </contour>
    <contour>
      <point x="194" y="28" type="line"/>
      <point x="127" y="28"/>
      <point x="90" y="69"/>
      <point x="90" y="137" type="curve" smooth="yes"/>
      <point x="90" y="349" type="line"/>
      <point x="286" y="349" type="line" smooth="yes"/>
      <point x="353" y="349"/>
      <point x="390" y="308"/>
      <point x="390" y="240" type="curve" smooth="yes"/>
      <point x="390" y="137" type="line" smooth="yes"/>
      <point x="390" y="69"/>
      <point x="353" y="28"/>
      <point x="286" y="28" type="curve" smooth="yes"/>
    </contour>
  </outline>
</glyph>
<glyph name="nine" format="1">
  <advance width="490"/>
  <unicode hex="0039"/>
  <outline>
    <contour>
      <point x="286" y="0" type="line"/>
      <point x="367" y="0"/>
      <point x="420" y="53"/>
      <point x="420" y="136" type="curve" smooth="yes"/>
      <point x="420" y="507" type="line" smooth="yes"/>
      <point x="420" y="590"/>
      <point x="367" y="643"/>
      <point x="286" y="643" type="curve" smooth="yes"/>
      <point x="194" y="643" type="line" smooth="yes"/>
      <point x="113" y="643"/>
      <point x="60" y="590"/>
      <point x="60" y="507" type="curve" smooth="yes"/>
      <point x="60" y="402" type="line" smooth="yes"/>
      <point x="60" y="319"/>
      <point x="113" y="266"/>
      <point x="194" y="266" type="curve" smooth="yes"/>
      <point x="390" y="266" type="line"/>
      <point x="390" y="137" type="line" smooth="yes"/>
      <point x="390" y="69"/>
      <point x="353" y="28"/>
      <point x="286" y="28" type="curve" smooth="yes"/>
      <point x="100" y="28" type="line" smooth="yes"/>
      <point x="93" y="28"/>
      <point x="91" y="25"/>
      <point x="91" y="20" type="curve" smooth="yes"/>
      <point x="91" y="8" type="line" smooth="yes"/>
      <point x="91" y="3"/>
      <point x="93" y="0"/>
      <point x="100" y="0" type="curve" smooth="yes"/>
    </contour>
    <contour>
      <point x="194" y="294" type="line"/>
      <point x="127" y="294"/>
      <point x="90" y="335"/>
      <point x="90" y="403" type="curve" smooth="yes"/>
      <point x="90" y="506" type="line" smooth="yes"/>
      <point x="90" y="574"/>
      <point x="127" y="615"/>
      <point x="194" y="615" type="curve" smooth="yes"/>
      <point x="286" y="615" type="line" smooth="yes"/>
      <point x="353" y="615"/>
      <point x="390" y="574"/>
      <point x="390" y="506" type="curve" smooth="yes"/>
      <point x="390" y="294" type="line"/>
    </contour>
  </outline>
</glyph>
<glyph name="colon" format="1">
  <advance width="187"/>
  <unicode hex="003A"/>
  <outline>
    <contour>
      <point x="112" y="128" type="line"/>
      <point x="112" y="135"/>
      <point x="109" y="137"/>
      <point x="104" y="137" type="curve" smooth="yes"/>
      <point x="83" y="137" type="line" smooth="yes"/>
      <point x="78" y="137"/>
      <point x="75" y="135"/>
      <point x="75" y="128" type="curve" smooth="yes"/>
      <point x="75" y="9" type="line" smooth="yes"/>
      <point x="75" y="2"/>
      <point x="78" y="0"/>
      <point x="83" y="0" type="curve" smooth="yes"/>
      <point x="104" y="0" type="line" smooth="yes"/>
      <point x="109" y="0"/>
      <point x="112" y="2"/>
      <point x="112" y="9" type="curve" smooth="yes"/>
    </contour>
    <contour>
      <point x="112" y="501" type="line"/>
      <point x="112" y="508"/>
      <point x="109" y="510"/>
      <point x="104" y="510" type="curve" smooth="yes"/>
      <point x="83" y="510" type="line" smooth="yes"/>
      <point x="78" y="510"/>
      <point x="75" y="508"/>
      <point x="75" y="501" type="curve" smooth="yes"/>
      <point x="75" y="382" type="line" smooth="yes"/>
      <point x="75" y="375"/>
      <point x="78" y="373"/>
      <point x="83" y="373" type="curve" smooth="yes"/>
      <point x="104" y="373" type="line" smooth="yes"/>
      <point x="109" y="373"/>
      <point x="112" y="375"/>
      <point x="112" y="382" type="curve" smooth="yes"/>
    </contour>
  </outline>
</glyph>
<glyph name="less" format="1">
  <advance width="500"/>
  <unicode hex="003C"/>
  <outline>
    <contour>
      <point x="436" y="475" type="line"/>
      <point x="436" y="481"/>
      <point x="433" y="484"/>
      <point x="425" y="481" type="curve" smooth="yes"/>
      <point x="73" y="342" type="line" smooth="yes"/>
      <point x="66" y="339"/>
      <point x="64" y="336"/>
      <point x="64" y="331" type="curve" smooth="yes"/>
      <point x="64" y="311" type="line" smooth="yes"/>
      <point x="64" y="306"/>
      <point x="66" y="303"/>
      <point x="73" y="300" type="curve" smooth="yes"/>
      <point x="425" y="161" type="line" smooth="yes"/>
      <point x="433" y="158"/>
      <point x="436" y="161"/>
      <point x="436" y="167" type="curve" smooth="yes"/>
      <point x="436" y="181" type="line" smooth="yes"/>
      <point x="436" y="186"/>
      <point x="435" y="189"/>
      <point x="429" y="191" type="curve" smooth="yes"/>
      <point x="92" y="321" type="line"/>
      <point x="429" y="451" type="line" smooth="yes"/>
      <point x="435" y="453"/>
      <point x="436" y="456"/>
      <point x="436" y="461" type="curve" smooth="yes"/>
    </contour>
  </outline>
</glyph>
<glyph name="C" format="1">
  <advance width="543"/>
  <unicode hex="0043"/>
  <outline>
    <contour>
      <point x="344" y="0" type="line"/>
      <point x="425" y="0"/>
      <point x="478" y="53"/>
      <point x="478" y="136" type="curve" smooth="yes"/>
      <point x="478" y="186" type="line"/>
      <point x="478" y="193"/>
      <point x="475" y="195"/>
      <point x="470" y="195" type="curve" smooth="yes"/>
      <point x="456" y="195" type="line" smooth="yes"/>
      <point x="451" y="195"/>
      <point x="448" y="193"/>
      <point x="448" y="186" type="curve" smooth="yes"/>
      <point x="448" y="137" type="line"/>
      <point x="448" y="69"/>
      <point x="411" y="28"/>
      <point x="344" y="28" type="curve" smooth="yes"/>
      <point x="214" y="28" type="line" smooth="yes"/>
      <point x="147" y="28"/>
      <point x="110" y="69"/>
      <point x="110" y="137" type="curve" smooth="yes"/>
      <point x="110" y="506" type="line" smooth="yes"/>
      <point x="110" y="574"/>
      <point x="147" y="615"/>
      <point x="214" y="615" type="curve" smooth="yes"/>
      <point x="344" y="615" type="line" smooth="yes"/>
      <point x="411" y="615"/>
      <point x="448" y="574"/>
      <point x="448" y="506" type="curve" smooth="yes"/>
      <point x="448" y="457" type="line"/>
      <point x="448" y="450"/>
      <point x="451" y="448"/>
      <point x="456" y="448" type="curve" smooth="yes"/>
      <point x="470" y="448" type="line" smooth="yes"/>
      <point x="475" y="448"/>
      <point x="478" y="450"/>
      <point x="478" y="457" type="curve" smooth="yes"/>
      <point x="478" y="507" type="line"/>
      <point x="478" y="590"/>
      <point x="425" y="643"/>
      <point x="344" y="643" type="curve" smooth="yes"/>
      <point x="214" y="643" type="line" smooth="yes"/>
      <point x="133" y="643"/>
      <point x="80" y="590"/>
      <point x="80" y="507" type="curve" smooth="yes"/>
      <point x="80" y="136" type="line" smooth="yes"/>
      <point x="80" y="53"/>
      <point x="133" y="0"/>
      <point x="214" y="0" type="curve" smooth="yes"/>
    </contour>
  </outline>
</glyph>
<glyph name="F" format="1">
  <advance width="462"/>
  <unicode hex="0046"/>
  <outline>
    <contour>
      <point x="112" y="0" type="line"/>
      <point x="117" y="0"/>
      <point x="120" y="2"/>
      <point x="120" y="9" type="curve" smooth="yes"/>
      <point x="120" y="297" type="line" smooth="yes"/>
      <point x="120" y="302"/>
      <point x="122" y="305"/>
      <point x="129" y="305" type="curve" smooth="yes"/>
      <point x="376" y="305" type="line" smooth="yes"/>
      <point x="383" y="305"/>
      <point x="385" y="308"/>
      <point x="385" y="313" type="curve" smooth="yes"/>
      <point x="385" y="325" type="line" smooth="yes"/>
      <point x="385" y="330"/>
      <point x="383" y="333"/>
      <point x="376" y="333" type="curve" smooth="yes"/>
      <point x="129" y="333" type="line" smooth="yes"/>
      <point x="122" y="333"/>
      <point x="120" y="336"/>
      <point x="120" y="341" type="curve" smooth="yes"/>
      <point x="120" y="607" type="line" smooth="yes"/>
      <point x="120" y="612"/>
      <point x="122" y="615"/>
      <point x="129" y="615" type="curve" smooth="yes"/>
      <point x="403" y="615" type="line" smooth="yes"/>
      <point x="410" y="615"/>
      <point x="412" y="618"/>
      <point x="412" y="623" type="curve" smooth="yes"/>
      <point x="412" y="635" type="line" smooth="yes"/>
      <point x="412" y="640"/>
      <point x="410" y="643"/>
      <point x="403" y="643" type="curve" smooth="yes"/>
      <point x="98" y="643" type="line" smooth="yes"/>
      <point x="93" y="643"/>
      <point x="90" y="641"/>
      <point x="90" y="634" type="curve" smooth="yes"/>
      <point x="90" y="9" type="line" smooth="yes"/>
      <point x="90" y="2"/>
      <point x="93" y="0"/>
      <point x="98" y="0" type="curve" smooth="yes"/>
    </contour>
  </outline>
</glyph>
<glyph name="G" format="1">
  <advance width="538"/>
  <unicode hex="0047"/>
  <outline>
    <contour>
      <point x="324" y="0" type="line"/>
      <point x="405" y="0"/>
      <point x="458" y="53"/>
      <point x="458" y="136" type="curve" smooth="yes"/>
      <point x="458" y="305" type="line" smooth="yes"/>
      <point x="458" y="317"/>
      <point x="450" y="324"/>
      <point x="440" y="324" type="curve" smooth="yes"/>
      <point x="290" y="324" type="line" smooth="yes"/>
      <point x="283" y="324"/>
      <point x="281" y="321"/>
      <point x="281" y="316" type="curve" smooth="yes"/>
      <point x="281" y="304" type="line" smooth="yes"/>
      <point x="281" y="299"/>
      <point x="283" y="296"/>
      <point x="290" y="296" type="curve" smooth="yes"/>
      <point x="419" y="296" type="line" smooth="yes"/>
      <point x="426" y="296"/>
      <point x="428" y="293"/>
      <point x="428" y="288" type="curve" smooth="yes"/>
      <point x="428" y="137" type="line" smooth="yes"/>
      <point x="428" y="69"/>
      <point x="391" y="28"/>
      <point x="324" y="28" type="curve" smooth="yes"/>
      <point x="214" y="28" type="line" smooth="yes"/>
      <point x="147" y="28"/>
      <point x="110" y="69"/>
      <point x="110" y="137" type="curve" smooth="yes"/>
      <point x="110" y="506" type="line" smooth="yes"/>
      <point x="110" y="574"/>
      <point x="147" y="615"/>
      <point x="214" y="615" type="curve" smooth="yes"/>
      <point x="324" y="615" type="line" smooth="yes"/>
      <point x="391" y="615"/>
      <point x="428" y="574"/>
      <point x="428" y="506" type="curve" smooth="yes"/>
      <point x="428" y="457" type="line" smooth="yes"/>
      <point x="428" y="450"/>
      <point x="431" y="448"/>
      <point x="436" y="448" type="curve" smooth="yes"/>
      <point x="450" y="448" type="line" smooth="yes"/>
      <point x="455" y="448"/>
      <point x="458" y="450"/>
      <point x="458" y="457" type="curve" smooth="yes"/>
      <point x="458" y="507" type="line" smooth="yes"/>
      <point x="458" y="590"/>
      <point x="405" y="643"/>
      <point x="324" y="643" type="curve" smooth="yes"/>
      <point x="214" y="643" type="line" smooth="yes"/>
      <point x="133" y="643"/>
      <point x="80" y="590"/>
      <point x="80" y="507" type="curve" smooth="yes"/>
      <point x="80" y="136" type="line" smooth="yes"/>
      <point x="80" y="53"/>
      <point x="133" y="0"/>
      <point x="214" y="0" type="curve" smooth="yes"/>
    </contour>
  </outline>
</glyph>
<glyph name="H" format="1">
  <advance width="568"/>
  <unicode hex="0048"/>
  <outline>
    <contour>
      <point x="112" y="0" type="line"/>
      <point x="117" y="0"/>
      <point x="120" y="2"/>
      <point x="120" y="9" type="curve" smooth="yes"/>
      <point x="120" y="306" type="line" smooth="yes"/>
      <point x="120" y="311"/>
      <point x="122" y="314"/>
      <point x="129" y="314" type="curve" smooth="yes"/>
      <point x="439" y="314" type="line" smooth="yes"/>
      <point x="446" y="314"/>
      <point x="448" y="311"/>
      <point x="448" y="306" type="curve" smooth="yes"/>
      <point x="448" y="9" type="line" smooth="yes"/>
      <point x="448" y="2"/>
      <point x="451" y="0"/>
      <point x="456" y="0" type="curve" smooth="yes"/>
      <point x="470" y="0" type="line" smooth="yes"/>
      <point x="475" y="0"/>
      <point x="478" y="2"/>
      <point x="478" y="9" type="curve" smooth="yes"/>
      <point x="478" y="634" type="line" smooth="yes"/>
      <point x="478" y="641"/>
      <point x="475" y="643"/>
      <point x="470" y="643" type="curve" smooth="yes"/>
      <point x="456" y="643" type="line" smooth="yes"/>
      <point x="451" y="643"/>
      <point x="448" y="641"/>
      <point x="448" y="634" type="curve" smooth="yes"/>
      <point x="448" y="350" type="line" smooth="yes"/>
      <point x="448" y="345"/>
      <point x="446" y="342"/>
      <point x="439" y="342" type="curve" smooth="yes"/>
      <point x="129" y="342" type="line" smooth="yes"/>
      <point x="122" y="342"/>
      <point x="120" y="345"/>
      <point x="120" y="350" type="curve" smooth="yes"/>
      <point x="120" y="634" type="line" smooth="yes"/>
      <point x="120" y="641"/>
      <point x="117" y="643"/>
      <point x="112" y="643" type="curve" smooth="yes"/>
      <point x="98" y="643" type="line" smooth="yes"/>
      <point x="93" y="643"/>
      <point x="90" y="641"/>
      <point x="90" y="634" type="curve" smooth="yes"/>
      <point x="90" y="9" type="line" smooth="yes"/>
      <point x="90" y="2"/>
      <point x="93" y="0"/>
      <point x="98" y="0" type="curve" smooth="yes"/>
    </contour>
  </outline>
</glyph>
<glyph name="I" format="1">
  <advance width="220"/>
  <unicode hex="0049"/>
  <outline>
    <contour>
      <point x="125" y="634" type="line"/>
      <point x="125" y="641"/>
      <point x="122" y="643"/>
      <point x="117" y="643" type="curve" smooth="yes"/>
      <point x="103" y="643" type="line" smooth="yes"/>
      <point x="98" y="643"/>
      <point x="95" y="641"/>
      <point x="95" y="634" type="curve" smooth="yes"/>
      <point x="95" y="9" type="line" smooth="yes"/>
      <point x="95" y="2"/>
      <point x="98" y="0"/>
      <point x="103" y="0" type="curve" smooth="yes"/>
      <point x="117" y="0" type="line" smooth="yes"/>
      <point x="122" y="0"/>
      <point x="125" y="2"/>
      <point x="125" y="9" type="curve" smooth="yes"/>
    </contour>
  </outline>
</glyph>
<glyph name="J" format="1">
  <advance width="493"/>
  <unicode hex="004A"/>
  <outline>
    <contour>
      <point x="386" y="643" type="line"/>
      <point x="381" y="643"/>
      <point x="378" y="640"/>
      <point x="378" y="634" type="curve" smooth="yes"/>
      <point x="378" y="137" type="line" smooth="yes"/>
      <point x="378" y="69"/>
      <point x="341" y="28"/>
      <point x="274" y="28" type="curve" smooth="yes"/>
      <point x="174" y="28" type="line" smooth="yes"/>
      <point x="107" y="28"/>
      <point x="70" y="69"/>
      <point x="70" y="137" type="curve" smooth="yes"/>
      <point x="70" y="163"/>
      <point x="70" y="190"/>
      <point x="70" y="216" type="curve" smooth="yes"/>
      <point x="70" y="223"/>
      <point x="67" y="225"/>
      <point x="62" y="225" type="curve" smooth="yes"/>
      <point x="48" y="225" type="line" smooth="yes"/>
      <point x="43" y="225"/>
      <point x="40" y="223"/>
      <point x="40" y="216" type="curve" smooth="yes"/>
      <point x="40" y="189"/>
      <point x="40" y="163"/>
      <point x="40" y="136" type="curve" smooth="yes"/>
      <point x="40" y="53"/>
      <point x="93" y="0"/>
      <point x="174" y="0" type="curve" smooth="yes"/>
      <point x="274" y="0" type="line" smooth="yes"/>
      <point x="355" y="0"/>
      <point x="408" y="53"/>
      <point x="408" y="136" type="curve" smooth="yes"/>
      <point x="408" y="635" type="line" smooth="yes"/>
      <point x="408" y="640"/>
      <point x="405" y="643"/>
      <point x="400" y="643" type="curve" smooth="yes"/>
    </contour>
  </outline>
</glyph>
<glyph name="K" format="1">
  <advance width="523"/>
  <unicode hex="004B"/>
  <outline>
    <contour>
      <point x="112" y="0" type="line"/>
      <point x="117" y="0"/>
      <point x="120" y="2"/>
      <point x="120" y="9" type="curve" smooth="yes"/>
      <point x="120" y="202" type="line"/>
      <point x="234" y="339" type="line"/>
      <point x="456" y="9" type="line" smooth="yes"/>
      <point x="461" y="1"/>
      <point x="465" y="0"/>
      <point x="471" y="0" type="curve" smooth="yes"/>
      <point x="487" y="0" type="line" smooth="yes"/>
      <point x="492" y="0"/>
      <point x="495" y="3"/>
      <point x="491" y="9" type="curve" smooth="yes"/>
      <point x="253" y="363" type="line"/>
      <point x="457" y="634" type="line" smooth="yes"/>
      <point x="463" y="641"/>
      <point x="460" y="643"/>
      <point x="455" y="643" type="curve" smooth="yes"/>
      <point x="436" y="643" type="line" smooth="yes"/>
      <point x="431" y="643"/>
      <point x="427" y="643"/>
      <point x="420" y="634" type="curve" smooth="yes"/>
      <point x="139" y="267" type="line" smooth="yes"/>
      <point x="135" y="262"/>
      <point x="127" y="249"/>
      <point x="124" y="242" type="curve"/>
      <point x="120" y="242" type="line"/>
      <point x="120" y="634" type="line" smooth="yes"/>
      <point x="120" y="641"/>
      <point x="117" y="643"/>
      <point x="112" y="643" type="curve" smooth="yes"/>
      <point x="98" y="643" type="line" smooth="yes"/>
      <point x="93" y="643"/>
      <point x="90" y="641"/>
      <point x="90" y="634" type="curve" smooth="yes"/>
      <point x="90" y="9" type="line" smooth="yes"/>
      <point x="90" y="2"/>
      <point x="93" y="0"/>
      <point x="98" y="0" type="curve" smooth="yes"/>
    </contour>
  </outline>
</glyph>
<glyph name="L" format="1">
  <advance width="452"/>
  <unicode hex="004C"/>
  <outline>
    <contour>
      <point x="413" y="0" type="line"/>
      <point x="420" y="0"/>
      <point x="422" y="3"/>
      <point x="422" y="8" type="curve" smooth="yes"/>
      <point x="422" y="22" type="line" smooth="yes"/>
      <point x="422" y="27"/>
      <point x="420" y="30"/>
      <point x="413" y="30" type="curve" smooth="yes"/>
      <point x="129" y="30" type="line" smooth="yes"/>
      <point x="122" y="30"/>
      <point x="120" y="33"/>
      <point x="120" y="38" type="curve" smooth="yes"/>
      <point x="120" y="634" type="line" smooth="yes"/>
      <point x="120" y="641"/>
      <point x="117" y="643"/>
      <point x="112" y="643" type="curve" smooth="yes"/>
      <point x="98" y="643" type="line" smooth="yes"/>
      <point x="93" y="643"/>
      <point x="90" y="641"/>
      <point x="90" y="634" type="curve" smooth="yes"/>
      <point x="90" y="9" type="line" smooth="yes"/>
      <point x="90" y="2"/>
      <point x="93" y="0"/>
      <point x="98" y="0" type="curve" smooth="yes"/>
    </contour>
  </outline>
</glyph>
<glyph name="P" format="1">
  <advance width="523"/>
  <unicode hex="0050"/>
  <outline>
    <contour>
      <point x="129" y="276" type="line"/>
      <point x="122" y="276"/>
      <point x="120" y="279"/>
      <point x="120" y="284" type="curve" smooth="yes"/>
      <point x="120" y="607" type="line" smooth="yes"/>
      <point x="120" y="612"/>
      <point x="122" y="615"/>
      <point x="129" y="615" type="curve" smooth="yes"/>
      <point x="324" y="615" type="line" smooth="yes"/>
      <point x="391" y="615"/>
      <point x="428" y="574"/>
      <point x="428" y="506" type="curve" smooth="yes"/>
      <point x="428" y="385" type="line" smooth="yes"/>
      <point x="428" y="317"/>
      <point x="391" y="276"/>
      <point x="324" y="276" type="curve" smooth="yes"/>
    </contour>
    <contour>
      <point x="112" y="0" type="line"/>
      <point x="117" y="0"/>
      <point x="120" y="2"/>
      <point x="120" y="9" type="curve" smooth="yes"/>
      <point x="120" y="240" type="line" smooth="yes"/>
      <point x="120" y="245"/>
      <point x="122" y="248"/>
      <point x="129" y="248" type="curve" smooth="yes"/>
      <point x="324" y="248" type="line" smooth="yes"/>
      <point x="405" y="248"/>
      <point x="458" y="301"/>
      <point x="458" y="384" type="curve" smooth="yes"/>
      <point x="458" y="507" type="line" smooth="yes"/>
      <point x="458" y="590"/>
      <point x="405" y="643"/>
      <point x="324" y="643" type="curve" smooth="yes"/>
      <point x="98" y="643" type="line" smooth="yes"/>
      <point x="93" y="643"/>
      <point x="90" y="641"/>
      <point x="90" y="634" type="curve" smooth="yes"/>
      <point x="90" y="9" type="line" smooth="yes"/>
      <point x="90" y="2"/>
      <point x="93" y="0"/>
      <point x="98" y="0" type="curve" smooth="yes"/>
    </contour>
  </outline>
</glyph>
<glyph name="R" format="1">
  <advance width="530"/>
  <unicode hex="0052"/>
  <outline>
    <contour>
      <point x="129" y="299" type="line"/>
      <point x="122" y="299"/>
      <point x="120" y="302"/>
      <point x="120" y="307" type="curve" smooth="yes"/>
      <point x="120" y="607" type="line" smooth="yes"/>
      <point x="120" y="612"/>
      <point x="122" y="615"/>
      <point x="129" y="615" type="curve" smooth="yes"/>
      <point x="323" y="615" type="line" smooth="yes"/>
      <point x="390" y="615"/>
      <point x="427" y="574"/>
      <point x="427" y="506" type="curve" smooth="yes"/>
      <point x="427" y="408" type="line" smooth="yes"/>
      <point x="427" y="340"/>
      <point x="390" y="299"/>
      <point x="323" y="299" type="curve" smooth="yes"/>
    </contour>
    <contour>
      <point x="112" y="0" type="line"/>
      <point x="117" y="0"/>
      <point x="120" y="2"/>
      <point x="120" y="9" type="curve" smooth="yes"/>
      <point x="120" y="263" type="line" smooth="yes"/>
      <point x="120" y="268"/>
      <point x="122" y="271"/>
      <point x="129" y="271" type="curve" smooth="yes"/>
      <point x="312" y="271" type="line"/>
      <point x="434" y="9" type="line" smooth="yes"/>
      <point x="438" y="2"/>
      <point x="441" y="0"/>
      <point x="447" y="0" type="curve" smooth="yes"/>
      <point x="465" y="0" type="line" smooth="yes"/>
      <point x="470" y="0"/>
      <point x="472" y="3"/>
      <point x="469" y="9" type="curve" smooth="yes"/>
      <point x="346" y="269" type="line"/>
      <point x="346" y="273" type="line"/>
      <point x="414" y="282"/>
      <point x="457" y="332"/>
      <point x="457" y="407" type="curve" smooth="yes"/>
      <point x="457" y="507" type="line" smooth="yes"/>
      <point x="457" y="590"/>
      <point x="404" y="643"/>
      <point x="323" y="643" type="curve" smooth="yes"/>
      <point x="98" y="643" type="line" smooth="yes"/>
      <point x="93" y="643"/>
      <point x="90" y="641"/>
      <point x="90" y="634" type="curve" smooth="yes"/>
      <point x="90" y="9" type="line" smooth="yes"/>
      <point x="90" y="2"/>
      <point x="93" y="0"/>
      <point x="98" y="0" type="curve" smooth="yes"/>
    </contour>
  </outline>
</glyph>
<glyph name="T" format="1">
  <advance width="414"/>
  <unicode hex="0054"/>
  <outline>
    <contour>
      <point x="214" y="0" type="line"/>
      <point x="219" y="0"/>
      <point x="222" y="2"/>
      <point x="222" y="9" type="curve" smooth="yes"/>
      <point x="222" y="607" type="line" smooth="yes"/>
      <point x="222" y="612"/>
      <point x="224" y="615"/>
      <point x="231" y="615" type="curve" smooth="yes"/>
      <point x="385" y="615" type="line" smooth="yes"/>
      <point x="392" y="615"/>
      <point x="394" y="618"/>
      <point x="394" y="623" type="curve" smooth="yes"/>
      <point x="394" y="635" type="line" smooth="yes"/>
      <point x="394" y="640"/>
      <point x="392" y="643"/>
      <point x="385" y="643" type="curve" smooth="yes"/>
      <point x="29" y="643" type="line" smooth="yes"/>
      <point x="22" y="643"/>
      <point x="20" y="640"/>
      <point x="20" y="635" type="curve" smooth="yes"/>
      <point x="20" y="623" type="line" smooth="yes"/>
      <point x="20" y="618"/>
      <point x="22" y="615"/>
      <point x="29" y="615" type="curve" smooth="yes"/>
      <point x="183" y="615" type="line" smooth="yes"/>
      <point x="190" y="615"/>
      <point x="192" y="612"/>
      <point x="192" y="607" type="curve" smooth="yes"/>
      <point x="192" y="9" type="line" smooth="yes"/>
      <point x="192" y="2"/>
      <point x="195" y="0"/>
      <point x="200" y="0" type="curve" smooth="yes"/>
    </contour>
  </outline>
</glyph>
<glyph name="U" format="1">
  <advance width="550"/>
  <unicode hex="0055"/>
  <outline>
    <contour>
      <point x="443" y="643" type="line"/>
      <point x="438" y="643"/>
      <point x="435" y="640"/>
      <point x="435" y="634" type="curve" smooth="yes"/>
      <point x="435" y="137" type="line" smooth="yes"/>
      <point x="435" y="69"/>
      <point x="398" y="28"/>
      <point x="331" y="28" type="curve" smooth="yes"/>
      <point x="219" y="28" type="line" smooth="yes"/>
      <point x="152" y="28"/>
      <point x="115" y="69"/>
      <point x="115" y="137" type="curve" smooth="yes"/>
      <point x="115" y="634" type="line" smooth="yes"/>
      <point x="115" y="641"/>
      <point x="112" y="643"/>
      <point x="107" y="643" type="curve" smooth="yes"/>
      <point x="93" y="643" type="line" smooth="yes"/>
      <point x="88" y="643"/>
      <point x="85" y="641"/>
      <point x="85" y="634" type="curve" smooth="yes"/>
      <point x="85" y="136" type="line" smooth="yes"/>
      <point x="85" y="53"/>
      <point x="138" y="0"/>
      <point x="219" y="0" type="curve" smooth="yes"/>
      <point x="331" y="0" type="line" smooth="yes"/>
      <point x="412" y="0"/>
      <point x="465" y="53"/>
      <point x="465" y="136" type="curve" smooth="yes"/>
      <point x="465" y="635" type="line" smooth="yes"/>
      <point x="465" y="640"/>
      <point x="462" y="643"/>
      <point x="457" y="643" type="curve" smooth="yes"/>
    </contour>
  </outline>
</glyph>
<glyph name="W" format="1">
  <advance width="790"/>
  <unicode hex="0057"/>
  <outline>
    <contour>
      <point x="219" y="0" type="line"/>
      <point x="224" y="0"/>
      <point x="227" y="3"/>
      <point x="229" y="9" type="curve" smooth="yes"/>
      <point x="393" y="599" type="line"/>
      <point x="397" y="599" type="line"/>
      <point x="561" y="9" type="line" smooth="yes"/>
      <point x="563" y="3"/>
      <point x="567" y="0"/>
      <point x="572" y="0" type="curve" smooth="yes"/>
      <point x="599" y="0" type="line" smooth="yes"/>
      <point x="604" y="0"/>
      <point x="607" y="1"/>
      <point x="609" y="9" type="curve" smooth="yes"/>
      <point x="754" y="634" type="line" smooth="yes"/>
      <point x="756" y="641"/>
      <point x="753" y="643"/>
      <point x="748" y="643" type="curve" smooth="yes"/>
      <point x="733" y="643" type="line" smooth="yes"/>
      <point x="728" y="643"/>
      <point x="724" y="642"/>
      <point x="722" y="634" type="curve" smooth="yes"/>
      <point x="587" y="38" type="line"/>
      <point x="583" y="38" type="line"/>
      <point x="415" y="634" type="line" smooth="yes"/>
      <point x="413" y="641"/>
      <point x="410" y="643"/>
      <point x="404" y="643" type="curve" smooth="yes"/>
      <point x="385" y="643" type="line" smooth="yes"/>
      <point x="379" y="643"/>
      <point x="376" y="641"/>
      <point x="374" y="634" type="curve" smooth="yes"/>
      <point x="207" y="38" type="line"/>
      <point x="203" y="38" type="line"/>
      <point x="68" y="634" type="line" smooth="yes"/>
      <point x="66" y="641"/>
      <point x="63" y="643"/>
      <point x="58" y="643" type="curve" smooth="yes"/>
      <point x="44" y="643" type="line" smooth="yes"/>
      <point x="37" y="643"/>
      <point x="35" y="640"/>
      <point x="36" y="634" type="curve" smooth="yes"/>
      <point x="181" y="9" type="line" smooth="yes"/>
      <point x="183" y="2"/>
      <point x="187" y="0"/>
      <point x="192" y="0" type="curve" smooth="yes"/>
    </contour>
  </outline>
</glyph>
<glyph name="X" format="1">
  <advance width="494"/>
  <unicode hex="0058"/>
  <outline>
    <contour>
      <point x="426" y="7" type="line"/>
      <point x="429" y="2"/>
      <point x="432" y="0"/>
      <point x="437" y="0" type="curve" smooth="yes"/>
      <point x="453" y="0" type="line" smooth="yes"/>
      <point x="459" y="0"/>
      <point x="460" y="4"/>
      <point x="457" y="9" type="curve" smooth="yes"/>
      <point x="268" y="343" type="line"/>
      <point x="446" y="634" type="line" smooth="yes"/>
      <point x="450" y="641"/>
      <point x="447" y="643"/>
      <point x="442" y="643" type="curve" smooth="yes"/>
      <point x="426" y="643" type="line" smooth="yes"/>
      <point x="420" y="643"/>
      <point x="417" y="641"/>
      <point x="413" y="634" type="curve" smooth="yes"/>
      <point x="250" y="365" type="line"/>
      <point x="246" y="365" type="line"/>
      <point x="82" y="634" type="line" smooth="yes"/>
      <point x="78" y="641"/>
      <point x="74" y="643"/>
      <point x="68" y="643" type="curve" smooth="yes"/>
      <point x="54" y="643" type="line" smooth="yes"/>
      <point x="49" y="643"/>
      <point x="46" y="639"/>
      <point x="49" y="634" type="curve" smooth="yes"/>
      <point x="228" y="342" type="line"/>
      <point x="38" y="9" type="line" smooth="yes"/>
      <point x="35" y="4"/>
      <point x="36" y="0"/>
      <point x="42" y="0" type="curve" smooth="yes"/>
      <point x="58" y="0" type="line" smooth="yes"/>
      <point x="63" y="0"/>
      <point x="66" y="2"/>
      <point x="69" y="7" type="curve" smooth="yes"/>
      <point x="245" y="317" type="line"/>
      <point x="249" y="317" type="line"/>
    </contour>
  </outline>
</glyph>
<glyph name="bracketleft" format="1">
  <advance width="277"/>
  <unicode hex="005B"/>
  <outline>
    <contour>
      <point x="198" y="-102" type="line"/>
      <point x="205" y="-102"/>
      <point x="207" y="-99"/>
      <point x="207" y="-94" type="curve" smooth="yes"/>
      <point x="207" y="-82" type="line" smooth="yes"/>
      <point x="207" y="-77"/>
      <point x="205" y="-74"/>
      <point x="198" y="-74" type="curve" smooth="yes"/>
      <point x="99" y="-74" type="line" smooth="yes"/>
      <point x="92" y="-74"/>
      <point x="90" y="-71"/>
      <point x="90" y="-66" type="curve" smooth="yes"/>
      <point x="90" y="607" type="line" smooth="yes"/>
      <point x="90" y="612"/>
      <point x="92" y="615"/>
      <point x="99" y="615" type="curve" smooth="yes"/>
      <point x="198" y="615" type="line" smooth="yes"/>
      <point x="205" y="615"/>
      <point x="207" y="618"/>
      <point x="207" y="623" type="curve" smooth="yes"/>
      <point x="207" y="635" type="line" smooth="yes"/>
      <point x="207" y="640"/>
      <point x="205" y="643"/>
      <point x="198" y="643" type="curve" smooth="yes"/>
      <point x="68" y="643" type="line" smooth="yes"/>
      <point x="63" y="643"/>
      <point x="60" y="641"/>
      <point x="60" y="634" type="curve" smooth="yes"/>
      <point x="60" y="-93" type="line" smooth="yes"/>
      <point x="60" y="-100"/>
      <point x="63" y="-102"/>
      <point x="68" y="-102" type="curve" smooth="yes"/>
    </contour>
  </outline>
</glyph>
<glyph name="bracketright" format="1">
  <advance width="277"/>
  <unicode hex="005D"/>
  <outline>
    <contour>
      <point x="60" y="-94" type="line"/>
      <point x="60" y="-99"/>
      <point x="62" y="-102"/>
      <point x="69" y="-102" type="curve" smooth="yes"/>
      <point x="199" y="-102" type="line" smooth="yes"/>
      <point x="204" y="-102"/>
      <point x="207" y="-100"/>
      <point x="207" y="-93" type="curve" smooth="yes"/>
      <point x="207" y="634" type="line" smooth="yes"/>
      <point x="207" y="641"/>
      <point x="204" y="643"/>
      <point x="199" y="643" type="curve" smooth="yes"/>
      <point x="69" y="643" type="line" smooth="yes"/>
      <point x="62" y="643"/>
      <point x="60" y="640"/>
      <point x="60" y="635" type="curve" smooth="yes"/>
      <point x="60" y="623" type="line" smooth="yes"/>
      <point x="60" y="618"/>
      <point x="62" y="615"/>
      <point x="69" y="615" type="curve" smooth="yes"/>
      <point x="168" y="615" type="line" smooth="yes"/>
      <point x="175" y="615"/>
      <point x="177" y="612"/>
      <point x="177" y="607" type="curve" smooth="yes"/>
      <point x="177" y="-66" type="line" smooth="yes"/>
      <point x="177" y="-71"/>
      <point x="175" y="-74"/>
      <point x="168" y="-74" type="curve" smooth="yes"/>
      <point x="69" y="-74" type="line" smooth="yes"/>
      <point x="62" y="-74"/>
      <point x="60" y="-77"/>
      <point x="60" y="-82" type="curve" smooth="yes"/>
    </contour>
  </outline>
</glyph>
<glyph name="underscore" format="1">
  <advance width="372"/>
  <unicode hex="005F"/>
  <outline>
    <contour>
      <point x="363" y="-96" type="line"/>
      <point x="370" y="-96"/>
      <point x="372" y="-93"/>
      <point x="372" y="-88" type="curve" smooth="yes"/>
      <point x="372" y="-76" type="line" smooth="yes"/>
      <point x="372" y="-71"/>
      <point x="370" y="-68"/>
      <point x="363" y="-68" type="curve" smooth="yes"/>
      <point x="9" y="-68" type="line" smooth="yes"/>
      <point x="2" y="-68"/>
      <point x="0" y="-71"/>
      <point x="0" y="-76" type="curve" smooth="yes"/>
      <point x="0" y="-88" type="line" smooth="yes"/>
      <point x="0" y="-93"/>
      <point x="2" y="-96"/>
      <point x="9" y="-96" type="curve" smooth="yes"/>
    </contour>
  </outline>
</glyph>
<glyph name="a" format="1">
  <advance width="498"/>
  <unicode hex="0061"/>
  <outline>
    <contour>
      <point x="388" y="132" type="line"/>
      <point x="388" y="63"/>
      <point x="341" y="28"/>
      <point x="276" y="28" type="curve" smooth="yes"/>
      <point x="204" y="28" type="line" smooth="yes"/>
      <point x="137" y="28"/>
      <point x="100" y="69"/>
      <point x="100" y="137" type="curve" smooth="yes"/>
      <point x="100" y="373" type="line" smooth="yes"/>
      <point x="100" y="441"/>
      <point x="137" y="482"/>
      <point x="204" y="482" type="curve" smooth="yes"/>
      <point x="379" y="482" type="line" smooth="yes"/>
      <point x="386" y="482"/>
      <point x="388" y="479"/>
      <point x="388" y="474" type="curve" smooth="yes"/>
    </contour>
    <contour>
      <point x="278" y="0" type="line"/>
      <point x="341" y="0"/>
      <point x="370" y="26"/>
      <point x="384" y="52" type="curve"/>
      <point x="388" y="52" type="line"/>
      <point x="388" y="9" type="line" smooth="yes"/>
      <point x="388" y="2"/>
      <point x="391" y="0"/>
      <point x="396" y="0" type="curve" smooth="yes"/>
      <point x="410" y="0" type="line" smooth="yes"/>
      <point x="415" y="0"/>
      <point x="418" y="2"/>
      <point x="418" y="9" type="curve" smooth="yes"/>
      <point x="418" y="501" type="line" smooth="yes"/>
      <point x="418" y="508"/>
      <point x="415" y="510"/>
      <point x="410" y="510" type="curve" smooth="yes"/>
      <point x="204" y="510" type="line" smooth="yes"/>
      <point x="123" y="510"/>
      <point x="70" y="457"/>
      <point x="70" y="374" type="curve" smooth="yes"/>
      <point x="70" y="136" type="line" smooth="yes"/>
      <point x="70" y="53"/>
      <point x="123" y="0"/>
      <point x="204" y="0" type="curve" smooth="yes"/>
    </contour>
  </outline>
</glyph>
<glyph name="c" format="1">
  <advance width="390"/>
  <unicode hex="0063"/>
  <outline>
    <contour>
      <point x="355" y="20" type="line"/>
      <point x="355" y="25"/>
      <point x="353" y="28"/>
      <point x="346" y="28" type="curve" smooth="yes"/>
      <point x="204" y="28" type="line" smooth="yes"/>
      <point x="137" y="28"/>
      <point x="100" y="69"/>
      <point x="100" y="137" type="curve" smooth="yes"/>
      <point x="100" y="373" type="line" smooth="yes"/>
      <point x="100" y="441"/>
      <point x="137" y="482"/>
      <point x="204" y="482" type="curve" smooth="yes"/>
      <point x="346" y="482" type="line" smooth="yes"/>
      <point x="353" y="482"/>
      <point x="355" y="485"/>
      <point x="355" y="490" type="curve" smooth="yes"/>
      <point x="355" y="502" type="line" smooth="yes"/>
      <point x="355" y="507"/>
      <point x="353" y="510"/>
      <point x="346" y="510" type="curve" smooth="yes"/>
      <point x="204" y="510" type="line" smooth="yes"/>
      <point x="123" y="510"/>
      <point x="70" y="457"/>
      <point x="70" y="374" type="curve" smooth="yes"/>
      <point x="70" y="136" type="line" smooth="yes"/>
      <point x="70" y="53"/>
      <point x="123" y="0"/>
      <point x="204" y="0" type="curve" smooth="yes"/>
      <point x="346" y="0" type="line" smooth="yes"/>
      <point x="353" y="0"/>
      <point x="355" y="3"/>
      <point x="355" y="8" type="curve" smooth="yes"/>
    </contour>
  </outline>
</glyph>
<glyph name="f" format="1">
  <advance width="290"/>
  <unicode hex="0066"/>
  <outline>
    <contour>
      <point x="164" y="510" type="line"/>
      <point x="157" y="510"/>
      <point x="155" y="513"/>
      <point x="155" y="518" type="curve" smooth="yes"/>
      <point x="155" y="568" type="line" smooth="yes"/>
      <point x="155" y="636"/>
      <point x="176" y="675"/>
      <point x="243" y="675" type="curve" smooth="yes"/>
      <point x="258" y="675" type="line" smooth="yes"/>
      <point x="265" y="675"/>
      <point x="267" y="678"/>
      <point x="267" y="683" type="curve" smooth="yes"/>
      <point x="267" y="695" type="line" smooth="yes"/>
      <point x="267" y="700"/>
      <point x="265" y="703"/>
      <point x="258" y="703" type="curve" smooth="yes"/>
      <point x="243" y="703" type="line" smooth="yes"/>
      <point x="162" y="703"/>
      <point x="125" y="652"/>
      <point x="125" y="569" type="curve" smooth="yes"/>
      <point x="125" y="518" type="line" smooth="yes"/>
      <point x="125" y="513"/>
      <point x="123" y="510"/>
      <point x="116" y="510" type="curve" smooth="yes"/>
      <point x="48" y="510" type="line" smooth="yes"/>
      <point x="41" y="510"/>
      <point x="39" y="507"/>
      <point x="39" y="502" type="curve" smooth="yes"/>
      <point x="39" y="490" type="line" smooth="yes"/>
      <point x="39" y="485"/>
      <point x="41" y="482"/>
      <point x="48" y="482" type="curve" smooth="yes"/>
      <point x="116" y="482" type="line" smooth="yes"/>
      <point x="123" y="482"/>
      <point x="125" y="479"/>
      <point x="125" y="474" type="curve" smooth="yes"/>
      <point x="125" y="9" type="line" smooth="yes"/>
      <point x="125" y="2"/>
      <point x="128" y="0"/>
      <point x="133" y="0" type="curve" smooth="yes"/>
      <point x="147" y="0" type="line" smooth="yes"/>
      <point x="152" y="0"/>
      <point x="155" y="2"/>
      <point x="155" y="9" type="curve" smooth="yes"/>
      <point x="155" y="474" type="line" smooth="yes"/>
      <point x="155" y="479"/>
      <point x="157" y="482"/>
      <point x="164" y="482" type="curve" smooth="yes"/>
      <point x="258" y="482" type="line" smooth="yes"/>
      <point x="265" y="482"/>
      <point x="267" y="485"/>
      <point x="267" y="490" type="curve" smooth="yes"/>
      <point x="267" y="502" type="line" smooth="yes"/>
      <point x="267" y="507"/>
      <point x="265" y="510"/>
      <point x="258" y="510" type="curve" smooth="yes"/>
    </contour>
  </outline>
</glyph>
<glyph name="i" format="1">
  <advance width="200"/>
  <unicode hex="0069"/>
  <outline>
    <contour>
      <point x="85" y="9" type="line"/>
      <point x="85" y="2"/>
      <point x="88" y="0"/>
      <point x="93" y="0" type="curve" smooth="yes"/>
      <point x="107" y="0" type="line" smooth="yes"/>
      <point x="112" y="0"/>
      <point x="115" y="2"/>
      <point x="115" y="9" type="curve" smooth="yes"/>
      <point x="115" y="501" type="line" smooth="yes"/>
      <point x="115" y="508"/>
      <point x="112" y="510"/>
      <point x="107" y="510" type="curve" smooth="yes"/>
      <point x="93" y="510" type="line" smooth="yes"/>
      <point x="88" y="510"/>
      <point x="85" y="508"/>
      <point x="85" y="501" type="curve" smooth="yes"/>
    </contour>
    <contour>
      <point x="85" y="593" type="line"/>
      <point x="85" y="586"/>
      <point x="88" y="584"/>
      <point x="93" y="584" type="curve" smooth="yes"/>
      <point x="107" y="584" type="line" smooth="yes"/>
      <point x="112" y="584"/>
      <point x="115" y="586"/>
      <point x="115" y="593" type="curve" smooth="yes"/>
      <point x="115" y="692" type="line" smooth="yes"/>
      <point x="115" y="699"/>
      <point x="112" y="701"/>
      <point x="107" y="701" type="curve" smooth="yes"/>
      <point x="93" y="701" type="line" smooth="yes"/>
      <point x="88" y="701"/>
      <point x="85" y="699"/>
      <point x="85" y="692" type="curve" smooth="yes"/>
    </contour>
  </outline>
</glyph>
<glyph name="q" format="1">
  <advance width="498"/>
  <unicode hex="0071"/>
  <outline>
    <contour>
      <point x="274" y="0" type="line"/>
      <point x="309" y="0"/>
      <point x="353" y="0"/>
      <point x="384" y="54" type="curve"/>
      <point x="388" y="54" type="line"/>
      <point x="388" y="-144" type="line" smooth="yes"/>
      <point x="388" y="-151"/>
      <point x="391" y="-153"/>
      <point x="396" y="-153" type="curve" smooth="yes"/>
      <point x="410" y="-153" type="line" smooth="yes"/>
      <point x="415" y="-153"/>
      <point x="418" y="-151"/>
      <point x="418" y="-144" type="curve" smooth="yes"/>
      <point x="418" y="501" type="line" smooth="yes"/>
      <point x="418" y="508"/>
      <point x="415" y="510"/>
      <point x="410" y="510" type="curve" smooth="yes"/>
      <point x="204" y="510" type="line" smooth="yes"/>
      <point x="123" y="510"/>
      <point x="70" y="457"/>
      <point x="70" y="374" type="curve" smooth="yes"/>
      <point x="70" y="136" type="line" smooth="yes"/>
      <point x="70" y="53"/>
      <point x="123" y="0"/>
      <point x="204" y="0" type="curve" smooth="yes"/>
    </contour>
    <contour>
      <point x="388" y="137" type="line"/>
      <point x="388" y="69"/>
      <point x="341" y="28"/>
      <point x="274" y="28" type="curve" smooth="yes"/>
      <point x="204" y="28" type="line" smooth="yes"/>
      <point x="137" y="28"/>
      <point x="100" y="69"/>
      <point x="100" y="137" type="curve" smooth="yes"/>
      <point x="100" y="373" type="line" smooth="yes"/>
      <point x="100" y="441"/>
      <point x="137" y="482"/>
      <point x="204" y="482" type="curve" smooth="yes"/>
      <point x="379" y="482" type="line" smooth="yes"/>
      <point x="386" y="482"/>
      <point x="388" y="479"/>
      <point x="388" y="474" type="curve" smooth="yes"/>
    </contour>
  </outline>
</glyph>
<glyph name="y" format="1">
  <advance width="456"/>
  <unicode hex="0079"/>
  <outline>
    <contour>
      <point x="88" y="-147" type="line"/>
      <point x="201" y="-147"/>
      <point x="226" y="-48"/>
      <point x="255" y="36" type="curve"/>
      <point x="425" y="501" type="line" smooth="yes"/>
      <point x="427" y="508"/>
      <point x="424" y="510"/>
      <point x="419" y="510" type="curve" smooth="yes"/>
      <point x="403" y="510" type="line" smooth="yes"/>
      <point x="398" y="510"/>
      <point x="395" y="508"/>
      <point x="393" y="501" type="curve" smooth="yes"/>
      <point x="230" y="56" type="line"/>
      <point x="226" y="56" type="line"/>
      <point x="63" y="501" type="line" smooth="yes"/>
      <point x="61" y="508"/>
      <point x="58" y="510"/>
      <point x="53" y="510" type="curve" smooth="yes"/>
      <point x="37" y="510" type="line" smooth="yes"/>
      <point x="32" y="510"/>
      <point x="29" y="508"/>
      <point x="31" y="501" type="curve" smooth="yes"/>
      <point x="201" y="36" type="line" smooth="yes"/>
      <point x="203" y="30"/>
      <point x="206" y="27"/>
      <point x="212" y="27" type="curve" smooth="yes"/>
      <point x="222" y="27" type="line"/>
      <point x="196" y="-39"/>
      <point x="176" y="-119"/>
      <point x="88" y="-119" type="curve" smooth="yes"/>
      <point x="59" y="-119" type="line" smooth="yes"/>
      <point x="52" y="-119"/>
      <point x="50" y="-122"/>
      <point x="50" y="-127" type="curve" smooth="yes"/>
      <point x="50" y="-139" type="line" smooth="yes"/>
      <point x="50" y="-144"/>
      <point x="52" y="-147"/>
      <point x="59" y="-147" type="curve" smooth="yes"/>
    </contour>
  </outline>
</glyph>
<glyph name="z" format="1">
  <advance width="393"/>
  <unicode hex="007A"/>
  <outline>
    <contour>
      <point x="35" y="8" type="line"/>
      <point x="35" y="3"/>
      <point x="37" y="0"/>
      <point x="44" y="0" type="curve" smooth="yes"/>
      <point x="349" y="0" type="line" smooth="yes"/>
      <point x="356" y="0"/>
      <point x="358" y="3"/>
      <point x="358" y="8" type="curve" smooth="yes"/>
      <point x="358" y="20" type="line" smooth="yes"/>
      <point x="358" y="25"/>
      <point x="356" y="28"/>
      <point x="349" y="28" type="curve" smooth="yes"/>
      <point x="76" y="28" type="line"/>
      <point x="76" y="32" type="line"/>
      <point x="350" y="482" type="line" smooth="yes"/>
      <point x="352" y="485"/>
      <point x="352" y="488"/>
      <point x="352" y="490" type="curve" smooth="yes"/>
      <point x="352" y="502" type="line" smooth="yes"/>
      <point x="352" y="507"/>
      <point x="350" y="510"/>
      <point x="343" y="510" type="curve" smooth="yes"/>
      <point x="50" y="510" type="line" smooth="yes"/>
      <point x="43" y="510"/>
      <point x="41" y="507"/>
      <point x="41" y="502" type="curve" smooth="yes"/>
      <point x="41" y="490" type="line" smooth="yes"/>
      <point x="41" y="485"/>
      <point x="43" y="482"/>
      <point x="50" y="482" type="curve" smooth="yes"/>
      <point x="312" y="482" type="line"/>
      <point x="312" y="478" type="line"/>
      <point x="37" y="26" type="line" smooth="yes"/>
      <point x="35" y="23"/>
      <point x="35" y="21"/>
      <point x="35" y="17" type="curve" smooth="yes"/>
    </contour>
  </outline>
</glyph>
<glyph name="bar" format="1">
  <advance width="200"/>
  <unicode hex="007C"/>
  <outline>
    <contour>
      <point x="115" y="634" type="line"/>
      <point x="115" y="641"/>
      <point x="112" y="643"/>
      <point x="107" y="643" type="curve" smooth="yes"/>
      <point x="93" y="643" type="line" smooth="yes"/>
      <point x="88" y="643"/>
      <point x="85" y="641"/>
      <point x="85" y="634" type="curve" smooth="yes"/>
      <point x="85" y="9" type="line" smooth="yes"/>
      <point x="85" y="2"/>
      <point x="88" y="0"/>
      <point x="93" y="0" type="curve" smooth="yes"/>
      <point x="107" y="0" type="line" smooth="yes"/>
      <point x="112" y="0"/>
      <point x="115" y="2"/>
      <point x="115" y="9" type="curve" smooth="yes"/>
    </contour>
  </outline>
</glyph>
<glyph name="braceright" format="1">
  <advance width="293"/>
  <unicode hex="007D"/>
  <outline>
    <contour>
      <point x="157" y="507" type="line"/>
      <point x="157" y="590"/>
      <point x="124" y="643"/>
      <point x="53" y="643" type="curve" smooth="yes"/>
      <point x="49" y="643" type="line" smooth="yes"/>
      <point x="42" y="643"/>
      <point x="40" y="640"/>
      <point x="40" y="635" type="curve" smooth="yes"/>
      <point x="40" y="623" type="line" smooth="yes"/>
      <point x="40" y="618"/>
      <point x="42" y="615"/>
      <point x="49" y="615" type="curve" smooth="yes"/>
      <point x="53" y="615" type="line" smooth="yes"/>
      <point x="110" y="615"/>
      <point x="127" y="574"/>
      <point x="127" y="506" type="curve" smooth="yes"/>
      <point x="127" y="365" type="line" smooth="yes"/>
      <point x="127" y="315"/>
      <point x="146" y="281"/>
      <point x="179" y="270" type="curve"/>
      <point x="146" y="259"/>
      <point x="127" y="224"/>
      <point x="127" y="175" type="curve" smooth="yes"/>
      <point x="127" y="35" type="line" smooth="yes"/>
      <point x="127" y="-33"/>
      <point x="110" y="-74"/>
      <point x="53" y="-74" type="curve" smooth="yes"/>
      <point x="49" y="-74" type="line" smooth="yes"/>
      <point x="42" y="-74"/>
      <point x="40" y="-77"/>
      <point x="40" y="-82" type="curve" smooth="yes"/>
      <point x="40" y="-94" type="line" smooth="yes"/>
      <point x="40" y="-99"/>
      <point x="42" y="-102"/>
      <point x="49" y="-102" type="curve" smooth="yes"/>
      <point x="53" y="-102" type="line" smooth="yes"/>
      <point x="124" y="-102"/>
      <point x="157" y="-49"/>
      <point x="157" y="34" type="curve" smooth="yes"/>
      <point x="157" y="174" type="line" smooth="yes"/>
      <point x="157" y="235"/>
      <point x="181" y="256"/>
      <point x="224" y="256" type="curve" smooth="yes"/>
      <point x="231" y="256"/>
      <point x="233" y="259"/>
      <point x="233" y="264" type="curve" smooth="yes"/>
      <point x="233" y="276" type="line" smooth="yes"/>
      <point x="233" y="281"/>
      <point x="231" y="284"/>
      <point x="224" y="284" type="curve" smooth="yes"/>
      <point x="181" y="284"/>
      <point x="157" y="305"/>
      <point x="157" y="366" type="curve" smooth="yes"/>
    </contour>
  </outline>
</glyph>
<glyph name="asciitilde" format="1">
  <advance width="512"/>
  <unicode hex="007E"/>
  <outline>
    <contour>
      <point x="164" y="325" type="curve" smooth="yes"/>
      <point x="214" y="325"/>
      <point x="293" y="296"/>
      <point x="347" y="296" type="curve" smooth="yes"/>
      <point x="373" y="296"/>
      <point x="403" y="301"/>
      <point x="426" y="311" type="curve" smooth="yes"/>
      <point x="438" y="316"/>
      <point x="442" y="319"/>
      <point x="442" y="325" type="curve" smooth="yes"/>
      <point x="442" y="334" type="line" smooth="yes"/>
      <point x="442" y="340"/>
      <point x="439" y="344"/>
      <point x="434" y="344" type="curve" smooth="yes"/>
      <point x="425" y="344"/>
      <point x="390" y="324"/>
      <point x="348" y="324" type="curve" smooth="yes"/>
      <point x="297" y="324"/>
      <point x="223" y="353"/>
      <point x="165" y="353" type="curve" smooth="yes"/>
      <point x="139" y="353"/>
      <point x="109" y="348"/>
      <point x="86" y="338" type="curve" smooth="yes"/>
      <point x="74" y="333"/>
      <point x="70" y="330"/>
      <point x="70" y="324" type="curve" smooth="yes"/>
      <point x="70" y="315" type="line" smooth="yes"/>
      <point x="70" y="309"/>
      <point x="73" y="305"/>
      <point x="78" y="305" type="curve" smooth="yes"/>
      <point x="87" y="305"/>
      <point x="122" y="325"/>
    </contour>
  </outline>
</glyph>
<glyph name="exclamdown" format="1">
  <advance width="237"/>
  <unicode hex="00A1"/>
  <outline>
    <contour>
      <point x="116" y="307" type="line"/>
      <point x="111" y="307"/>
      <point x="110" y="302"/>
      <point x="109" y="296" type="curve" smooth="yes"/>
      <point x="106" y="274"/>
      <point x="100" y="89"/>
      <point x="100" y="-40" type="curve" smooth="yes"/>
      <point x="100" y="-124" type="line" smooth="yes"/>
      <point x="100" y="-131"/>
      <point x="103" y="-133"/>
      <point x="108" y="-133" type="curve" smooth="yes"/>
      <point x="129" y="-133" type="line" smooth="yes"/>
      <point x="134" y="-133"/>
      <point x="137" y="-131"/>
      <point x="137" y="-124" type="curve" smooth="yes"/>
      <point x="137" y="-40" type="line" smooth="yes"/>
      <point x="137" y="89"/>
      <point x="130" y="274"/>
      <point x="127" y="296" type="curve" smooth="yes"/>
      <point x="126" y="302"/>
      <point x="125" y="307"/>
      <point x="120" y="307" type="curve" smooth="yes"/>
    </contour>
    <contour>
      <point x="127" y="373" type="line"/>
      <point x="132" y="373"/>
      <point x="135" y="375"/>
      <point x="135" y="382" type="curve" smooth="yes"/>
      <point x="135" y="501" type="line" smooth="yes"/>
      <point x="135" y="508"/>
      <point x="132" y="510"/>
      <point x="127" y="510" type="curve" smooth="yes"/>
      <point x="110" y="510" type="line" smooth="yes"/>
      <point x="105" y="510"/>
      <point x="102" y="508"/>
      <point x="102" y="501" type="curve" smooth="yes"/>
      <point x="102" y="382" type="line" smooth="yes"/>
      <point x="102" y="375"/>
      <point x="105" y="373"/>
      <point x="110" y="373" type="curve" smooth="yes"/>
    </contour>
  </outline>
</glyph>
<glyph name="sterling" format="1">
  <advance width="520"/>
  <unicode hex="00A3"/>
  <outline>
    <contour>
      <point x="116" y="28" type="line"/>
      <point x="116" y="32" type="line"/>
      <point x="122" y="32"/>
      <point x="144" y="45"/>
      <point x="144" y="102" type="curve" smooth="yes"/>
      <point x="144" y="280" type="line"/>
      <point x="320" y="280" type="line" smooth="yes"/>
      <point x="327" y="280"/>
      <point x="329" y="283"/>
      <point x="329" y="288" type="curve" smooth="yes"/>
      <point x="329" y="300" type="line" smooth="yes"/>
      <point x="329" y="305"/>
      <point x="327" y="308"/>
      <point x="320" y="308" type="curve" smooth="yes"/>
      <point x="144" y="308" type="line"/>
      <point x="144" y="509" type="line" smooth="yes"/>
      <point x="144" y="577"/>
      <point x="181" y="615"/>
      <point x="248" y="615" type="curve" smooth="yes"/>
      <point x="313" y="615" type="line" smooth="yes"/>
      <point x="380" y="615"/>
      <point x="417" y="577"/>
      <point x="417" y="509" type="curve" smooth="yes"/>
      <point x="417" y="481" type="line" smooth="yes"/>
      <point x="417" y="474"/>
      <point x="420" y="472"/>
      <point x="425" y="472" type="curve" smooth="yes"/>
      <point x="439" y="472" type="line" smooth="yes"/>
      <point x="444" y="472"/>
      <point x="447" y="474"/>
      <point x="447" y="481" type="curve" smooth="yes"/>
      <point x="447" y="510" type="line" smooth="yes"/>
      <point x="447" y="593"/>
      <point x="394" y="643"/>
      <point x="313" y="643" type="curve" smooth="yes"/>
      <point x="248" y="643" type="line" smooth="yes"/>
      <point x="167" y="643"/>
      <point x="114" y="593"/>
      <point x="114" y="510" type="curve" smooth="yes"/>
      <point x="114" y="308" type="line"/>
      <point x="49" y="308" type="line" smooth="yes"/>
      <point x="42" y="308"/>
      <point x="40" y="305"/>
      <point x="40" y="300" type="curve" smooth="yes"/>
      <point x="40" y="288" type="line" smooth="yes"/>
      <point x="40" y="283"/>
      <point x="42" y="280"/>
      <point x="49" y="280" type="curve" smooth="yes"/>
      <point x="114" y="280" type="line"/>
      <point x="114" y="100" type="line" smooth="yes"/>
      <point x="114" y="60"/>
      <point x="87" y="28"/>
      <point x="61" y="28" type="curve" smooth="yes"/>
      <point x="49" y="28" type="line" smooth="yes"/>
      <point x="42" y="28"/>
      <point x="40" y="25"/>
      <point x="40" y="20" type="curve" smooth="yes"/>
      <point x="40" y="8" type="line" smooth="yes"/>
      <point x="40" y="3"/>
      <point x="42" y="0"/>
      <point x="49" y="0" type="curve" smooth="yes"/>
      <point x="441" y="0" type="line" smooth="yes"/>
      <point x="448" y="0"/>
      <point x="450" y="3"/>
      <point x="450" y="8" type="curve" smooth="yes"/>
      <point x="450" y="20" type="line" smooth="yes"/>
      <point x="450" y="25"/>
      <point x="448" y="28"/>
      <point x="441" y="28" type="curve" smooth="yes"/>
    </contour>
  </outline>
</glyph>
<glyph name="yen" format="1">
  <advance width="487"/>
  <unicode hex="00A5"/>
  <outline>
    <contour>
      <point x="250" y="0" type="line"/>
      <point x="255" y="0"/>
      <point x="258" y="2"/>
      <point x="258" y="9" type="curve" smooth="yes"/>
      <point x="258" y="175" type="line"/>
      <point x="444" y="175" type="line" smooth="yes"/>
      <point x="451" y="175"/>
      <point x="453" y="178"/>
      <point x="453" y="183" type="curve" smooth="yes"/>
      <point x="453" y="195" type="line" smooth="yes"/>
      <point x="453" y="200"/>
      <point x="451" y="203"/>
      <point x="444" y="203" type="curve" smooth="yes"/>
      <point x="258" y="203" type="line"/>
      <point x="258" y="245" type="line"/>
      <point x="294" y="315" type="line"/>
      <point x="444" y="315" type="line" smooth="yes"/>
      <point x="451" y="315"/>
      <point x="453" y="318"/>
      <point x="453" y="323" type="curve" smooth="yes"/>
      <point x="453" y="335" type="line" smooth="yes"/>
      <point x="453" y="340"/>
      <point x="451" y="343"/>
      <point x="444" y="343" type="curve" smooth="yes"/>
      <point x="308" y="343" type="line"/>
      <point x="455" y="634" type="line" smooth="yes"/>
      <point x="459" y="641"/>
      <point x="455" y="643"/>
      <point x="450" y="643" type="curve" smooth="yes"/>
      <point x="431" y="643" type="line" smooth="yes"/>
      <point x="426" y="643"/>
      <point x="423" y="641"/>
      <point x="420" y="634" type="curve" smooth="yes"/>
      <point x="245" y="284" type="line"/>
      <point x="241" y="284" type="line"/>
      <point x="66" y="634" type="line" smooth="yes"/>
      <point x="63" y="641"/>
      <point x="60" y="643"/>
      <point x="55" y="643" type="curve" smooth="yes"/>
      <point x="36" y="643" type="line" smooth="yes"/>
      <point x="31" y="643"/>
      <point x="28" y="641"/>
      <point x="31" y="634" type="curve" smooth="yes"/>
      <point x="179" y="343" type="line"/>
      <point x="42" y="343" type="line" smooth="yes"/>
      <point x="35" y="343"/>
      <point x="33" y="340"/>
      <point x="33" y="335" type="curve" smooth="yes"/>
      <point x="33" y="323" type="line" smooth="yes"/>
      <point x="33" y="318"/>
      <point x="35" y="315"/>
      <point x="42" y="315" type="curve" smooth="yes"/>
      <point x="193" y="315" type="line"/>
      <point x="228" y="245" type="line"/>
      <point x="228" y="203" type="line"/>
      <point x="42" y="203" type="line" smooth="yes"/>
      <point x="35" y="203"/>
      <point x="33" y="200"/>
      <point x="33" y="195" type="curve" smooth="yes"/>
      <point x="33" y="183" type="line" smooth="yes"/>
      <point x="33" y="178"/>
      <point x="35" y="175"/>
      <point x="42" y="175" type="curve" smooth="yes"/>
      <point x="228" y="175" type="line"/>
      <point x="228" y="9" type="line" smooth="yes"/>
      <point x="228" y="2"/>
      <point x="231" y="0"/>
      <point x="236" y="0" type="curve" smooth="yes"/>
    </contour>
  </outline>
</glyph>
<glyph name="brokenbar" format="1">
  <advance width="193"/>
  <unicode hex="00A6"/>
  <outline>
    <contour>
      <point x="113" y="258" type="line"/>
      <point x="113" y="265"/>
      <point x="110" y="267"/>
      <point x="105" y="267" type="curve" smooth="yes"/>
      <point x="88" y="267" type="line" smooth="yes"/>
      <point x="83" y="267"/>
      <point x="80" y="265"/>
      <point x="80" y="258" type="curve" smooth="yes"/>
      <point x="80" y="9" type="line" smooth="yes"/>
      <point x="80" y="2"/>
      <point x="83" y="0"/>
      <point x="88" y="0" type="curve" smooth="yes"/>
      <point x="105" y="0" type="line" smooth="yes"/>
      <point x="110" y="0"/>
      <point x="113" y="2"/>
      <point x="113" y="9" type="curve" smooth="yes"/>
    </contour>
    <contour>
      <point x="113" y="634" type="line"/>
      <point x="113" y="641"/>
      <point x="110" y="643"/>
      <point x="105" y="643" type="curve" smooth="yes"/>
      <point x="88" y="643" type="line" smooth="yes"/>
      <point x="83" y="643"/>
      <point x="80" y="641"/>
      <point x="80" y="634" type="curve" smooth="yes"/>
      <point x="80" y="385" type="line" smooth="yes"/>
      <point x="80" y="378"/>
      <point x="83" y="376"/>
      <point x="88" y="376" type="curve" smooth="yes"/>
      <point x="105" y="376" type="line" smooth="yes"/>
      <point x="110" y="376"/>
      <point x="113" y="378"/>
      <point x="113" y="385" type="curve" smooth="yes"/>
    </contour>
  </outline>
</glyph>
<glyph name="section" format="1">
  <advance width="444"/>
  <unicode hex="00A7"/>
  <outline>
    <contour>
      <point x="354" y="303" type="line"/>
      <point x="354" y="358"/>
      <point x="324" y="377"/>
      <point x="274" y="386" type="curve" smooth="yes"/>
      <point x="163" y="405" type="line"/>
      <point x="135" y="411"/>
      <point x="109" y="421"/>
      <point x="90" y="440" type="curve"/>
      <point x="90" y="348" type="line" smooth="yes"/>
      <point x="90" y="303"/>
      <point x="111" y="269"/>
      <point x="168" y="259" type="curve" smooth="yes"/>
      <point x="279" y="240" type="line" smooth="yes"/>
      <point x="310" y="235"/>
      <point x="336" y="225"/>
      <point x="354" y="209" type="curve"/>
    </contour>
    <contour>
      <point x="73" y="0" type="line"/>
      <point x="66" y="0"/>
      <point x="64" y="3"/>
      <point x="64" y="8" type="curve" smooth="yes"/>
      <point x="64" y="20" type="line" smooth="yes"/>
      <point x="64" y="25"/>
      <point x="66" y="28"/>
      <point x="73" y="28" type="curve" smooth="yes"/>
      <point x="253" y="28" type="line" smooth="yes"/>
      <point x="341" y="28"/>
      <point x="354" y="77"/>
      <point x="354" y="131" type="curve" smooth="yes"/>
      <point x="354" y="185"/>
      <point x="324" y="204"/>
      <point x="274" y="213" type="curve" smooth="yes"/>
      <point x="163" y="232" type="line"/>
      <point x="107" y="243"/>
      <point x="60" y="275"/>
      <point x="60" y="348" type="curve" smooth="yes"/>
      <point x="60" y="521" type="line" smooth="yes"/>
      <point x="60" y="583"/>
      <point x="83" y="643"/>
      <point x="181" y="643" type="curve" smooth="yes"/>
      <point x="342" y="643" type="line" smooth="yes"/>
      <point x="349" y="643"/>
      <point x="351" y="640"/>
      <point x="351" y="635" type="curve" smooth="yes"/>
      <point x="351" y="623" type="line" smooth="yes"/>
      <point x="351" y="618"/>
      <point x="349" y="615"/>
      <point x="342" y="615" type="curve" smooth="yes"/>
      <point x="181" y="615" type="line" smooth="yes"/>
      <point x="124" y="615"/>
      <point x="90" y="582"/>
      <point x="90" y="520" type="curve" smooth="yes"/>
      <point x="90" y="470"/>
      <point x="106" y="443"/>
      <point x="168" y="432" type="curve" smooth="yes"/>
      <point x="279" y="413" type="line" smooth="yes"/>
      <point x="341" y="402"/>
      <point x="384" y="375"/>
      <point x="384" y="303" type="curve" smooth="yes"/>
      <point x="384" y="133" type="line" smooth="yes"/>
      <point x="384" y="61"/>
      <point x="361" y="0"/>
      <point x="253" y="0" type="curve" smooth="yes"/>
    </contour>
  </outline>
</glyph>
<glyph name="dieresis" format="1">
  <advance width="326"/>
  <unicode hex="00A8"/>
  <outline>
    <contour>
      <point x="226" y="583" type="line"/>
      <point x="226" y="576"/>
      <point x="229" y="574"/>
      <point x="234" y="574" type="curve" smooth="yes"/>
      <point x="248" y="574" type="line" smooth="yes"/>
      <point x="253" y="574"/>
      <point x="256" y="576"/>
      <point x="256" y="583" type="curve" smooth="yes"/>
      <point x="256" y="694" type="line" smooth="yes"/>
      <point x="256" y="701"/>
      <point x="253" y="703"/>
      <point x="248" y="703" type="curve" smooth="yes"/>
      <point x="234" y="703" type="line" smooth="yes"/>
      <point x="229" y="703"/>
      <point x="226" y="701"/>
      <point x="226" y="694" type="curve" smooth="yes"/>
    </contour>
    <contour>
      <point x="70" y="583" type="line"/>
      <point x="70" y="576"/>
      <point x="73" y="574"/>
      <point x="78" y="574" type="curve" smooth="yes"/>
      <point x="92" y="574" type="line" smooth="yes"/>
      <point x="97" y="574"/>
      <point x="100" y="576"/>
      <point x="100" y="583" type="curve" smooth="yes"/>
      <point x="100" y="694" type="line" smooth="yes"/>
      <point x="100" y="701"/>
      <point x="97" y="703"/>
      <point x="92" y="703" type="curve" smooth="yes"/>
      <point x="78" y="703" type="line" smooth="yes"/>
      <point x="73" y="703"/>
      <point x="70" y="701"/>
      <point x="70" y="694" type="curve" smooth="yes"/>
    </contour>
  </outline>
</glyph>
<glyph name="copyright" format="1">
  <advance width="728"/>
  <unicode hex="00A9"/>
  <outline>
    <contour>
      <point x="209" y="643" type="line"/>
      <point x="128" y="643"/>
      <point x="75" y="590"/>
      <point x="75" y="507" type="curve" smooth="yes"/>
      <point x="75" y="136" type="line" smooth="yes"/>
      <point x="75" y="53"/>
      <point x="128" y="0"/>
      <point x="209" y="0" type="curve" smooth="yes"/>
      <point x="519" y="0" type="line" smooth="yes"/>
      <point x="600" y="0"/>
      <point x="653" y="53"/>
      <point x="653" y="136" type="curve" smooth="yes"/>
      <point x="653" y="507" type="line" smooth="yes"/>
      <point x="653" y="590"/>
      <point x="600" y="643"/>
      <point x="519" y="643" type="curve" smooth="yes"/>
    </contour>
    <contour>
      <point x="209" y="28" type="line"/>
      <point x="142" y="28"/>
      <point x="105" y="69"/>
      <point x="105" y="137" type="curve" smooth="yes"/>
      <point x="105" y="506" type="line" smooth="yes"/>
      <point x="105" y="574"/>
      <point x="142" y="615"/>
      <point x="209" y="615" type="curve" smooth="yes"/>
      <point x="519" y="615" type="line" smooth="yes"/>
      <point x="586" y="615"/>
      <point x="623" y="574"/>
      <point x="623" y="506" type="curve" smooth="yes"/>
      <point x="623" y="137" type="line" smooth="yes"/>
      <point x="623" y="69"/>
      <point x="586" y="28"/>
      <point x="519" y="28" type="curve" smooth="yes"/>
    </contour>
    <contour>
      <point x="495" y="402" type="line"/>
      <point x="495" y="485"/>
      <point x="452" y="518"/>
      <point x="371" y="518" type="curve" smooth="yes"/>
      <point x="350" y="518" type="line" smooth="yes"/>
      <point x="269" y="518"/>
      <point x="226" y="485"/>
      <point x="226" y="402" type="curve" smooth="yes"/>
      <point x="226" y="234" type="line" smooth="yes"/>
      <point x="226" y="151"/>
      <point x="269" y="118"/>
      <point x="350" y="118" type="curve" smooth="yes"/>
      <point x="371" y="118" type="line" smooth="yes"/>
      <point x="452" y="118"/>
      <point x="495" y="151"/>
      <point x="495" y="234" type="curve" smooth="yes"/>
      <point x="495" y="258" type="line" smooth="yes"/>
      <point x="495" y="265"/>
      <point x="492" y="267"/>
      <point x="487" y="267" type="curve" smooth="yes"/>
      <point x="473" y="267" type="line" smooth="yes"/>
      <point x="468" y="267"/>
      <point x="465" y="265"/>
      <point x="465" y="258" type="curve" smooth="yes"/>
      <point x="465" y="235" type="line" smooth="yes"/>
      <point x="465" y="167"/>
      <point x="438" y="146"/>
      <point x="371" y="146" type="curve" smooth="yes"/>
      <point x="350" y="146" type="line" smooth="yes"/>
      <point x="283" y="146"/>
      <point x="256" y="167"/>
      <point x="256" y="235" type="curve" smooth="yes"/>
      <point x="256" y="401" type="line" smooth="yes"/>
      <point x="256" y="469"/>
      <point x="283" y="490"/>
      <point x="350" y="490" type="curve" smooth="yes"/>
      <point x="371" y="490" type="line" smooth="yes"/>
      <point x="438" y="490"/>
      <point x="465" y="469"/>
      <point x="465" y="401" type="curve" smooth="yes"/>
      <point x="465" y="384" type="line" smooth="yes"/>
      <point x="465" y="377"/>
      <point x="468" y="375"/>
      <point x="473" y="375" type="curve" smooth="yes"/>
      <point x="487" y="375" type="line" smooth="yes"/>
      <point x="492" y="375"/>
      <point x="495" y="377"/>
      <point x="495" y="384" type="curve" smooth="yes"/>
    </contour>
  </outline>
</glyph>
<glyph name="logicalnot" format="1">
  <advance width="502"/>
  <unicode hex="00AC"/>
  <outline>
    <contour>
      <point x="432" y="316" type="line"/>
      <point x="432" y="323"/>
      <point x="429" y="325"/>
      <point x="424" y="325" type="curve" smooth="yes"/>
      <point x="410" y="325" type="line" smooth="yes"/>
      <point x="405" y="325"/>
      <point x="402" y="323"/>
      <point x="402" y="316" type="curve" smooth="yes"/>
      <point x="402" y="166" type="line" smooth="yes"/>
      <point x="402" y="159"/>
      <point x="405" y="157"/>
      <point x="410" y="157" type="curve" smooth="yes"/>
      <point x="424" y="157" type="line" smooth="yes"/>
      <point x="429" y="157"/>
      <point x="432" y="159"/>
      <point x="432" y="166" type="curve" smooth="yes"/>
    </contour>
    <contour>
      <point x="79" y="335" type="line"/>
      <point x="72" y="335"/>
      <point x="70" y="332"/>
      <point x="70" y="327" type="curve" smooth="yes"/>
      <point x="70" y="315" type="line" smooth="yes"/>
      <point x="70" y="310"/>
      <point x="72" y="307"/>
      <point x="79" y="307" type="curve" smooth="yes"/>
      <point x="423" y="307" type="line" smooth="yes"/>
      <point x="430" y="307"/>
      <point x="432" y="310"/>
      <point x="432" y="315" type="curve" smooth="yes"/>
      <point x="432" y="327" type="line" smooth="yes"/>
      <point x="432" y="332"/>
      <point x="430" y="335"/>
      <point x="423" y="335" type="curve" smooth="yes"/>
    </contour>
  </outline>
</glyph>
<glyph name="registered" format="1">
  <advance width="430"/>
  <unicode hex="00AE"/>
  <outline>
    <contour>
      <point x="254" y="409" type="line"/>
      <point x="318" y="409"/>
      <point x="360" y="451"/>
      <point x="360" y="516" type="curve" smooth="yes"/>
      <point x="360" y="596" type="line" smooth="yes"/>
      <point x="360" y="661"/>
      <point x="318" y="703"/>
      <point x="254" y="703" type="curve" smooth="yes"/>
      <point x="175" y="703" type="line" smooth="yes"/>
      <point x="111" y="703"/>
      <point x="70" y="661"/>
      <point x="70" y="596" type="curve" smooth="yes"/>
      <point x="70" y="516" type="line" smooth="yes"/>
      <point x="70" y="451"/>
      <point x="111" y="409"/>
      <point x="175" y="409" type="curve" smooth="yes"/>
    </contour>
    <contour>
      <point x="175" y="431" type="line"/>
      <point x="123" y="431"/>
      <point x="93" y="464"/>
      <point x="93" y="517" type="curve" smooth="yes"/>
      <point x="93" y="595" type="line" smooth="yes"/>
      <point x="93" y="648"/>
      <point x="123" y="681"/>
      <point x="175" y="681" type="curve" smooth="yes"/>
      <point x="254" y="681" type="line" smooth="yes"/>
      <point x="307" y="681"/>
      <point x="336" y="648"/>
      <point x="336" y="595" type="curve" smooth="yes"/>
      <point x="336" y="517" type="line" smooth="yes"/>
      <point x="336" y="464"/>
      <point x="307" y="431"/>
      <point x="254" y="431" type="curve" smooth="yes"/>
    </contour>
    <contour>
      <point x="163" y="477" type="line"/>
      <point x="163" y="470"/>
      <point x="166" y="468"/>
      <point x="171" y="468" type="curve" smooth="yes"/>
      <point x="178" y="468" type="line" smooth="yes"/>
      <point x="183" y="468"/>
      <point x="186" y="470"/>
      <point x="186" y="477" type="curve" smooth="yes"/>
      <point x="186" y="535" type="line"/>
      <point x="228" y="535" type="line"/>
      <point x="256" y="474" type="line" smooth="yes"/>
      <point x="258" y="469"/>
      <point x="260" y="468"/>
      <point x="265" y="468" type="curve" smooth="yes"/>
      <point x="275" y="468" type="line" smooth="yes"/>
      <point x="280" y="468"/>
      <point x="281" y="471"/>
      <point x="278" y="477" type="curve" smooth="yes"/>
      <point x="250" y="537" type="line"/>
      <point x="267" y="543"/>
      <point x="276" y="557"/>
      <point x="276" y="579" type="curve" smooth="yes"/>
      <point x="276" y="602" type="line" smooth="yes"/>
      <point x="276" y="629"/>
      <point x="260" y="646"/>
      <point x="233" y="646" type="curve" smooth="yes"/>
      <point x="171" y="646" type="line" smooth="yes"/>
      <point x="166" y="646"/>
      <point x="163" y="644"/>
      <point x="163" y="637" type="curve" smooth="yes"/>
    </contour>
    <contour>
      <point x="233" y="625" type="line"/>
      <point x="246" y="625"/>
      <point x="253" y="617"/>
      <point x="253" y="605" type="curve" smooth="yes"/>
      <point x="253" y="577" type="line" smooth="yes"/>
      <point x="253" y="565"/>
      <point x="246" y="556"/>
      <point x="233" y="556" type="curve" smooth="yes"/>
      <point x="186" y="556" type="line"/>
      <point x="186" y="625" type="line"/>
    </contour>
  </outline>
</glyph>
<glyph name="degree" format="1">
  <advance width="276"/>
  <unicode hex="00B0"/>
  <outline>
    <contour>
      <point x="144" y="536" type="curve"/>
      <point x="132" y="536" type="line"/>
      <point x="104" y="536"/>
      <point x="98" y="544"/>
      <point x="98" y="571" type="curve" smooth="yes"/>
      <point x="98" y="643" type="line" smooth="yes"/>
      <point x="98" y="670"/>
      <point x="104" y="678"/>
      <point x="132" y="678" type="curve" smooth="yes"/>
      <point x="144" y="678" type="line"/>
      <point x="172" y="678"/>
      <point x="178" y="670"/>
      <point x="178" y="643" type="curve" smooth="yes"/>
      <point x="178" y="571" type="line" smooth="yes"/>
      <point x="178" y="544"/>
      <point x="172" y="536"/>
    </contour>
    <contour>
      <point x="156" y="511" type="line"/>
      <point x="186" y="511"/>
      <point x="206" y="529"/>
      <point x="206" y="560" type="curve" smooth="yes"/>
      <point x="206" y="657" type="line" smooth="yes"/>
      <point x="206" y="687"/>
      <point x="186" y="704"/>
      <point x="156" y="704" type="curve" smooth="yes"/>
      <point x="119" y="704" type="line" smooth="yes"/>
      <point x="88" y="704"/>
      <point x="70" y="687"/>
      <point x="70" y="657" type="curve" smooth="yes"/>
      <point x="70" y="560" type="line" smooth="yes"/>
      <point x="70" y="529"/>
      <point x="88" y="511"/>
      <point x="119" y="511" type="curve" smooth="yes"/>
    </contour>
  </outline>
</glyph>
<glyph name="acute" format="1">
  <advance width="261"/>
  <unicode hex="00B4"/>
  <outline>
    <contour>
      <point x="155" y="703" type="line"/>
      <point x="148" y="703"/>
      <point x="143" y="700"/>
      <point x="140" y="694" type="curve" smooth="yes"/>
      <point x="72" y="583" type="line" smooth="yes"/>
      <point x="69" y="578"/>
      <point x="70" y="574"/>
      <point x="75" y="574" type="curve" smooth="yes"/>
      <point x="83" y="574" type="line" smooth="yes"/>
      <point x="88" y="574"/>
      <point x="93" y="577"/>
      <point x="97" y="582" type="curve" smooth="yes"/>
      <point x="189" y="694" type="line" smooth="yes"/>
      <point x="193" y="699"/>
      <point x="190" y="703"/>
      <point x="185" y="703" type="curve" smooth="yes"/>
    </contour>
  </outline>
</glyph>
<glyph name="mu.math" format="1">
  <advance width="518"/>
  <unicode hex="00B5"/>
  <outline>
    <contour>
      <point x="115" y="44" type="line"/>
      <point x="159" y="-9"/>
      <point x="224" y="0"/>
      <point x="293" y="0" type="curve" smooth="yes"/>
      <point x="356" y="0"/>
      <point x="385" y="26"/>
      <point x="399" y="52" type="curve"/>
      <point x="403" y="52" type="line"/>
      <point x="403" y="9" type="line" smooth="yes"/>
      <point x="403" y="2"/>
      <point x="406" y="0"/>
      <point x="411" y="0" type="curve" smooth="yes"/>
      <point x="425" y="0" type="line" smooth="yes"/>
      <point x="430" y="0"/>
      <point x="433" y="2"/>
      <point x="433" y="9" type="curve" smooth="yes"/>
      <point x="433" y="501" type="line" smooth="yes"/>
      <point x="433" y="508"/>
      <point x="430" y="510"/>
      <point x="425" y="510" type="curve" smooth="yes"/>
      <point x="411" y="510" type="line" smooth="yes"/>
      <point x="406" y="510"/>
      <point x="403" y="508"/>
      <point x="403" y="501" type="curve" smooth="yes"/>
      <point x="403" y="132" type="line" smooth="yes"/>
      <point x="403" y="63"/>
      <point x="356" y="28"/>
      <point x="291" y="28" type="curve" smooth="yes"/>
      <point x="219" y="28" type="line" smooth="yes"/>
      <point x="152" y="28"/>
      <point x="115" y="69"/>
      <point x="115" y="137" type="curve" smooth="yes"/>
      <point x="115" y="501" type="line" smooth="yes"/>
      <point x="115" y="508"/>
      <point x="112" y="510"/>
      <point x="107" y="510" type="curve" smooth="yes"/>
      <point x="93" y="510" type="line" smooth="yes"/>
      <point x="88" y="510"/>
      <point x="85" y="508"/>
      <point x="85" y="501" type="curve" smooth="yes"/>
      <point x="85" y="-124" type="line" smooth="yes"/>
      <point x="85" y="-131"/>
      <point x="88" y="-133"/>
      <point x="93" y="-133" type="curve" smooth="yes"/>
      <point x="107" y="-133" type="line" smooth="yes"/>
      <point x="112" y="-133"/>
      <point x="115" y="-131"/>
      <point x="115" y="-124" type="curve" smooth="yes"/>
    </contour>
  </outline>
</glyph>
<glyph name="paragraph" format="1">
  <advance width="504"/>
  <unicode hex="00B6"/>
  <outline>
    <contour>
      <point x="192" y="0" type="line"/>
      <point x="197" y="0"/>
      <point x="200" y="2"/>
      <point x="200" y="9" type="curve" smooth="yes"/>
      <point x="200" y="605" type="line" smooth="yes"/>
      <point x="200" y="610"/>
      <point x="203" y="613"/>
      <point x="209" y="613" type="curve" smooth="yes"/>
      <point x="375" y="613" type="line" smooth="yes"/>
      <point x="382" y="613"/>
      <point x="384" y="610"/>
      <point x="384" y="605" type="curve" smooth="yes"/>
      <point x="384" y="9" type="line" smooth="yes"/>
      <point x="384" y="2"/>
      <point x="387" y="0"/>
      <point x="392" y="0" type="curve" smooth="yes"/>
      <point x="406" y="0" type="line" smooth="yes"/>
      <point x="411" y="0"/>
      <point x="414" y="2"/>
      <point x="414" y="9" type="curve" smooth="yes"/>
      <point x="414" y="635" type="line" smooth="yes"/>
      <point x="414" y="640"/>
      <point x="412" y="643"/>
      <point x="405" y="643" type="curve" smooth="yes"/>
      <point x="174" y="643" type="line" smooth="yes"/>
      <point x="93" y="643"/>
      <point x="50" y="610"/>
      <point x="50" y="527" type="curve" smooth="yes"/>
      <point x="50" y="439" type="line" smooth="yes"/>
      <point x="50" y="357"/>
      <point x="92" y="324"/>
      <point x="170" y="323" type="curve"/>
      <point x="170" y="9" type="line" smooth="yes"/>
      <point x="170" y="2"/>
      <point x="173" y="0"/>
      <point x="178" y="0" type="curve" smooth="yes"/>
    </contour>
  </outline>
</glyph>
<glyph name="periodcentered" format="1">
  <advance width="207"/>
  <unicode hex="00B7"/>
  <outline>
    <contour>
      <point x="122" y="378" type="line"/>
      <point x="122" y="385"/>
      <point x="119" y="387"/>
      <point x="114" y="387" type="curve" smooth="yes"/>
      <point x="93" y="387" type="line" smooth="yes"/>
      <point x="88" y="387"/>
      <point x="85" y="385"/>
      <point x="85" y="378" type="curve" smooth="yes"/>
      <point x="85" y="259" type="line" smooth="yes"/>
      <point x="85" y="252"/>
      <point x="88" y="250"/>
      <point x="93" y="250" type="curve" smooth="yes"/>
      <point x="114" y="250" type="line" smooth="yes"/>
      <point x="119" y="250"/>
      <point x="122" y="252"/>
      <point x="122" y="259" type="curve" smooth="yes"/>
    </contour>
  </outline>
</glyph>
<glyph name="ordmasculine" format="1">
  <advance width="331"/>
  <unicode hex="00BA"/>
  <outline>
    <contour>
      <point x="159" y="347" type="line"/>
      <point x="92" y="347"/>
      <point x="65" y="388"/>
      <point x="65" y="456" type="curve" smooth="yes"/>
      <point x="65" y="506" type="line" smooth="yes"/>
      <point x="65" y="574"/>
      <point x="92" y="615"/>
      <point x="159" y="615" type="curve" smooth="yes"/>
      <point x="166" y="615" type="line" smooth="yes"/>
      <point x="233" y="615"/>
      <point x="260" y="574"/>
      <point x="260" y="506" type="curve" smooth="yes"/>
      <point x="260" y="456" type="line" smooth="yes"/>
      <point x="260" y="388"/>
      <point x="233" y="347"/>
      <point x="166" y="347" type="curve" smooth="yes"/>
    </contour>
    <contour>
      <point x="166" y="319" type="line"/>
      <point x="247" y="319"/>
      <point x="290" y="372"/>
      <point x="290" y="455" type="curve" smooth="yes"/>
      <point x="290" y="507" type="line" smooth="yes"/>
      <point x="290" y="590"/>
      <point x="247" y="643"/>
      <point x="166" y="643" type="curve" smooth="yes"/>
      <point x="159" y="643" type="line" smooth="yes"/>
      <point x="78" y="643"/>
      <point x="35" y="590"/>
      <point x="35" y="507" type="curve" smooth="yes"/>
      <point x="35" y="455" type="line" smooth="yes"/>
      <point x="35" y="372"/>
      <point x="78" y="319"/>
      <point x="159" y="319" type="curve" smooth="yes"/>
    </contour>
  </outline>
</glyph>
<glyph name="onequarter" format="1">
  <advance width="706"/>
  <unicode hex="00BC"/>
  <outline>
    <contour>
      <point x="566" y="629" type="line"/>
      <point x="571" y="635"/>
      <point x="571" y="643"/>
      <point x="564" y="643" type="curve" smooth="yes"/>
      <point x="547" y="643" type="line" smooth="yes"/>
      <point x="540" y="643"/>
      <point x="536" y="640"/>
      <point x="530" y="632" type="curve"/>
      <point x="73" y="12" type="line"/>
      <point x="67" y="4"/>
      <point x="70" y="0"/>
      <point x="76" y="0" type="curve" smooth="yes"/>
      <point x="92" y="0" type="line" smooth="yes"/>
      <point x="100" y="0"/>
      <point x="104" y="3"/>
      <point x="110" y="11" type="curve" smooth="yes"/>
    </contour>
    <contour>
      <point x="569" y="0" type="line"/>
      <point x="574" y="0"/>
      <point x="577" y="2"/>
      <point x="577" y="9" type="curve" smooth="yes"/>
      <point x="577" y="75" type="line"/>
      <point x="623" y="75" type="line" smooth="yes"/>
      <point x="630" y="75"/>
      <point x="632" y="78"/>
      <point x="632" y="83" type="curve" smooth="yes"/>
      <point x="632" y="95" type="line" smooth="yes"/>
      <point x="632" y="100"/>
      <point x="630" y="103"/>
      <point x="623" y="103" type="curve" smooth="yes"/>
      <point x="577" y="103" type="line"/>
      <point x="577" y="334" type="line" smooth="yes"/>
      <point x="577" y="341"/>
      <point x="574" y="343"/>
      <point x="569" y="343" type="curve" smooth="yes"/>
      <point x="540" y="343" type="line" smooth="yes"/>
      <point x="530" y="343"/>
      <point x="525" y="339"/>
      <point x="521" y="332" type="curve" smooth="yes"/>
      <point x="392" y="111" type="line" smooth="yes"/>
      <point x="388" y="105"/>
      <point x="386" y="102"/>
      <point x="386" y="95" type="curve" smooth="yes"/>
      <point x="386" y="83" type="line" smooth="yes"/>
      <point x="386" y="78"/>
      <point x="388" y="75"/>
      <point x="395" y="75" type="curve" smooth="yes"/>
      <point x="547" y="75" type="line"/>
      <point x="547" y="9" type="line" smooth="yes"/>
      <point x="547" y="2"/>
      <point x="550" y="0"/>
      <point x="555" y="0" type="curve" smooth="yes"/>
    </contour>
    <contour>
      <point x="547" y="321" type="line"/>
      <point x="547" y="103" type="line"/>
      <point x="420" y="103" type="line"/>
    </contour>
    <component base="onesuperior"/>
  </outline>
</glyph>
<glyph name="onehalf" format="1">
  <advance width="731"/>
  <unicode hex="00BD"/>
  <outline>
    <contour>
      <point x="566" y="629" type="line"/>
      <point x="571" y="635"/>
      <point x="571" y="643"/>
      <point x="564" y="643" type="curve" smooth="yes"/>
      <point x="547" y="643" type="line" smooth="yes"/>
      <point x="540" y="643"/>
      <point x="536" y="640"/>
      <point x="530" y="632" type="curve"/>
      <point x="73" y="12" type="line"/>
      <point x="67" y="4"/>
      <point x="70" y="0"/>
      <point x="76" y="0" type="curve" smooth="yes"/>
      <point x="92" y="0" type="line" smooth="yes"/>
      <point x="100" y="0"/>
      <point x="104" y="3"/>
      <point x="110" y="11" type="curve" smooth="yes"/>
    </contour>
    <component base="twosuperior" xOffset="384" yOffset="-300"/>
    <component base="onesuperior"/>
  </outline>
</glyph>
<glyph name="questiondown" format="1">
  <advance width="475"/>
  <unicode hex="00BF"/>
  <outline>
    <contour>
      <point x="212" y="259" type="line"/>
      <point x="212" y="218"/>
      <point x="211" y="201"/>
      <point x="168" y="165" type="curve" smooth="yes"/>
      <point x="128" y="131" type="line" smooth="yes"/>
      <point x="97" y="105"/>
      <point x="80" y="79"/>
      <point x="80" y="36" type="curve" smooth="yes"/>
      <point x="80" y="1" type="line" smooth="yes"/>
      <point x="80" y="-82"/>
      <point x="133" y="-132"/>
      <point x="214" y="-132" type="curve" smooth="yes"/>
      <point x="261" y="-132" type="line" smooth="yes"/>
      <point x="342" y="-132"/>
      <point x="395" y="-82"/>
      <point x="395" y="1" type="curve" smooth="yes"/>
      <point x="395" y="49" type="line" smooth="yes"/>
      <point x="395" y="56"/>
      <point x="392" y="58"/>
      <point x="387" y="58" type="curve" smooth="yes"/>
      <point x="373" y="58" type="line" smooth="yes"/>
      <point x="368" y="58"/>
      <point x="365" y="56"/>
      <point x="365" y="49" type="curve" smooth="yes"/>
      <point x="365" y="2" type="line" smooth="yes"/>
      <point x="365" y="-66"/>
      <point x="328" y="-104"/>
      <point x="261" y="-104" type="curve" smooth="yes"/>
      <point x="214" y="-104" type="line" smooth="yes"/>
      <point x="147" y="-104"/>
      <point x="110" y="-66"/>
      <point x="110" y="2" type="curve" smooth="yes"/>
      <point x="110" y="35" type="line" smooth="yes"/>
      <point x="110" y="68"/>
      <point x="123" y="90"/>
      <point x="151" y="114" type="curve" smooth="yes"/>
      <point x="182" y="142" type="line" smooth="yes"/>
      <point x="230" y="184"/>
      <point x="242" y="204"/>
      <point x="242" y="263" type="curve" smooth="yes"/>
      <point x="242" y="298" type="line" smooth="yes"/>
      <point x="242" y="305"/>
      <point x="239" y="307"/>
      <point x="234" y="307" type="curve" smooth="yes"/>
      <point x="220" y="307" type="line" smooth="yes"/>
      <point x="215" y="307"/>
      <point x="212" y="305"/>
      <point x="212" y="298" type="curve" smooth="yes"/>
    </contour>
    <contour>
      <point x="209" y="382" type="line"/>
      <point x="209" y="375"/>
      <point x="212" y="373"/>
      <point x="217" y="373" type="curve" smooth="yes"/>
      <point x="238" y="373" type="line" smooth="yes"/>
      <point x="243" y="373"/>
      <point x="246" y="375"/>
      <point x="246" y="382" type="curve" smooth="yes"/>
      <point x="246" y="501" type="line" smooth="yes"/>
      <point x="246" y="508"/>
      <point x="243" y="510"/>
      <point x="238" y="510" type="curve" smooth="yes"/>
      <point x="217" y="510" type="line" smooth="yes"/>
      <point x="212" y="510"/>
      <point x="209" y="508"/>
      <point x="209" y="501" type="curve" smooth="yes"/>
    </contour>
  </outline>
</glyph>
<glyph name="AE" format="1">
  <advance width="771"/>
  <unicode hex="00C6"/>
  <outline>
    <contour>
      <point x="376" y="607" type="line"/>
      <point x="380" y="607" type="line"/>
      <point x="380" y="213" type="line"/>
      <point x="152" y="213" type="line"/>
    </contour>
    <contour>
      <point x="24" y="0" type="line"/>
      <point x="29" y="0"/>
      <point x="32" y="2"/>
      <point x="36" y="9" type="curve" smooth="yes"/>
      <point x="135" y="183" type="line"/>
      <point x="380" y="183" type="line"/>
      <point x="380" y="9" type="line" smooth="yes"/>
      <point x="380" y="2"/>
      <point x="383" y="0"/>
      <point x="388" y="0" type="curve" smooth="yes"/>
      <point x="692" y="0" type="line" smooth="yes"/>
      <point x="699" y="0"/>
      <point x="701" y="3"/>
      <point x="701" y="8" type="curve" smooth="yes"/>
      <point x="701" y="20" type="line" smooth="yes"/>
      <point x="701" y="25"/>
      <point x="699" y="28"/>
      <point x="692" y="28" type="curve" smooth="yes"/>
      <point x="419" y="28" type="line" smooth="yes"/>
      <point x="412" y="28"/>
      <point x="410" y="31"/>
      <point x="410" y="36" type="curve" smooth="yes"/>
      <point x="410" y="306" type="line" smooth="yes"/>
      <point x="410" y="311"/>
      <point x="412" y="314"/>
      <point x="419" y="314" type="curve" smooth="yes"/>
      <point x="666" y="314" type="line" smooth="yes"/>
      <point x="673" y="314"/>
      <point x="675" y="317"/>
      <point x="675" y="322" type="curve" smooth="yes"/>
      <point x="675" y="334" type="line" smooth="yes"/>
      <point x="675" y="339"/>
      <point x="673" y="342"/>
      <point x="666" y="342" type="curve" smooth="yes"/>
      <point x="419" y="342" type="line" smooth="yes"/>
      <point x="412" y="342"/>
      <point x="410" y="345"/>
      <point x="410" y="350" type="curve" smooth="yes"/>
      <point x="410" y="607" type="line" smooth="yes"/>
      <point x="410" y="612"/>
      <point x="412" y="615"/>
      <point x="419" y="615" type="curve" smooth="yes"/>
      <point x="692" y="615" type="line" smooth="yes"/>
      <point x="699" y="615"/>
      <point x="701" y="618"/>
      <point x="701" y="623" type="curve" smooth="yes"/>
      <point x="701" y="635" type="line" smooth="yes"/>
      <point x="701" y="640"/>
      <point x="699" y="643"/>
      <point x="692" y="643" type="curve" smooth="yes"/>
      <point x="370" y="643" type="line" smooth="yes"/>
      <point x="364" y="643"/>
      <point x="360" y="641"/>
      <point x="356" y="634" type="curve" smooth="yes"/>
      <point x="1" y="9" type="line" smooth="yes"/>
      <point x="-2" y="3"/>
      <point x="0" y="0"/>
      <point x="5" y="0" type="curve" smooth="yes"/>
    </contour>
  </outline>
</glyph>
<glyph name="Egrave" format="1">
  <advance width="481"/>
  <unicode hex="00C8"/>
  <outline>
    <contour>
      <point x="402" y="0" type="line"/>
      <point x="409" y="0"/>
      <point x="411" y="3"/>
      <point x="411" y="8" type="curve" smooth="yes"/>
      <point x="411" y="20" type="line" smooth="yes"/>
      <point x="411" y="25"/>
      <point x="409" y="28"/>
      <point x="402" y="28" type="curve" smooth="yes"/>
      <point x="129" y="28" type="line" smooth="yes"/>
      <point x="122" y="28"/>
      <point x="120" y="31"/>
      <point x="120" y="36" type="curve" smooth="yes"/>
      <point x="120" y="306" type="line" smooth="yes"/>
      <point x="120" y="311"/>
      <point x="122" y="314"/>
      <point x="129" y="314" type="curve" smooth="yes"/>
      <point x="376" y="314" type="line" smooth="yes"/>
      <point x="383" y="314"/>
      <point x="385" y="317"/>
      <point x="385" y="322" type="curve" smooth="yes"/>
      <point x="385" y="334" type="line" smooth="yes"/>
      <point x="385" y="339"/>
      <point x="383" y="342"/>
      <point x="376" y="342" type="curve" smooth="yes"/>
      <point x="129" y="342" type="line" smooth="yes"/>
      <point x="122" y="342"/>
      <point x="120" y="345"/>
      <point x="120" y="350" type="curve" smooth="yes"/>
      <point x="120" y="607" type="line" smooth="yes"/>
      <point x="120" y="612"/>
      <point x="122" y="615"/>
      <point x="129" y="615" type="curve" smooth="yes"/>
      <point x="402" y="615" type="line" smooth="yes"/>
      <point x="409" y="615"/>
      <point x="411" y="618"/>
      <point x="411" y="623" type="curve" smooth="yes"/>
      <point x="411" y="635" type="line" smooth="yes"/>
      <point x="411" y="640"/>
      <point x="409" y="643"/>
      <point x="402" y="643" type="curve" smooth="yes"/>
      <point x="98" y="643" type="line" smooth="yes"/>
      <point x="93" y="643"/>
      <point x="90" y="641"/>
      <point x="90" y="634" type="curve" smooth="yes"/>
      <point x="90" y="9" type="line" smooth="yes"/>
      <point x="90" y="2"/>
      <point x="93" y="0"/>
      <point x="98" y="0" type="curve" smooth="yes"/>
    </contour>
    <contour>
      <point x="203" y="827" type="line"/>
      <point x="200" y="833"/>
      <point x="195" y="836"/>
      <point x="188" y="836" type="curve" smooth="yes"/>
      <point x="158" y="836" type="line" smooth="yes"/>
      <point x="153" y="836"/>
      <point x="150" y="832"/>
      <point x="154" y="827" type="curve" smooth="yes"/>
      <point x="246" y="715" type="line" smooth="yes"/>
      <point x="250" y="710"/>
      <point x="255" y="707"/>
      <point x="260" y="707" type="curve" smooth="yes"/>
      <point x="268" y="707" type="line" smooth="yes"/>
      <point x="273" y="707"/>
      <point x="274" y="711"/>
      <point x="271" y="716" type="curve" smooth="yes"/>
    </contour>
  </outline>
</glyph>
<glyph name="Icircumflex" format="1">
  <advance width="220"/>
  <unicode hex="00CE"/>
  <outline>
    <contour>
      <point x="125" y="634" type="line"/>
      <point x="125" y="641"/>
      <point x="122" y="643"/>
      <point x="117" y="643" type="curve" smooth="yes"/>
      <point x="103" y="643" type="line" smooth="yes"/>
      <point x="98" y="643"/>
      <point x="95" y="641"/>
      <point x="95" y="634" type="curve" smooth="yes"/>
      <point x="95" y="9" type="line" smooth="yes"/>
      <point x="95" y="2"/>
      <point x="98" y="0"/>
      <point x="103" y="0" type="curve" smooth="yes"/>
      <point x="117" y="0" type="line" smooth="yes"/>
      <point x="122" y="0"/>
      <point x="125" y="2"/>
      <point x="125" y="9" type="curve" smooth="yes"/>
    </contour>
    <contour>
      <point x="134" y="827" type="line"/>
      <point x="129" y="834"/>
      <point x="124" y="836"/>
      <point x="115" y="836" type="curve" smooth="yes"/>
      <point x="105" y="836" type="line"/>
      <point x="96" y="836"/>
      <point x="91" y="834"/>
      <point x="86" y="827" type="curve"/>
      <point x="22" y="718" type="line" smooth="yes"/>
      <point x="18" y="712"/>
      <point x="19" y="707"/>
      <point x="26" y="707" type="curve" smooth="yes"/>
      <point x="40" y="707" type="line" smooth="yes"/>
      <point x="46" y="707"/>
      <point x="49" y="708"/>
      <point x="51" y="712" type="curve" smooth="yes"/>
      <point x="110" y="817" type="line"/>
      <point x="169" y="712" type="line" smooth="yes"/>
      <point x="171" y="708"/>
      <point x="174" y="707"/>
      <point x="180" y="707" type="curve" smooth="yes"/>
      <point x="194" y="707" type="line" smooth="yes"/>
      <point x="201" y="707"/>
      <point x="202" y="712"/>
      <point x="198" y="718" type="curve" smooth="yes"/>
    </contour>
  </outline>
</glyph>
<glyph name="Idieresis" format="1">
  <advance width="220"/>
  <unicode hex="00CF"/>
  <outline>
    <contour>
      <point x="125" y="634" type="line"/>
      <point x="125" y="641"/>
      <point x="122" y="643"/>
      <point x="117" y="643" type="curve" smooth="yes"/>
      <point x="103" y="643" type="line" smooth="yes"/>
      <point x="98" y="643"/>
      <point x="95" y="641"/>
      <point x="95" y="634" type="curve" smooth="yes"/>
      <point x="95" y="9" type="line" smooth="yes"/>
      <point x="95" y="2"/>
      <point x="98" y="0"/>
      <point x="103" y="0" type="curve" smooth="yes"/>
      <point x="117" y="0" type="line" smooth="yes"/>
      <point x="122" y="0"/>
      <point x="125" y="2"/>
      <point x="125" y="9" type="curve" smooth="yes"/>
    </contour>
    <contour>
      <point x="173" y="716" type="line"/>
      <point x="173" y="709"/>
      <point x="176" y="707"/>
      <point x="181" y="707" type="curve" smooth="yes"/>
      <point x="195" y="707" type="line" smooth="yes"/>
      <point x="200" y="707"/>
      <point x="203" y="709"/>
      <point x="203" y="716" type="curve" smooth="yes"/>
      <point x="203" y="827" type="line" smooth="yes"/>
      <point x="203" y="834"/>
      <point x="200" y="836"/>
      <point x="195" y="836" type="curve" smooth="yes"/>
      <point x="181" y="836" type="line" smooth="yes"/>
      <point x="176" y="836"/>
      <point x="173" y="834"/>
      <point x="173" y="827" type="curve" smooth="yes"/>
    </contour>
    <contour>
      <point x="17" y="716" type="line"/>
      <point x="17" y="709"/>
      <point x="20" y="707"/>
      <point x="25" y="707" type="curve" smooth="yes"/>
      <point x="39" y="707" type="line" smooth="yes"/>
      <point x="44" y="707"/>
      <point x="47" y="709"/>
      <point x="47" y="716" type="curve" smooth="yes"/>
      <point x="47" y="827" type="line" smooth="yes"/>
      <point x="47" y="834"/>
      <point x="44" y="836"/>
      <point x="39" y="836" type="curve" smooth="yes"/>
      <point x="25" y="836" type="line" smooth="yes"/>
      <point x="20" y="836"/>
      <point x="17" y="834"/>
      <point x="17" y="827" type="curve" smooth="yes"/>
    </contour>
  </outline>
</glyph>
<glyph name="Ograve" format="1">
  <advance width="553"/>
  <unicode hex="00D2"/>
  <outline>
    <contour>
      <point x="339" y="0" type="line"/>
      <point x="420" y="0"/>
      <point x="473" y="53"/>
      <point x="473" y="136" type="curve" smooth="yes"/>
      <point x="473" y="507" type="line" smooth="yes"/>
      <point x="473" y="590"/>
      <point x="420" y="643"/>
      <point x="339" y="643" type="curve" smooth="yes"/>
      <point x="214" y="643" type="line" smooth="yes"/>
      <point x="133" y="643"/>
      <point x="80" y="590"/>
      <point x="80" y="507" type="curve" smooth="yes"/>
      <point x="80" y="136" type="line" smooth="yes"/>
      <point x="80" y="53"/>
      <point x="133" y="0"/>
      <point x="214" y="0" type="curve" smooth="yes"/>
    </contour>
    <contour>
      <point x="214" y="28" type="line"/>
      <point x="147" y="28"/>
      <point x="110" y="69"/>
      <point x="110" y="137" type="curve" smooth="yes"/>
      <point x="110" y="506" type="line" smooth="yes"/>
      <point x="110" y="574"/>
      <point x="147" y="615"/>
      <point x="214" y="615" type="curve" smooth="yes"/>
      <point x="339" y="615" type="line" smooth="yes"/>
      <point x="406" y="615"/>
      <point x="443" y="574"/>
      <point x="443" y="506" type="curve" smooth="yes"/>
      <point x="443" y="137" type="line" smooth="yes"/>
      <point x="443" y="69"/>
      <point x="406" y="28"/>
      <point x="339" y="28" type="curve" smooth="yes"/>
    </contour>
    <contour>
      <point x="221" y="827" type="line"/>
      <point x="218" y="833"/>
      <point x="213" y="836"/>
      <point x="206" y="836" type="curve" smooth="yes"/>
      <point x="176" y="836" type="line" smooth="yes"/>
      <point x="171" y="836"/>
      <point x="168" y="832"/>
      <point x="172" y="827" type="curve" smooth="yes"/>
      <point x="264" y="715" type="line" smooth="yes"/>
      <point x="268" y="710"/>
      <point x="273" y="707"/>
      <point x="278" y="707" type="curve" smooth="yes"/>
      <point x="286" y="707" type="line" smooth="yes"/>
      <point x="291" y="707"/>
      <point x="292" y="711"/>
      <point x="289" y="716" type="curve" smooth="yes"/>
    </contour>
  </outline>
</glyph>
<glyph name="Ocircumflex" format="1">
  <advance width="553"/>
  <unicode hex="00D4"/>
  <outline>
    <contour>
      <point x="339" y="0" type="line"/>
      <point x="420" y="0"/>
      <point x="473" y="53"/>
      <point x="473" y="136" type="curve" smooth="yes"/>
      <point x="473" y="507" type="line" smooth="yes"/>
      <point x="473" y="590"/>
      <point x="420" y="643"/>
      <point x="339" y="643" type="curve" smooth="yes"/>
      <point x="214" y="643" type="line" smooth="yes"/>
      <point x="133" y="643"/>
      <point x="80" y="590"/>
      <point x="80" y="507" type="curve" smooth="yes"/>
      <point x="80" y="136" type="line" smooth="yes"/>
      <point x="80" y="53"/>
      <point x="133" y="0"/>
      <point x="214" y="0" type="curve" smooth="yes"/>
    </contour>
    <contour>
      <point x="214" y="28" type="line"/>
      <point x="147" y="28"/>
      <point x="110" y="69"/>
      <point x="110" y="137" type="curve" smooth="yes"/>
      <point x="110" y="506" type="line" smooth="yes"/>
      <point x="110" y="574"/>
      <point x="147" y="615"/>
      <point x="214" y="615" type="curve" smooth="yes"/>
      <point x="339" y="615" type="line" smooth="yes"/>
      <point x="406" y="615"/>
      <point x="443" y="574"/>
      <point x="443" y="506" type="curve" smooth="yes"/>
      <point x="443" y="137" type="line" smooth="yes"/>
      <point x="443" y="69"/>
      <point x="406" y="28"/>
      <point x="339" y="28" type="curve" smooth="yes"/>
    </contour>
    <contour>
      <point x="300" y="827" type="line"/>
      <point x="295" y="834"/>
      <point x="290" y="836"/>
      <point x="281" y="836" type="curve" smooth="yes"/>
      <point x="271" y="836" type="line"/>
      <point x="262" y="836"/>
      <point x="257" y="834"/>
      <point x="252" y="827" type="curve"/>
      <point x="188" y="718" type="line" smooth="yes"/>
      <point x="184" y="712"/>
      <point x="185" y="707"/>
      <point x="192" y="707" type="curve" smooth="yes"/>
      <point x="206" y="707" type="line" smooth="yes"/>
      <point x="212" y="707"/>
      <point x="215" y="708"/>
      <point x="217" y="712" type="curve" smooth="yes"/>
      <point x="276" y="817" type="line"/>
      <point x="335" y="712" type="line" smooth="yes"/>
      <point x="337" y="708"/>
      <point x="340" y="707"/>
      <point x="346" y="707" type="curve" smooth="yes"/>
      <point x="360" y="707" type="line" smooth="yes"/>
      <point x="367" y="707"/>
      <point x="368" y="712"/>
      <point x="364" y="718" type="curve" smooth="yes"/>
    </contour>
  </outline>
</glyph>
<glyph name="multiply" format="1">
  <advance width="485"/>
  <unicode hex="00D7"/>
  <outline>
    <contour>
      <point x="125" y="460" type="line"/>
      <point x="120" y="465"/>
      <point x="116" y="464"/>
      <point x="113" y="460" type="curve" smooth="yes"/>
      <point x="103" y="450" type="line" smooth="yes"/>
      <point x="99" y="447"/>
      <point x="98" y="443"/>
      <point x="103" y="438" type="curve" smooth="yes"/>
      <point x="359" y="182" type="line" smooth="yes"/>
      <point x="364" y="177"/>
      <point x="368" y="178"/>
      <point x="371" y="182" type="curve" smooth="yes"/>
      <point x="381" y="192" type="line" smooth="yes"/>
      <point x="385" y="195"/>
      <point x="386" y="199"/>
      <point x="381" y="204" type="curve" smooth="yes"/>
    </contour>
    <contour>
      <point x="103" y="204" type="line"/>
      <point x="98" y="199"/>
      <point x="99" y="195"/>
      <point x="103" y="192" type="curve" smooth="yes"/>
      <point x="113" y="182" type="line" smooth="yes"/>
      <point x="116" y="178"/>
      <point x="120" y="177"/>
      <point x="125" y="182" type="curve" smooth="yes"/>
      <point x="381" y="438" type="line" smooth="yes"/>
      <point x="386" y="443"/>
      <point x="385" y="447"/>
      <point x="381" y="450" type="curve" smooth="yes"/>
      <point x="371" y="460" type="line" smooth="yes"/>
      <point x="368" y="464"/>
      <point x="364" y="465"/>
      <point x="359" y="460" type="curve" smooth="yes"/>
    </contour>
  </outline>
</glyph>
<glyph name="Uacute" format="1">
  <advance width="550"/>
  <unicode hex="00DA"/>
  <outline>
    <contour>
      <point x="443" y="643" type="line"/>
      <point x="438" y="643"/>
      <point x="435" y="640"/>
      <point x="435" y="634" type="curve" smooth="yes"/>
      <point x="435" y="137" type="line" smooth="yes"/>
      <point x="435" y="69"/>
      <point x="398" y="28"/>
      <point x="331" y="28" type="curve" smooth="yes"/>
      <point x="219" y="28" type="line" smooth="yes"/>
      <point x="152" y="28"/>
      <point x="115" y="69"/>
      <point x="115" y="137" type="curve" smooth="yes"/>
      <point x="115" y="634" type="line" smooth="yes"/>
      <point x="115" y="641"/>
      <point x="112" y="643"/>
      <point x="107" y="643" type="curve" smooth="yes"/>
      <point x="93" y="643" type="line" smooth="yes"/>
      <point x="88" y="643"/>
      <point x="85" y="641"/>
      <point x="85" y="634" type="curve" smooth="yes"/>
      <point x="85" y="136" type="line" smooth="yes"/>
      <point x="85" y="53"/>
      <point x="138" y="0"/>
      <point x="219" y="0" type="curve" smooth="yes"/>
      <point x="331" y="0" type="line" smooth="yes"/>
      <point x="412" y="0"/>
      <point x="465" y="53"/>
      <point x="465" y="136" type="curve" smooth="yes"/>
      <point x="465" y="635" type="line" smooth="yes"/>
      <point x="465" y="640"/>
      <point x="462" y="643"/>
      <point x="457" y="643" type="curve" smooth="yes"/>
    </contour>
    <contour>
      <point x="343" y="836" type="line"/>
      <point x="336" y="836"/>
      <point x="331" y="833"/>
      <point x="328" y="827" type="curve" smooth="yes"/>
      <point x="260" y="716" type="line" smooth="yes"/>
      <point x="257" y="711"/>
      <point x="258" y="707"/>
      <point x="263" y="707" type="curve" smooth="yes"/>
      <point x="271" y="707" type="line" smooth="yes"/>
      <point x="276" y="707"/>
      <point x="281" y="710"/>
      <point x="285" y="715" type="curve" smooth="yes"/>
      <point x="377" y="827" type="line" smooth="yes"/>
      <point x="381" y="832"/>
      <point x="378" y="836"/>
      <point x="373" y="836" type="curve" smooth="yes"/>
    </contour>
  </outline>
</glyph>
<glyph name="Ucircumflex" format="1">
  <advance width="550"/>
  <unicode hex="00DB"/>
  <outline>
    <contour>
      <point x="443" y="643" type="line"/>
      <point x="438" y="643"/>
      <point x="435" y="640"/>
      <point x="435" y="634" type="curve" smooth="yes"/>
      <point x="435" y="137" type="line" smooth="yes"/>
      <point x="435" y="69"/>
      <point x="398" y="28"/>
      <point x="331" y="28" type="curve" smooth="yes"/>
      <point x="219" y="28" type="line" smooth="yes"/>
      <point x="152" y="28"/>
      <point x="115" y="69"/>
      <point x="115" y="137" type="curve" smooth="yes"/>
      <point x="115" y="634" type="line" smooth="yes"/>
      <point x="115" y="641"/>
      <point x="112" y="643"/>
      <point x="107" y="643" type="curve" smooth="yes"/>
      <point x="93" y="643" type="line" smooth="yes"/>
      <point x="88" y="643"/>
      <point x="85" y="641"/>
      <point x="85" y="634" type="curve" smooth="yes"/>
      <point x="85" y="136" type="line" smooth="yes"/>
      <point x="85" y="53"/>
      <point x="138" y="0"/>
      <point x="219" y="0" type="curve" smooth="yes"/>
      <point x="331" y="0" type="line" smooth="yes"/>
      <point x="412" y="0"/>
      <point x="465" y="53"/>
      <point x="465" y="136" type="curve" smooth="yes"/>
      <point x="465" y="635" type="line" smooth="yes"/>
      <point x="465" y="640"/>
      <point x="462" y="643"/>
      <point x="457" y="643" type="curve" smooth="yes"/>
    </contour>
    <contour>
      <point x="299" y="827" type="line"/>
      <point x="294" y="834"/>
      <point x="289" y="836"/>
      <point x="280" y="836" type="curve" smooth="yes"/>
      <point x="270" y="836" type="line"/>
      <point x="261" y="836"/>
      <point x="256" y="834"/>
      <point x="251" y="827" type="curve"/>
      <point x="187" y="718" type="line" smooth="yes"/>
      <point x="183" y="712"/>
      <point x="184" y="707"/>
      <point x="191" y="707" type="curve" smooth="yes"/>
      <point x="205" y="707" type="line" smooth="yes"/>
      <point x="211" y="707"/>
      <point x="214" y="708"/>
      <point x="216" y="712" type="curve" smooth="yes"/>
      <point x="275" y="817" type="line"/>
      <point x="334" y="712" type="line" smooth="yes"/>
      <point x="336" y="708"/>
      <point x="339" y="707"/>
      <point x="345" y="707" type="curve" smooth="yes"/>
      <point x="359" y="707" type="line" smooth="yes"/>
      <point x="366" y="707"/>
      <point x="367" y="712"/>
      <point x="363" y="718" type="curve" smooth="yes"/>
    </contour>
  </outline>
</glyph>
<glyph name="Udieresis" format="1">
  <advance width="550"/>
  <unicode hex="00DC"/>
  <outline>
    <contour>
      <point x="443" y="643" type="line"/>
      <point x="438" y="643"/>
      <point x="435" y="640"/>
      <point x="435" y="634" type="curve" smooth="yes"/>
      <point x="435" y="137" type="line" smooth="yes"/>
      <point x="435" y="69"/>
      <point x="398" y="28"/>
      <point x="331" y="28" type="curve" smooth="yes"/>
      <point x="219" y="28" type="line" smooth="yes"/>
      <point x="152" y="28"/>
      <point x="115" y="69"/>
      <point x="115" y="137" type="curve" smooth="yes"/>
      <point x="115" y="634" type="line" smooth="yes"/>
      <point x="115" y="641"/>
      <point x="112" y="643"/>
      <point x="107" y="643" type="curve" smooth="yes"/>
      <point x="93" y="643" type="line" smooth="yes"/>
      <point x="88" y="643"/>
      <point x="85" y="641"/>
      <point x="85" y="634" type="curve" smooth="yes"/>
      <point x="85" y="136" type="line" smooth="yes"/>
      <point x="85" y="53"/>
      <point x="138" y="0"/>
      <point x="219" y="0" type="curve" smooth="yes"/>
      <point x="331" y="0" type="line" smooth="yes"/>
      <point x="412" y="0"/>
      <point x="465" y="53"/>
      <point x="465" y="136" type="curve" smooth="yes"/>
      <point x="465" y="635" type="line" smooth="yes"/>
      <point x="465" y="640"/>
      <point x="462" y="643"/>
      <point x="457" y="643" type="curve" smooth="yes"/>
    </contour>
    <contour>
      <point x="338" y="716" type="line"/>
      <point x="338" y="709"/>
      <point x="341" y="707"/>
      <point x="346" y="707" type="curve" smooth="yes"/>
      <point x="360" y="707" type="line" smooth="yes"/>
      <point x="365" y="707"/>
      <point x="368" y="709"/>
      <point x="368" y="716" type="curve" smooth="yes"/>
      <point x="368" y="827" type="line" smooth="yes"/>
      <point x="368" y="834"/>
      <point x="365" y="836"/>
      <point x="360" y="836" type="curve" smooth="yes"/>
      <point x="346" y="836" type="line" smooth="yes"/>
      <point x="341" y="836"/>
      <point x="338" y="834"/>
      <point x="338" y="827" type="curve" smooth="yes"/>
    </contour>
    <contour>
      <point x="182" y="716" type="line"/>
      <point x="182" y="709"/>
      <point x="185" y="707"/>
      <point x="190" y="707" type="curve" smooth="yes"/>
      <point x="204" y="707" type="line" smooth="yes"/>
      <point x="209" y="707"/>
      <point x="212" y="709"/>
      <point x="212" y="716" type="curve" smooth="yes"/>
      <point x="212" y="827" type="line" smooth="yes"/>
      <point x="212" y="834"/>
      <point x="209" y="836"/>
      <point x="204" y="836" type="curve" smooth="yes"/>
      <point x="190" y="836" type="line" smooth="yes"/>
      <point x="185" y="836"/>
      <point x="182" y="834"/>
      <point x="182" y="827" type="curve" smooth="yes"/>
    </contour>
  </outline>
</glyph>
<glyph name="Thorn" format="1">
  <advance width="500"/>
  <unicode hex="00DE"/>
  <outline>
    <contour>
      <point x="147" y="0" type="line"/>
      <point x="152" y="0"/>
      <point x="155" y="2"/>
      <point x="155" y="9" type="curve" smooth="yes"/>
      <point x="155" y="125" type="line" smooth="yes"/>
      <point x="155" y="130"/>
      <point x="157" y="133"/>
      <point x="164" y="133" type="curve" smooth="yes"/>
      <point x="288" y="133" type="line" smooth="yes"/>
      <point x="369" y="133"/>
      <point x="422" y="186"/>
      <point x="422" y="269" type="curve" smooth="yes"/>
      <point x="422" y="374" type="line" smooth="yes"/>
      <point x="422" y="457"/>
      <point x="369" y="510"/>
      <point x="288" y="510" type="curve" smooth="yes"/>
      <point x="164" y="510" type="line" smooth="yes"/>
      <point x="157" y="510"/>
      <point x="155" y="513"/>
      <point x="155" y="518" type="curve" smooth="yes"/>
      <point x="155" y="634" type="line" smooth="yes"/>
      <point x="155" y="641"/>
      <point x="152" y="643"/>
      <point x="147" y="643" type="curve" smooth="yes"/>
      <point x="133" y="643" type="line" smooth="yes"/>
      <point x="128" y="643"/>
      <point x="125" y="641"/>
      <point x="125" y="634" type="curve" smooth="yes"/>
      <point x="125" y="9" type="line" smooth="yes"/>
      <point x="125" y="2"/>
      <point x="128" y="0"/>
      <point x="133" y="0" type="curve" smooth="yes"/>
    </contour>
    <contour>
      <point x="164" y="161" type="line"/>
      <point x="157" y="161"/>
      <point x="155" y="164"/>
      <point x="155" y="169" type="curve" smooth="yes"/>
      <point x="155" y="474" type="line" smooth="yes"/>
      <point x="155" y="479"/>
      <point x="157" y="482"/>
      <point x="164" y="482" type="curve" smooth="yes"/>
      <point x="288" y="482" type="line" smooth="yes"/>
      <point x="355" y="482"/>
      <point x="392" y="441"/>
      <point x="392" y="373" type="curve" smooth="yes"/>
      <point x="392" y="270" type="line" smooth="yes"/>
      <point x="392" y="202"/>
      <point x="355" y="161"/>
      <point x="288" y="161" type="curve" smooth="yes"/>
    </contour>
  </outline>
</glyph>
<glyph name="germandbls" format="1">
  <advance width="539"/>
  <unicode hex="00DF"/>
  <outline>
    <contour>
      <point x="248" y="340" type="line"/>
      <point x="241" y="340"/>
      <point x="239" y="337"/>
      <point x="239" y="332" type="curve" smooth="yes"/>
      <point x="239" y="319" type="line" smooth="yes"/>
      <point x="239" y="314"/>
      <point x="241" y="312"/>
      <point x="248" y="312" type="curve" smooth="yes"/>
      <point x="312" y="312" type="line" smooth="yes"/>
      <point x="379" y="312"/>
      <point x="434" y="271"/>
      <point x="434" y="203" type="curve" smooth="yes"/>
      <point x="434" y="137" type="line" smooth="yes"/>
      <point x="434" y="69"/>
      <point x="397" y="28"/>
      <point x="330" y="28" type="curve" smooth="yes"/>
      <point x="296" y="28"/>
      <point x="261" y="28"/>
      <point x="227" y="28" type="curve" smooth="yes"/>
      <point x="220" y="28"/>
      <point x="218" y="25"/>
      <point x="218" y="20" type="curve" smooth="yes"/>
      <point x="218" y="8" type="line" smooth="yes"/>
      <point x="218" y="3"/>
      <point x="220" y="0"/>
      <point x="227" y="0" type="curve" smooth="yes"/>
      <point x="261" y="0"/>
      <point x="296" y="0"/>
      <point x="330" y="0" type="curve" smooth="yes"/>
      <point x="411" y="0"/>
      <point x="464" y="53"/>
      <point x="464" y="136" type="curve" smooth="yes"/>
      <point x="464" y="204" type="line" smooth="yes"/>
      <point x="464" y="262"/>
      <point x="427" y="311"/>
      <point x="377" y="326" type="curve"/>
      <point x="420" y="347"/>
      <point x="454" y="390"/>
      <point x="454" y="448" type="curve" smooth="yes"/>
      <point x="454" y="507" type="line" smooth="yes"/>
      <point x="454" y="590"/>
      <point x="401" y="643"/>
      <point x="320" y="643" type="curve" smooth="yes"/>
      <point x="286" y="643"/>
      <point x="253" y="643"/>
      <point x="219" y="643" type="curve" smooth="yes"/>
      <point x="138" y="643"/>
      <point x="85" y="590"/>
      <point x="85" y="507" type="curve" smooth="yes"/>
      <point x="85" y="9" type="line" smooth="yes"/>
      <point x="85" y="2"/>
      <point x="88" y="0"/>
      <point x="93" y="0" type="curve" smooth="yes"/>
      <point x="107" y="0" type="line" smooth="yes"/>
      <point x="112" y="0"/>
      <point x="115" y="2"/>
      <point x="115" y="9" type="curve" smooth="yes"/>
      <point x="115" y="506" type="line" smooth="yes"/>
      <point x="115" y="574"/>
      <point x="152" y="615"/>
      <point x="219" y="615" type="curve" smooth="yes"/>
      <point x="253" y="615"/>
      <point x="286" y="615"/>
      <point x="320" y="615" type="curve" smooth="yes"/>
      <point x="387" y="615"/>
      <point x="424" y="574"/>
      <point x="424" y="506" type="curve" smooth="yes"/>
      <point x="424" y="449" type="line" smooth="yes"/>
      <point x="424" y="381"/>
      <point x="379" y="340"/>
      <point x="312" y="340" type="curve" smooth="yes"/>
    </contour>
  </outline>
</glyph>
<glyph name="aacute" format="1">
  <advance width="498"/>
  <unicode hex="00E1"/>
  <outline>
    <contour>
      <point x="388" y="132" type="line"/>
      <point x="388" y="63"/>
      <point x="341" y="28"/>
      <point x="276" y="28" type="curve" smooth="yes"/>
      <point x="204" y="28" type="line" smooth="yes"/>
      <point x="137" y="28"/>
      <point x="100" y="69"/>
      <point x="100" y="137" type="curve" smooth="yes"/>
      <point x="100" y="373" type="line" smooth="yes"/>
      <point x="100" y="441"/>
      <point x="137" y="482"/>
      <point x="204" y="482" type="curve" smooth="yes"/>
      <point x="379" y="482" type="line" smooth="yes"/>
      <point x="386" y="482"/>
      <point x="388" y="479"/>
      <point x="388" y="474" type="curve" smooth="yes"/>
    </contour>
    <contour>
      <point x="278" y="0" type="line"/>
      <point x="341" y="0"/>
      <point x="370" y="26"/>
      <point x="384" y="52" type="curve"/>
      <point x="388" y="52" type="line"/>
      <point x="388" y="9" type="line" smooth="yes"/>
      <point x="388" y="2"/>
      <point x="391" y="0"/>
      <point x="396" y="0" type="curve" smooth="yes"/>
      <point x="410" y="0" type="line" smooth="yes"/>
      <point x="415" y="0"/>
      <point x="418" y="2"/>
      <point x="418" y="9" type="curve" smooth="yes"/>
      <point x="418" y="501" type="line" smooth="yes"/>
      <point x="418" y="508"/>
      <point x="415" y="510"/>
      <point x="410" y="510" type="curve" smooth="yes"/>
      <point x="204" y="510" type="line" smooth="yes"/>
      <point x="123" y="510"/>
      <point x="70" y="457"/>
      <point x="70" y="374" type="curve" smooth="yes"/>
      <point x="70" y="136" type="line" smooth="yes"/>
      <point x="70" y="53"/>
      <point x="123" y="0"/>
      <point x="204" y="0" type="curve" smooth="yes"/>
    </contour>
    <contour>
      <point x="328" y="703" type="line"/>
      <point x="321" y="703"/>
      <point x="316" y="700"/>
      <point x="313" y="694" type="curve" smooth="yes"/>
      <point x="245" y="583" type="line" smooth="yes"/>
      <point x="242" y="578"/>
      <point x="243" y="574"/>
      <point x="248" y="574" type="curve" smooth="yes"/>
      <point x="256" y="574" type="line" smooth="yes"/>
      <point x="261" y="574"/>
      <point x="266" y="577"/>
      <point x="270" y="582" type="curve" smooth="yes"/>
      <point x="362" y="694" type="line" smooth="yes"/>
      <point x="366" y="699"/>
      <point x="363" y="703"/>
      <point x="358" y="703" type="curve" smooth="yes"/>
    </contour>
  </outline>
</glyph>
<glyph name="acircumflex" format="1">
  <advance width="498"/>
  <unicode hex="00E2"/>
  <outline>
    <contour>
      <point x="388" y="132" type="line"/>
      <point x="388" y="63"/>
      <point x="341" y="28"/>
      <point x="276" y="28" type="curve" smooth="yes"/>
      <point x="204" y="28" type="line" smooth="yes"/>
      <point x="137" y="28"/>
      <point x="100" y="69"/>
      <point x="100" y="137" type="curve" smooth="yes"/>
      <point x="100" y="373" type="line" smooth="yes"/>
      <point x="100" y="441"/>
      <point x="137" y="482"/>
      <point x="204" y="482" type="curve" smooth="yes"/>
      <point x="379" y="482" type="line" smooth="yes"/>
      <point x="386" y="482"/>
      <point x="388" y="479"/>
      <point x="388" y="474" type="curve" smooth="yes"/>
    </contour>
    <contour>
      <point x="278" y="0" type="line"/>
      <point x="341" y="0"/>
      <point x="370" y="26"/>
      <point x="384" y="52" type="curve"/>
      <point x="388" y="52" type="line"/>
      <point x="388" y="9" type="line" smooth="yes"/>
      <point x="388" y="2"/>
      <point x="391" y="0"/>
      <point x="396" y="0" type="curve" smooth="yes"/>
      <point x="410" y="0" type="line" smooth="yes"/>
      <point x="415" y="0"/>
      <point x="418" y="2"/>
      <point x="418" y="9" type="curve" smooth="yes"/>
      <point x="418" y="501" type="line" smooth="yes"/>
      <point x="418" y="508"/>
      <point x="415" y="510"/>
      <point x="410" y="510" type="curve" smooth="yes"/>
      <point x="204" y="510" type="line" smooth="yes"/>
      <point x="123" y="510"/>
      <point x="70" y="457"/>
      <point x="70" y="374" type="curve" smooth="yes"/>
      <point x="70" y="136" type="line" smooth="yes"/>
      <point x="70" y="53"/>
      <point x="123" y="0"/>
      <point x="204" y="0" type="curve" smooth="yes"/>
    </contour>
    <contour>
      <point x="285" y="694" type="line"/>
      <point x="280" y="701"/>
      <point x="275" y="703"/>
      <point x="266" y="703" type="curve" smooth="yes"/>
      <point x="256" y="703" type="line"/>
      <point x="247" y="703"/>
      <point x="242" y="701"/>
      <point x="237" y="694" type="curve"/>
      <point x="173" y="585" type="line" smooth="yes"/>
      <point x="169" y="579"/>
      <point x="170" y="574"/>
      <point x="177" y="574" type="curve" smooth="yes"/>
      <point x="191" y="574" type="line" smooth="yes"/>
      <point x="197" y="574"/>
      <point x="200" y="575"/>
      <point x="202" y="579" type="curve" smooth="yes"/>
      <point x="261" y="684" type="line"/>
      <point x="320" y="579" type="line" smooth="yes"/>
      <point x="322" y="575"/>
      <point x="325" y="574"/>
      <point x="331" y="574" type="curve" smooth="yes"/>
      <point x="345" y="574" type="line" smooth="yes"/>
      <point x="352" y="574"/>
      <point x="353" y="579"/>
      <point x="349" y="585" type="curve" smooth="yes"/>
    </contour>
  </outline>
</glyph>
<glyph name="atilde" format="1">
  <advance width="500"/>
  <unicode hex="00E3"/>
  <outline>
    <contour>
      <point x="388" y="132" type="line"/>
      <point x="388" y="63"/>
      <point x="341" y="28"/>
      <point x="276" y="28" type="curve" smooth="yes"/>
      <point x="204" y="28" type="line" smooth="yes"/>
      <point x="137" y="28"/>
      <point x="100" y="69"/>
      <point x="100" y="137" type="curve" smooth="yes"/>
      <point x="100" y="373" type="line" smooth="yes"/>
      <point x="100" y="441"/>
      <point x="137" y="482"/>
      <point x="204" y="482" type="curve" smooth="yes"/>
      <point x="379" y="482" type="line" smooth="yes"/>
      <point x="386" y="482"/>
      <point x="388" y="479"/>
      <point x="388" y="474" type="curve" smooth="yes"/>
    </contour>
    <contour>
      <point x="278" y="0" type="line"/>
      <point x="341" y="0"/>
      <point x="370" y="26"/>
      <point x="384" y="52" type="curve"/>
      <point x="388" y="52" type="line"/>
      <point x="388" y="9" type="line" smooth="yes"/>
      <point x="388" y="2"/>
      <point x="391" y="0"/>
      <point x="396" y="0" type="curve" smooth="yes"/>
      <point x="410" y="0" type="line" smooth="yes"/>
      <point x="415" y="0"/>
      <point x="418" y="2"/>
      <point x="418" y="9" type="curve" smooth="yes"/>
      <point x="418" y="501" type="line" smooth="yes"/>
      <point x="418" y="508"/>
      <point x="415" y="510"/>
      <point x="410" y="510" type="curve" smooth="yes"/>
      <point x="204" y="510" type="line" smooth="yes"/>
      <point x="123" y="510"/>
      <point x="70" y="457"/>
      <point x="70" y="374" type="curve" smooth="yes"/>
      <point x="70" y="136" type="line" smooth="yes"/>
      <point x="70" y="53"/>
      <point x="123" y="0"/>
      <point x="204" y="0" type="curve" smooth="yes"/>
    </contour>
    <contour>
      <point x="168" y="655" type="line"/>
      <point x="168" y="600"/>
      <point x="179" y="577"/>
      <point x="224" y="577" type="curve" smooth="yes"/>
      <point x="252" y="577"/>
      <point x="268" y="585"/>
      <point x="283" y="640" type="curve"/>
      <point x="294" y="674"/>
      <point x="296" y="685"/>
      <point x="318" y="685" type="curve" smooth="yes"/>
      <point x="345" y="685"/>
      <point x="351" y="670"/>
      <point x="351" y="627" type="curve" smooth="yes"/>
      <point x="351" y="586" type="line" smooth="yes"/>
      <point x="351" y="579"/>
      <point x="354" y="577"/>
      <point x="359" y="577" type="curve" smooth="yes"/>
      <point x="366" y="577" type="line" smooth="yes"/>
      <point x="371" y="577"/>
      <point x="374" y="579"/>
      <point x="374" y="586" type="curve" smooth="yes"/>
      <point x="374" y="628" type="line" smooth="yes"/>
      <point x="374" y="683"/>
      <point x="363" y="706"/>
      <point x="318" y="706" type="curve" smooth="yes"/>
      <point x="287" y="706"/>
      <point x="276" y="696"/>
      <point x="262" y="652" type="curve" smooth="yes"/>
      <point x="248" y="608"/>
      <point x="243" y="598"/>
      <point x="224" y="598" type="curve" smooth="yes"/>
      <point x="197" y="598"/>
      <point x="191" y="613"/>
      <point x="191" y="656" type="curve" smooth="yes"/>
      <point x="191" y="694" type="line" smooth="yes"/>
      <point x="191" y="701"/>
      <point x="188" y="703"/>
      <point x="183" y="703" type="curve" smooth="yes"/>
      <point x="176" y="703" type="line" smooth="yes"/>
      <point x="171" y="703"/>
      <point x="168" y="701"/>
      <point x="168" y="694" type="curve" smooth="yes"/>
    </contour>
  </outline>
</glyph>
<glyph name="aring" format="1">
  <advance width="498"/>
  <unicode hex="00E5"/>
  <outline>
    <contour>
      <point x="388" y="132" type="line"/>
      <point x="388" y="63"/>
      <point x="341" y="28"/>
      <point x="276" y="28" type="curve" smooth="yes"/>
      <point x="204" y="28" type="line" smooth="yes"/>
      <point x="137" y="28"/>
      <point x="100" y="69"/>
      <point x="100" y="137" type="curve" smooth="yes"/>
      <point x="100" y="373" type="line" smooth="yes"/>
      <point x="100" y="441"/>
      <point x="137" y="482"/>
      <point x="204" y="482" type="curve" smooth="yes"/>
      <point x="379" y="482" type="line" smooth="yes"/>
      <point x="386" y="482"/>
      <point x="388" y="479"/>
      <point x="388" y="474" type="curve" smooth="yes"/>
    </contour>
    <contour>
      <point x="278" y="0" type="line"/>
      <point x="341" y="0"/>
      <point x="370" y="26"/>
      <point x="384" y="52" type="curve"/>
      <point x="388" y="52" type="line"/>
      <point x="388" y="9" type="line" smooth="yes"/>
      <point x="388" y="2"/>
      <point x="391" y="0"/>
      <point x="396" y="0" type="curve" smooth="yes"/>
      <point x="410" y="0" type="line" smooth="yes"/>
      <point x="415" y="0"/>
      <point x="418" y="2"/>
      <point x="418" y="9" type="curve" smooth="yes"/>
      <point x="418" y="501" type="line" smooth="yes"/>
      <point x="418" y="508"/>
      <point x="415" y="510"/>
      <point x="410" y="510" type="curve" smooth="yes"/>
      <point x="204" y="510" type="line" smooth="yes"/>
      <point x="123" y="510"/>
      <point x="70" y="457"/>
      <point x="70" y="374" type="curve" smooth="yes"/>
      <point x="70" y="136" type="line" smooth="yes"/>
      <point x="70" y="53"/>
      <point x="123" y="0"/>
      <point x="204" y="0" type="curve" smooth="yes"/>
    </contour>
    <contour>
      <point x="193" y="623" type="line"/>
      <point x="193" y="586"/>
      <point x="208" y="576"/>
      <point x="243" y="576" type="curve" smooth="yes"/>
      <point x="246" y="576"/>
      <point x="254" y="576"/>
      <point x="257" y="576" type="curve" smooth="yes"/>
      <point x="293" y="576"/>
      <point x="308" y="586"/>
      <point x="308" y="623" type="curve" smooth="yes"/>
      <point x="308" y="663" type="line" smooth="yes"/>
      <point x="308" y="699"/>
      <point x="293" y="709"/>
      <point x="257" y="709" type="curve" smooth="yes"/>
      <point x="254" y="709"/>
      <point x="246" y="709"/>
      <point x="243" y="709" type="curve" smooth="yes"/>
      <point x="208" y="709"/>
      <point x="193" y="699"/>
      <point x="193" y="663" type="curve"/>
    </contour>
    <contour>
      <point x="169" y="664" type="line"/>
      <point x="169" y="714"/>
      <point x="194" y="732"/>
      <point x="243" y="732" type="curve" smooth="yes"/>
      <point x="248" y="732"/>
      <point x="252" y="732"/>
      <point x="257" y="732" type="curve" smooth="yes"/>
      <point x="306" y="732"/>
      <point x="333" y="714"/>
      <point x="333" y="664" type="curve" smooth="yes"/>
      <point x="333" y="622" type="line" smooth="yes"/>
      <point x="333" y="572"/>
      <point x="306" y="553"/>
      <point x="257" y="553" type="curve" smooth="yes"/>
      <point x="252" y="553"/>
      <point x="248" y="553"/>
      <point x="243" y="553" type="curve" smooth="yes"/>
      <point x="194" y="553"/>
      <point x="169" y="572"/>
      <point x="169" y="622" type="curve" smooth="yes"/>
    </contour>
  </outline>
</glyph>
<glyph name="ae" format="1">
  <advance width="806"/>
  <unicode hex="00E6"/>
  <outline>
    <contour>
      <point x="388" y="132" type="line"/>
      <point x="388" y="63"/>
      <point x="341" y="28"/>
      <point x="276" y="28" type="curve" smooth="yes"/>
      <point x="204" y="28" type="line" smooth="yes"/>
      <point x="137" y="28"/>
      <point x="100" y="69"/>
      <point x="100" y="137" type="curve" smooth="yes"/>
      <point x="100" y="163" type="line" smooth="yes"/>
      <point x="100" y="231"/>
      <point x="137" y="272"/>
      <point x="204" y="272" type="curve" smooth="yes"/>
      <point x="379" y="272" type="line" smooth="yes"/>
      <point x="386" y="272"/>
      <point x="388" y="269"/>
      <point x="388" y="264" type="curve" smooth="yes"/>
    </contour>
    <contour>
      <point x="706" y="246" type="line"/>
      <point x="706" y="241"/>
      <point x="704" y="238"/>
      <point x="697" y="238" type="curve" smooth="yes"/>
      <point x="427" y="238" type="line" smooth="yes"/>
      <point x="420" y="238"/>
      <point x="418" y="241"/>
      <point x="418" y="246" type="curve" smooth="yes"/>
      <point x="418" y="378" type="line" smooth="yes"/>
      <point x="418" y="447"/>
      <point x="465" y="482"/>
      <point x="530" y="482" type="curve" smooth="yes"/>
      <point x="602" y="482" type="line" smooth="yes"/>
      <point x="669" y="482"/>
      <point x="706" y="441"/>
      <point x="706" y="373" type="curve" smooth="yes"/>
    </contour>
    <contour>
      <point x="418" y="202" type="line"/>
      <point x="418" y="207"/>
      <point x="420" y="210"/>
      <point x="427" y="210" type="curve" smooth="yes"/>
      <point x="727" y="210" type="line" smooth="yes"/>
      <point x="734" y="210"/>
      <point x="736" y="213"/>
      <point x="736" y="220" type="curve" smooth="yes"/>
      <point x="736" y="374" type="line" smooth="yes"/>
      <point x="736" y="457"/>
      <point x="683" y="510"/>
      <point x="602" y="510" type="curve" smooth="yes"/>
      <point x="528" y="510" type="line" smooth="yes"/>
      <point x="473" y="510"/>
      <point x="427" y="490"/>
      <point x="404" y="441" type="curve"/>
      <point x="383" y="489"/>
      <point x="340" y="510"/>
      <point x="284" y="510" type="curve" smooth="yes"/>
      <point x="132" y="510" type="line" smooth="yes"/>
      <point x="125" y="510"/>
      <point x="123" y="507"/>
      <point x="123" y="502" type="curve" smooth="yes"/>
      <point x="123" y="490" type="line" smooth="yes"/>
      <point x="123" y="485"/>
      <point x="125" y="482"/>
      <point x="132" y="482" type="curve" smooth="yes"/>
      <point x="284" y="482" type="line" smooth="yes"/>
      <point x="351" y="482"/>
      <point x="388" y="441"/>
      <point x="388" y="373" type="curve" smooth="yes"/>
      <point x="388" y="308" type="line" smooth="yes"/>
      <point x="388" y="303"/>
      <point x="386" y="300"/>
      <point x="379" y="300" type="curve" smooth="yes"/>
      <point x="204" y="300" type="line" smooth="yes"/>
      <point x="123" y="300"/>
      <point x="70" y="247"/>
      <point x="70" y="164" type="curve" smooth="yes"/>
      <point x="70" y="136" type="line" smooth="yes"/>
      <point x="70" y="53"/>
      <point x="123" y="0"/>
      <point x="204" y="0" type="curve" smooth="yes"/>
      <point x="278" y="0" type="line" smooth="yes"/>
      <point x="333" y="0"/>
      <point x="379" y="18"/>
      <point x="402" y="69" type="curve"/>
      <point x="423" y="19"/>
      <point x="466" y="0"/>
      <point x="522" y="0" type="curve" smooth="yes"/>
      <point x="727" y="0" type="line" smooth="yes"/>
      <point x="734" y="0"/>
      <point x="736" y="3"/>
      <point x="736" y="8" type="curve" smooth="yes"/>
      <point x="736" y="20" type="line" smooth="yes"/>
      <point x="736" y="25"/>
      <point x="734" y="28"/>
      <point x="727" y="28" type="curve" smooth="yes"/>
      <point x="522" y="28" type="line" smooth="yes"/>
      <point x="455" y="28"/>
      <point x="418" y="69"/>
      <point x="418" y="137" type="curve" smooth="yes"/>
    </contour>
  </outline>
</glyph>
<glyph name="edieresis" format="1">
  <advance width="491"/>
  <unicode hex="00EB"/>
  <outline>
    <contour>
      <point x="109" y="265" type="line"/>
      <point x="102" y="265"/>
      <point x="100" y="268"/>
      <point x="100" y="273" type="curve" smooth="yes"/>
      <point x="100" y="373" type="line" smooth="yes"/>
      <point x="100" y="441"/>
      <point x="137" y="482"/>
      <point x="204" y="482" type="curve" smooth="yes"/>
      <point x="292" y="482" type="line" smooth="yes"/>
      <point x="359" y="482"/>
      <point x="396" y="441"/>
      <point x="396" y="373" type="curve" smooth="yes"/>
      <point x="396" y="273" type="line" smooth="yes"/>
      <point x="396" y="268"/>
      <point x="394" y="265"/>
      <point x="387" y="265" type="curve" smooth="yes"/>
    </contour>
    <contour>
      <point x="409" y="0" type="line"/>
      <point x="416" y="0"/>
      <point x="418" y="3"/>
      <point x="418" y="8" type="curve" smooth="yes"/>
      <point x="418" y="20" type="line" smooth="yes"/>
      <point x="418" y="25"/>
      <point x="416" y="28"/>
      <point x="409" y="28" type="curve" smooth="yes"/>
      <point x="204" y="28" type="line" smooth="yes"/>
      <point x="137" y="28"/>
      <point x="100" y="69"/>
      <point x="100" y="137" type="curve" smooth="yes"/>
      <point x="100" y="229" type="line" smooth="yes"/>
      <point x="100" y="234"/>
      <point x="102" y="237"/>
      <point x="109" y="237" type="curve" smooth="yes"/>
      <point x="417" y="237" type="line" smooth="yes"/>
      <point x="424" y="237"/>
      <point x="426" y="240"/>
      <point x="426" y="247" type="curve" smooth="yes"/>
      <point x="426" y="374" type="line" smooth="yes"/>
      <point x="426" y="457"/>
      <point x="373" y="510"/>
      <point x="292" y="510" type="curve" smooth="yes"/>
      <point x="204" y="510" type="line" smooth="yes"/>
      <point x="123" y="510"/>
      <point x="70" y="457"/>
      <point x="70" y="374" type="curve" smooth="yes"/>
      <point x="70" y="136" type="line" smooth="yes"/>
      <point x="70" y="53"/>
      <point x="123" y="0"/>
      <point x="204" y="0" type="curve" smooth="yes"/>
    </contour>
    <contour>
      <point x="311" y="583" type="line"/>
      <point x="311" y="576"/>
      <point x="314" y="574"/>
      <point x="319" y="574" type="curve" smooth="yes"/>
      <point x="333" y="574" type="line" smooth="yes"/>
      <point x="338" y="574"/>
      <point x="341" y="576"/>
      <point x="341" y="583" type="curve" smooth="yes"/>
      <point x="341" y="694" type="line" smooth="yes"/>
      <point x="341" y="701"/>
      <point x="338" y="703"/>
      <point x="333" y="703" type="curve" smooth="yes"/>
      <point x="319" y="703" type="line" smooth="yes"/>
      <point x="314" y="703"/>
      <point x="311" y="701"/>
      <point x="311" y="694" type="curve" smooth="yes"/>
    </contour>
    <contour>
      <point x="155" y="583" type="line"/>
      <point x="155" y="576"/>
      <point x="158" y="574"/>
      <point x="163" y="574" type="curve" smooth="yes"/>
      <point x="177" y="574" type="line" smooth="yes"/>
      <point x="182" y="574"/>
      <point x="185" y="576"/>
      <point x="185" y="583" type="curve" smooth="yes"/>
      <point x="185" y="694" type="line" smooth="yes"/>
      <point x="185" y="701"/>
      <point x="182" y="703"/>
      <point x="177" y="703" type="curve" smooth="yes"/>
      <point x="163" y="703" type="line" smooth="yes"/>
      <point x="158" y="703"/>
      <point x="155" y="701"/>
      <point x="155" y="694" type="curve" smooth="yes"/>
    </contour>
  </outline>
</glyph>
<glyph name="iacute" format="1">
  <advance width="198"/>
  <unicode hex="00ED"/>
  <outline>
    <contour>
      <point x="85" y="9" type="line"/>
      <point x="85" y="2"/>
      <point x="88" y="0"/>
      <point x="93" y="0" type="curve" smooth="yes"/>
      <point x="107" y="0" type="line" smooth="yes"/>
      <point x="112" y="0"/>
      <point x="115" y="2"/>
      <point x="115" y="9" type="curve" smooth="yes"/>
      <point x="115" y="501" type="line" smooth="yes"/>
      <point x="115" y="508"/>
      <point x="112" y="510"/>
      <point x="107" y="510" type="curve" smooth="yes"/>
      <point x="93" y="510" type="line" smooth="yes"/>
      <point x="88" y="510"/>
      <point x="85" y="508"/>
      <point x="85" y="501" type="curve" smooth="yes"/>
    </contour>
    <contour>
      <point x="174" y="703" type="line"/>
      <point x="167" y="703"/>
      <point x="162" y="700"/>
      <point x="159" y="694" type="curve" smooth="yes"/>
      <point x="91" y="583" type="line" smooth="yes"/>
      <point x="88" y="578"/>
      <point x="89" y="574"/>
      <point x="94" y="574" type="curve" smooth="yes"/>
      <point x="102" y="574" type="line" smooth="yes"/>
      <point x="107" y="574"/>
      <point x="112" y="577"/>
      <point x="116" y="582" type="curve" smooth="yes"/>
      <point x="208" y="694" type="line" smooth="yes"/>
      <point x="212" y="699"/>
      <point x="209" y="703"/>
      <point x="204" y="703" type="curve" smooth="yes"/>
    </contour>
  </outline>
</glyph>
<glyph name="icircumflex" format="1">
  <advance width="200"/>
  <unicode hex="00EE"/>
  <outline>
    <contour>
      <point x="85" y="9" type="line"/>
      <point x="85" y="2"/>
      <point x="88" y="0"/>
      <point x="93" y="0" type="curve" smooth="yes"/>
      <point x="107" y="0" type="line" smooth="yes"/>
      <point x="112" y="0"/>
      <point x="115" y="2"/>
      <point x="115" y="9" type="curve" smooth="yes"/>
      <point x="115" y="501" type="line" smooth="yes"/>
      <point x="115" y="508"/>
      <point x="112" y="510"/>
      <point x="107" y="510" type="curve" smooth="yes"/>
      <point x="93" y="510" type="line" smooth="yes"/>
      <point x="88" y="510"/>
      <point x="85" y="508"/>
      <point x="85" y="501" type="curve" smooth="yes"/>
    </contour>
    <contour>
      <point x="124" y="694" type="line"/>
      <point x="119" y="701"/>
      <point x="114" y="703"/>
      <point x="105" y="703" type="curve" smooth="yes"/>
      <point x="95" y="703" type="line"/>
      <point x="86" y="703"/>
      <point x="81" y="701"/>
      <point x="76" y="694" type="curve"/>
      <point x="12" y="585" type="line" smooth="yes"/>
      <point x="8" y="579"/>
      <point x="9" y="574"/>
      <point x="16" y="574" type="curve" smooth="yes"/>
      <point x="30" y="574" type="line" smooth="yes"/>
      <point x="36" y="574"/>
      <point x="39" y="575"/>
      <point x="41" y="579" type="curve" smooth="yes"/>
      <point x="100" y="684" type="line"/>
      <point x="159" y="579" type="line" smooth="yes"/>
      <point x="161" y="575"/>
      <point x="164" y="574"/>
      <point x="170" y="574" type="curve" smooth="yes"/>
      <point x="184" y="574" type="line" smooth="yes"/>
      <point x="191" y="574"/>
      <point x="192" y="579"/>
      <point x="188" y="585" type="curve" smooth="yes"/>
    </contour>
  </outline>
</glyph>
<glyph name="ocircumflex" format="1">
  <advance width="493"/>
  <unicode hex="00F4"/>
  <outline>
    <contour>
      <point x="204" y="28" type="line"/>
      <point x="137" y="28"/>
      <point x="100" y="69"/>
      <point x="100" y="137" type="curve" smooth="yes"/>
      <point x="100" y="373" type="line" smooth="yes"/>
      <point x="100" y="441"/>
      <point x="137" y="482"/>
      <point x="204" y="482" type="curve" smooth="yes"/>
      <point x="289" y="482" type="line" smooth="yes"/>
      <point x="356" y="482"/>
      <point x="393" y="441"/>
      <point x="393" y="373" type="curve" smooth="yes"/>
      <point x="393" y="137" type="line" smooth="yes"/>
      <point x="393" y="69"/>
      <point x="356" y="28"/>
      <point x="289" y="28" type="curve" smooth="yes"/>
    </contour>
    <contour>
      <point x="289" y="0" type="line"/>
      <point x="370" y="0"/>
      <point x="423" y="53"/>
      <point x="423" y="136" type="curve" smooth="yes"/>
      <point x="423" y="374" type="line" smooth="yes"/>
      <point x="423" y="457"/>
      <point x="370" y="510"/>
      <point x="289" y="510" type="curve" smooth="yes"/>
      <point x="204" y="510" type="line" smooth="yes"/>
      <point x="123" y="510"/>
      <point x="70" y="457"/>
      <point x="70" y="374" type="curve" smooth="yes"/>
      <point x="70" y="136" type="line" smooth="yes"/>
      <point x="70" y="53"/>
      <point x="123" y="0"/>
      <point x="204" y="0" type="curve" smooth="yes"/>
    </contour>
    <contour>
      <point x="270" y="694" type="line"/>
      <point x="265" y="701"/>
      <point x="260" y="703"/>
      <point x="251" y="703" type="curve" smooth="yes"/>
      <point x="241" y="703" type="line"/>
      <point x="232" y="703"/>
      <point x="227" y="701"/>
      <point x="222" y="694" type="curve"/>
      <point x="158" y="585" type="line" smooth="yes"/>
      <point x="154" y="579"/>
      <point x="155" y="574"/>
      <point x="162" y="574" type="curve" smooth="yes"/>
      <point x="176" y="574" type="line" smooth="yes"/>
      <point x="182" y="574"/>
      <point x="185" y="575"/>
      <point x="187" y="579" type="curve" smooth="yes"/>
      <point x="246" y="684" type="line"/>
      <point x="305" y="579" type="line" smooth="yes"/>
      <point x="307" y="575"/>
      <point x="310" y="574"/>
      <point x="316" y="574" type="curve" smooth="yes"/>
      <point x="330" y="574" type="line" smooth="yes"/>
      <point x="337" y="574"/>
      <point x="338" y="579"/>
      <point x="334" y="585" type="curve" smooth="yes"/>
    </contour>
  </outline>
</glyph>
<glyph name="odieresis" format="1">
  <advance width="493"/>
  <unicode hex="00F6"/>
  <outline>
    <contour>
      <point x="204" y="28" type="line"/>
      <point x="137" y="28"/>
      <point x="100" y="69"/>
      <point x="100" y="137" type="curve" smooth="yes"/>
      <point x="100" y="373" type="line" smooth="yes"/>
      <point x="100" y="441"/>
      <point x="137" y="482"/>
      <point x="204" y="482" type="curve" smooth="yes"/>
      <point x="289" y="482" type="line" smooth="yes"/>
      <point x="356" y="482"/>
      <point x="393" y="441"/>
      <point x="393" y="373" type="curve" smooth="yes"/>
      <point x="393" y="137" type="line" smooth="yes"/>
      <point x="393" y="69"/>
      <point x="356" y="28"/>
      <point x="289" y="28" type="curve" smooth="yes"/>
    </contour>
    <contour>
      <point x="289" y="0" type="line"/>
      <point x="370" y="0"/>
      <point x="423" y="53"/>
      <point x="423" y="136" type="curve" smooth="yes"/>
      <point x="423" y="374" type="line" smooth="yes"/>
      <point x="423" y="457"/>
      <point x="370" y="510"/>
      <point x="289" y="510" type="curve" smooth="yes"/>
      <point x="204" y="510" type="line" smooth="yes"/>
      <point x="123" y="510"/>
      <point x="70" y="457"/>
      <point x="70" y="374" type="curve" smooth="yes"/>
      <point x="70" y="136" type="line" smooth="yes"/>
      <point x="70" y="53"/>
      <point x="123" y="0"/>
      <point x="204" y="0" type="curve" smooth="yes"/>
    </contour>
    <contour>
      <point x="309" y="583" type="line"/>
      <point x="309" y="576"/>
      <point x="312" y="574"/>
      <point x="317" y="574" type="curve" smooth="yes"/>
      <point x="331" y="574" type="line" smooth="yes"/>
      <point x="336" y="574"/>
      <point x="339" y="576"/>
      <point x="339" y="583" type="curve" smooth="yes"/>
      <point x="339" y="694" type="line" smooth="yes"/>
      <point x="339" y="701"/>
      <point x="336" y="703"/>
      <point x="331" y="703" type="curve" smooth="yes"/>
      <point x="317" y="703" type="line" smooth="yes"/>
      <point x="312" y="703"/>
      <point x="309" y="701"/>
      <point x="309" y="694" type="curve" smooth="yes"/>
    </contour>
    <contour>
      <point x="153" y="583" type="line"/>
      <point x="153" y="576"/>
      <point x="156" y="574"/>
      <point x="161" y="574" type="curve" smooth="yes"/>
      <point x="175" y="574" type="line" smooth="yes"/>
      <point x="180" y="574"/>
      <point x="183" y="576"/>
      <point x="183" y="583" type="curve" smooth="yes"/>
      <point x="183" y="694" type="line" smooth="yes"/>
      <point x="183" y="701"/>
      <point x="180" y="703"/>
      <point x="175" y="703" type="curve" smooth="yes"/>
      <point x="161" y="703" type="line" smooth="yes"/>
      <point x="156" y="703"/>
      <point x="153" y="701"/>
      <point x="153" y="694" type="curve" smooth="yes"/>
    </contour>
  </outline>
</glyph>
<glyph name="divide" format="1">
  <advance width="522"/>
  <unicode hex="00F7"/>
  <outline>
    <contour>
      <point x="246" y="434" type="line"/>
      <point x="246" y="427"/>
      <point x="249" y="425"/>
      <point x="254" y="425" type="curve" smooth="yes"/>
      <point x="268" y="425" type="line" smooth="yes"/>
      <point x="273" y="425"/>
      <point x="276" y="427"/>
      <point x="276" y="434" type="curve" smooth="yes"/>
      <point x="276" y="498" type="line" smooth="yes"/>
      <point x="276" y="505"/>
      <point x="273" y="507"/>
      <point x="268" y="507" type="curve" smooth="yes"/>
      <point x="254" y="507" type="line" smooth="yes"/>
      <point x="249" y="507"/>
      <point x="246" y="505"/>
      <point x="246" y="498" type="curve" smooth="yes"/>
    </contour>
    <contour>
      <point x="438" y="307" type="line"/>
      <point x="445" y="307"/>
      <point x="447" y="310"/>
      <point x="447" y="315" type="curve" smooth="yes"/>
      <point x="447" y="327" type="line" smooth="yes"/>
      <point x="447" y="332"/>
      <point x="445" y="335"/>
      <point x="438" y="335" type="curve" smooth="yes"/>
      <point x="84" y="335" type="line" smooth="yes"/>
      <point x="77" y="335"/>
      <point x="75" y="332"/>
      <point x="75" y="327" type="curve" smooth="yes"/>
      <point x="75" y="315" type="line" smooth="yes"/>
      <point x="75" y="310"/>
      <point x="77" y="307"/>
      <point x="84" y="307" type="curve" smooth="yes"/>
    </contour>
    <contour>
      <point x="246" y="144" type="line"/>
      <point x="246" y="137"/>
      <point x="249" y="135"/>
      <point x="254" y="135" type="curve" smooth="yes"/>
      <point x="268" y="135" type="line" smooth="yes"/>
      <point x="273" y="135"/>
      <point x="276" y="137"/>
      <point x="276" y="144" type="curve" smooth="yes"/>
      <point x="276" y="208" type="line" smooth="yes"/>
      <point x="276" y="215"/>
      <point x="273" y="217"/>
      <point x="268" y="217" type="curve" smooth="yes"/>
      <point x="254" y="217" type="line" smooth="yes"/>
      <point x="249" y="217"/>
      <point x="246" y="215"/>
      <point x="246" y="208" type="curve" smooth="yes"/>
    </contour>
  </outline>
</glyph>
<glyph name="ugrave" format="1">
  <advance width="503"/>
  <unicode hex="00F9"/>
  <outline>
    <contour>
      <point x="283" y="0" type="line"/>
      <point x="346" y="0"/>
      <point x="375" y="26"/>
      <point x="389" y="52" type="curve"/>
      <point x="393" y="52" type="line"/>
      <point x="393" y="9" type="line" smooth="yes"/>
      <point x="393" y="2"/>
      <point x="396" y="0"/>
      <point x="401" y="0" type="curve" smooth="yes"/>
      <point x="415" y="0" type="line" smooth="yes"/>
      <point x="420" y="0"/>
      <point x="423" y="2"/>
      <point x="423" y="9" type="curve" smooth="yes"/>
      <point x="423" y="501" type="line" smooth="yes"/>
      <point x="423" y="508"/>
      <point x="420" y="510"/>
      <point x="415" y="510" type="curve" smooth="yes"/>
      <point x="401" y="510" type="line" smooth="yes"/>
      <point x="396" y="510"/>
      <point x="393" y="508"/>
      <point x="393" y="501" type="curve" smooth="yes"/>
      <point x="393" y="132" type="line" smooth="yes"/>
      <point x="393" y="63"/>
      <point x="346" y="28"/>
      <point x="281" y="28" type="curve" smooth="yes"/>
      <point x="209" y="28" type="line" smooth="yes"/>
      <point x="142" y="28"/>
      <point x="105" y="69"/>
      <point x="105" y="137" type="curve" smooth="yes"/>
      <point x="105" y="501" type="line" smooth="yes"/>
      <point x="105" y="508"/>
      <point x="102" y="510"/>
      <point x="97" y="510" type="curve" smooth="yes"/>
      <point x="83" y="510" type="line" smooth="yes"/>
      <point x="78" y="510"/>
      <point x="75" y="508"/>
      <point x="75" y="501" type="curve" smooth="yes"/>
      <point x="75" y="136" type="line" smooth="yes"/>
      <point x="75" y="53"/>
      <point x="128" y="0"/>
      <point x="209" y="0" type="curve" smooth="yes"/>
    </contour>
    <contour>
      <point x="193" y="694" type="line"/>
      <point x="190" y="700"/>
      <point x="185" y="703"/>
      <point x="178" y="703" type="curve" smooth="yes"/>
      <point x="148" y="703" type="line" smooth="yes"/>
      <point x="143" y="703"/>
      <point x="140" y="699"/>
      <point x="144" y="694" type="curve" smooth="yes"/>
      <point x="236" y="582" type="line" smooth="yes"/>
      <point x="240" y="577"/>
      <point x="245" y="574"/>
      <point x="250" y="574" type="curve" smooth="yes"/>
      <point x="258" y="574" type="line" smooth="yes"/>
      <point x="263" y="574"/>
      <point x="264" y="578"/>
      <point x="261" y="583" type="curve" smooth="yes"/>
    </contour>
  </outline>
</glyph>
<glyph name="uacute" format="1">
  <advance width="503"/>
  <unicode hex="00FA"/>
  <outline>
    <contour>
      <point x="283" y="0" type="line"/>
      <point x="346" y="0"/>
      <point x="375" y="26"/>
      <point x="389" y="52" type="curve"/>
      <point x="393" y="52" type="line"/>
      <point x="393" y="9" type="line" smooth="yes"/>
      <point x="393" y="2"/>
      <point x="396" y="0"/>
      <point x="401" y="0" type="curve" smooth="yes"/>
      <point x="415" y="0" type="line" smooth="yes"/>
      <point x="420" y="0"/>
      <point x="423" y="2"/>
      <point x="423" y="9" type="curve" smooth="yes"/>
      <point x="423" y="501" type="line" smooth="yes"/>
      <point x="423" y="508"/>
      <point x="420" y="510"/>
      <point x="415" y="510" type="curve" smooth="yes"/>
      <point x="401" y="510" type="line" smooth="yes"/>
      <point x="396" y="510"/>
      <point x="393" y="508"/>
      <point x="393" y="501" type="curve" smooth="yes"/>
      <point x="393" y="132" type="line" smooth="yes"/>
      <point x="393" y="63"/>
      <point x="346" y="28"/>
      <point x="281" y="28" type="curve" smooth="yes"/>
      <point x="209" y="28" type="line" smooth="yes"/>
      <point x="142" y="28"/>
      <point x="105" y="69"/>
      <point x="105" y="137" type="curve" smooth="yes"/>
      <point x="105" y="501" type="line" smooth="yes"/>
      <point x="105" y="508"/>
      <point x="102" y="510"/>
      <point x="97" y="510" type="curve" smooth="yes"/>
      <point x="83" y="510" type="line" smooth="yes"/>
      <point x="78" y="510"/>
      <point x="75" y="508"/>
      <point x="75" y="501" type="curve" smooth="yes"/>
      <point x="75" y="136" type="line" smooth="yes"/>
      <point x="75" y="53"/>
      <point x="128" y="0"/>
      <point x="209" y="0" type="curve" smooth="yes"/>
    </contour>
    <contour>
      <point x="323" y="703" type="line"/>
      <point x="316" y="703"/>
      <point x="311" y="700"/>
      <point x="308" y="694" type="curve" smooth="yes"/>
      <point x="240" y="583" type="line" smooth="yes"/>
      <point x="237" y="578"/>
      <point x="238" y="574"/>
      <point x="243" y="574" type="curve" smooth="yes"/>
      <point x="251" y="574" type="line" smooth="yes"/>
      <point x="256" y="574"/>
      <point x="261" y="577"/>
      <point x="265" y="582" type="curve" smooth="yes"/>
      <point x="357" y="694" type="line" smooth="yes"/>
      <point x="361" y="699"/>
      <point x="358" y="703"/>
      <point x="353" y="703" type="curve" smooth="yes"/>
    </contour>
  </outline>
</glyph>
<glyph name="udieresis" format="1">
  <advance width="503"/>
  <unicode hex="00FC"/>
  <outline>
    <contour>
      <point x="283" y="0" type="line"/>
      <point x="346" y="0"/>
      <point x="375" y="26"/>
      <point x="389" y="52" type="curve"/>
      <point x="393" y="52" type="line"/>
      <point x="393" y="9" type="line" smooth="yes"/>
      <point x="393" y="2"/>
      <point x="396" y="0"/>
      <point x="401" y="0" type="curve" smooth="yes"/>
      <point x="415" y="0" type="line" smooth="yes"/>
      <point x="420" y="0"/>
      <point x="423" y="2"/>
      <point x="423" y="9" type="curve" smooth="yes"/>
      <point x="423" y="501" type="line" smooth="yes"/>
      <point x="423" y="508"/>
      <point x="420" y="510"/>
      <point x="415" y="510" type="curve" smooth="yes"/>
      <point x="401" y="510" type="line" smooth="yes"/>
      <point x="396" y="510"/>
      <point x="393" y="508"/>
      <point x="393" y="501" type="curve" smooth="yes"/>
      <point x="393" y="132" type="line" smooth="yes"/>
      <point x="393" y="63"/>
      <point x="346" y="28"/>
      <point x="281" y="28" type="curve" smooth="yes"/>
      <point x="209" y="28" type="line" smooth="yes"/>
      <point x="142" y="28"/>
      <point x="105" y="69"/>
      <point x="105" y="137" type="curve" smooth="yes"/>
      <point x="105" y="501" type="line" smooth="yes"/>
      <point x="105" y="508"/>
      <point x="102" y="510"/>
      <point x="97" y="510" type="curve" smooth="yes"/>
      <point x="83" y="510" type="line" smooth="yes"/>
      <point x="78" y="510"/>
      <point x="75" y="508"/>
      <point x="75" y="501" type="curve" smooth="yes"/>
      <point x="75" y="136" type="line" smooth="yes"/>
      <point x="75" y="53"/>
      <point x="128" y="0"/>
      <point x="209" y="0" type="curve" smooth="yes"/>
    </contour>
    <contour>
      <point x="312" y="583" type="line"/>
      <point x="312" y="576"/>
      <point x="315" y="574"/>
      <point x="320" y="574" type="curve" smooth="yes"/>
      <point x="334" y="574" type="line" smooth="yes"/>
      <point x="339" y="574"/>
      <point x="342" y="576"/>
      <point x="342" y="583" type="curve" smooth="yes"/>
      <point x="342" y="694" type="line" smooth="yes"/>
      <point x="342" y="701"/>
      <point x="339" y="703"/>
      <point x="334" y="703" type="curve" smooth="yes"/>
      <point x="320" y="703" type="line" smooth="yes"/>
      <point x="315" y="703"/>
      <point x="312" y="701"/>
      <point x="312" y="694" type="curve" smooth="yes"/>
    </contour>
    <contour>
      <point x="156" y="583" type="line"/>
      <point x="156" y="576"/>
      <point x="159" y="574"/>
      <point x="164" y="574" type="curve" smooth="yes"/>
      <point x="178" y="574" type="line" smooth="yes"/>
      <point x="183" y="574"/>
      <point x="186" y="576"/>
      <point x="186" y="583" type="curve" smooth="yes"/>
      <point x="186" y="694" type="line" smooth="yes"/>
      <point x="186" y="701"/>
      <point x="183" y="703"/>
      <point x="178" y="703" type="curve" smooth="yes"/>
      <point x="164" y="703" type="line" smooth="yes"/>
      <point x="159" y="703"/>
      <point x="156" y="701"/>
      <point x="156" y="694" type="curve" smooth="yes"/>
    </contour>
  </outline>
</glyph>
<glyph name="amacron" format="1">
  <advance width="498"/>
  <unicode hex="0101"/>
  <outline>
    <contour>
      <point x="388" y="132" type="line"/>
      <point x="388" y="63"/>
      <point x="341" y="28"/>
      <point x="276" y="28" type="curve" smooth="yes"/>
      <point x="204" y="28" type="line" smooth="yes"/>
      <point x="137" y="28"/>
      <point x="100" y="69"/>
      <point x="100" y="137" type="curve" smooth="yes"/>
      <point x="100" y="373" type="line" smooth="yes"/>
      <point x="100" y="441"/>
      <point x="137" y="482"/>
      <point x="204" y="482" type="curve" smooth="yes"/>
      <point x="379" y="482" type="line" smooth="yes"/>
      <point x="386" y="482"/>
      <point x="388" y="479"/>
      <point x="388" y="474" type="curve" smooth="yes"/>
    </contour>
    <contour>
      <point x="278" y="0" type="line"/>
      <point x="341" y="0"/>
      <point x="370" y="26"/>
      <point x="384" y="52" type="curve"/>
      <point x="388" y="52" type="line"/>
      <point x="388" y="9" type="line" smooth="yes"/>
      <point x="388" y="2"/>
      <point x="391" y="0"/>
      <point x="396" y="0" type="curve" smooth="yes"/>
      <point x="410" y="0" type="line" smooth="yes"/>
      <point x="415" y="0"/>
      <point x="418" y="2"/>
      <point x="418" y="9" type="curve" smooth="yes"/>
      <point x="418" y="501" type="line" smooth="yes"/>
      <point x="418" y="508"/>
      <point x="415" y="510"/>
      <point x="410" y="510" type="curve" smooth="yes"/>
      <point x="204" y="510" type="line" smooth="yes"/>
      <point x="123" y="510"/>
      <point x="70" y="457"/>
      <point x="70" y="374" type="curve" smooth="yes"/>
      <point x="70" y="136" type="line" smooth="yes"/>
      <point x="70" y="53"/>
      <point x="123" y="0"/>
      <point x="204" y="0" type="curve" smooth="yes"/>
    </contour>
    <contour>
      <point x="376" y="627" type="line"/>
      <point x="383" y="627"/>
      <point x="385" y="630"/>
      <point x="385" y="635" type="curve" smooth="yes"/>
      <point x="385" y="644" type="line" smooth="yes"/>
      <point x="385" y="649"/>
      <point x="383" y="652"/>
      <point x="376" y="652" type="curve" smooth="yes"/>
      <point x="172" y="652" type="line" smooth="yes"/>
      <point x="165" y="652"/>
      <point x="163" y="649"/>
      <point x="163" y="644" type="curve" smooth="yes"/>
      <point x="163" y="635" type="line" smooth="yes"/>
      <point x="163" y="630"/>
      <point x="165" y="627"/>
      <point x="172" y="627" type="curve" smooth="yes"/>
    </contour>
  </outline>
</glyph>
<glyph name="abreve" format="1">
  <advance width="498"/>
  <unicode hex="0103"/>
  <outline>
    <contour>
      <point x="388" y="132" type="line"/>
      <point x="388" y="63"/>
      <point x="341" y="28"/>
      <point x="276" y="28" type="curve" smooth="yes"/>
      <point x="204" y="28" type="line" smooth="yes"/>
      <point x="137" y="28"/>
      <point x="100" y="69"/>
      <point x="100" y="137" type="curve" smooth="yes"/>
      <point x="100" y="373" type="line" smooth="yes"/>
      <point x="100" y="441"/>
      <point x="137" y="482"/>
      <point x="204" y="482" type="curve" smooth="yes"/>
      <point x="379" y="482" type="line" smooth="yes"/>
      <point x="386" y="482"/>
      <point x="388" y="479"/>
      <point x="388" y="474" type="curve" smooth="yes"/>
    </contour>
    <contour>
      <point x="278" y="0" type="line"/>
      <point x="341" y="0"/>
      <point x="370" y="26"/>
      <point x="384" y="52" type="curve"/>
      <point x="388" y="52" type="line"/>
      <point x="388" y="9" type="line" smooth="yes"/>
      <point x="388" y="2"/>
      <point x="391" y="0"/>
      <point x="396" y="0" type="curve" smooth="yes"/>
      <point x="410" y="0" type="line" smooth="yes"/>
      <point x="415" y="0"/>
      <point x="418" y="2"/>
      <point x="418" y="9" type="curve" smooth="yes"/>
      <point x="418" y="501" type="line" smooth="yes"/>
      <point x="418" y="508"/>
      <point x="415" y="510"/>
      <point x="410" y="510" type="curve" smooth="yes"/>
      <point x="204" y="510" type="line" smooth="yes"/>
      <point x="123" y="510"/>
      <point x="70" y="457"/>
      <point x="70" y="374" type="curve" smooth="yes"/>
      <point x="70" y="136" type="line" smooth="yes"/>
      <point x="70" y="53"/>
      <point x="123" y="0"/>
      <point x="204" y="0" type="curve" smooth="yes"/>
    </contour>
    <contour>
      <point x="172" y="694" type="curve"/>
      <point x="172" y="681" type="line"/>
      <point x="172" y="606"/>
      <point x="201" y="574"/>
      <point x="265" y="574" type="curve" smooth="yes"/>
      <point x="269" y="574" type="line" smooth="yes"/>
      <point x="333" y="574"/>
      <point x="363" y="606"/>
      <point x="363" y="681" type="curve" smooth="yes"/>
      <point x="363" y="693" type="line"/>
      <point x="363" y="700"/>
      <point x="360" y="702"/>
      <point x="355" y="702" type="curve" smooth="yes"/>
      <point x="347" y="702" type="line" smooth="yes"/>
      <point x="342" y="702"/>
      <point x="339" y="700"/>
      <point x="339" y="693" type="curve" smooth="yes"/>
      <point x="339" y="682" type="line"/>
      <point x="339" y="619"/>
      <point x="321" y="596"/>
      <point x="269" y="596" type="curve" smooth="yes"/>
      <point x="265" y="596" type="line" smooth="yes"/>
      <point x="216" y="596"/>
      <point x="198" y="619"/>
      <point x="198" y="682" type="curve" smooth="yes"/>
      <point x="198" y="694" type="line"/>
      <point x="198" y="701"/>
      <point x="195" y="703"/>
      <point x="190" y="703" type="curve" smooth="yes"/>
      <point x="180" y="703" type="line" smooth="yes"/>
      <point x="175" y="703"/>
      <point x="172" y="701"/>
    </contour>
  </outline>
</glyph>
<glyph name="Ccaron" format="1">
  <advance width="543"/>
  <unicode hex="010C"/>
  <outline>
    <contour>
      <point x="344" y="0" type="line"/>
      <point x="425" y="0"/>
      <point x="478" y="53"/>
      <point x="478" y="136" type="curve" smooth="yes"/>
      <point x="478" y="186" type="line"/>
      <point x="478" y="193"/>
      <point x="475" y="195"/>
      <point x="470" y="195" type="curve" smooth="yes"/>
      <point x="456" y="195" type="line" smooth="yes"/>
      <point x="451" y="195"/>
      <point x="448" y="193"/>
      <point x="448" y="186" type="curve" smooth="yes"/>
      <point x="448" y="137" type="line"/>
      <point x="448" y="69"/>
      <point x="411" y="28"/>
      <point x="344" y="28" type="curve" smooth="yes"/>
      <point x="214" y="28" type="line" smooth="yes"/>
      <point x="147" y="28"/>
      <point x="110" y="69"/>
      <point x="110" y="137" type="curve" smooth="yes"/>
      <point x="110" y="506" type="line" smooth="yes"/>
      <point x="110" y="574"/>
      <point x="147" y="615"/>
      <point x="214" y="615" type="curve" smooth="yes"/>
      <point x="344" y="615" type="line" smooth="yes"/>
      <point x="411" y="615"/>
      <point x="448" y="574"/>
      <point x="448" y="506" type="curve" smooth="yes"/>
      <point x="448" y="457" type="line"/>
      <point x="448" y="450"/>
      <point x="451" y="448"/>
      <point x="456" y="448" type="curve" smooth="yes"/>
      <point x="470" y="448" type="line" smooth="yes"/>
      <point x="475" y="448"/>
      <point x="478" y="450"/>
      <point x="478" y="457" type="curve" smooth="yes"/>
      <point x="478" y="507" type="line"/>
      <point x="478" y="590"/>
      <point x="425" y="643"/>
      <point x="344" y="643" type="curve" smooth="yes"/>
      <point x="214" y="643" type="line" smooth="yes"/>
      <point x="133" y="643"/>
      <point x="80" y="590"/>
      <point x="80" y="507" type="curve" smooth="yes"/>
      <point x="80" y="136" type="line" smooth="yes"/>
      <point x="80" y="53"/>
      <point x="133" y="0"/>
      <point x="214" y="0" type="curve" smooth="yes"/>
    </contour>
    <contour>
      <point x="274" y="707" type="curve"/>
      <point x="284" y="707" type="line"/>
      <point x="293" y="707"/>
      <point x="298" y="709"/>
      <point x="303" y="716" type="curve"/>
      <point x="367" y="825" type="line" smooth="yes"/>
      <point x="371" y="831"/>
      <point x="370" y="836"/>
      <point x="363" y="836" type="curve" smooth="yes"/>
      <point x="349" y="836" type="line" smooth="yes"/>
      <point x="343" y="836"/>
      <point x="340" y="835"/>
      <point x="338" y="831" type="curve" smooth="yes"/>
      <point x="279" y="726" type="line"/>
      <point x="220" y="831" type="line" smooth="yes"/>
      <point x="218" y="835"/>
      <point x="215" y="836"/>
      <point x="209" y="836" type="curve" smooth="yes"/>
      <point x="195" y="836" type="line" smooth="yes"/>
      <point x="188" y="836"/>
      <point x="187" y="831"/>
      <point x="191" y="825" type="curve" smooth="yes"/>
      <point x="255" y="716" type="line"/>
      <point x="260" y="709"/>
      <point x="265" y="707"/>
    </contour>
  </outline>
</glyph>
<glyph name="ccaron" format="1">
  <advance width="390"/>
  <unicode hex="010D"/>
  <outline>
    <contour>
      <point x="355" y="20" type="line"/>
      <point x="355" y="25"/>
      <point x="353" y="28"/>
      <point x="346" y="28" type="curve" smooth="yes"/>
      <point x="204" y="28" type="line" smooth="yes"/>
      <point x="137" y="28"/>
      <point x="100" y="69"/>
      <point x="100" y="137" type="curve" smooth="yes"/>
      <point x="100" y="373" type="line" smooth="yes"/>
      <point x="100" y="441"/>
      <point x="137" y="482"/>
      <point x="204" y="482" type="curve" smooth="yes"/>
      <point x="346" y="482" type="line" smooth="yes"/>
      <point x="353" y="482"/>
      <point x="355" y="485"/>
      <point x="355" y="490" type="curve" smooth="yes"/>
      <point x="355" y="502" type="line" smooth="yes"/>
      <point x="355" y="507"/>
      <point x="353" y="510"/>
      <point x="346" y="510" type="curve" smooth="yes"/>
      <point x="204" y="510" type="line" smooth="yes"/>
      <point x="123" y="510"/>
      <point x="70" y="457"/>
      <point x="70" y="374" type="curve" smooth="yes"/>
      <point x="70" y="136" type="line" smooth="yes"/>
      <point x="70" y="53"/>
      <point x="123" y="0"/>
      <point x="204" y="0" type="curve" smooth="yes"/>
      <point x="346" y="0" type="line" smooth="yes"/>
      <point x="353" y="0"/>
      <point x="355" y="3"/>
      <point x="355" y="8" type="curve" smooth="yes"/>
    </contour>
    <contour>
      <point x="229" y="574" type="curve"/>
      <point x="239" y="574" type="line"/>
      <point x="248" y="574"/>
      <point x="253" y="576"/>
      <point x="258" y="583" type="curve"/>
      <point x="322" y="692" type="line" smooth="yes"/>
      <point x="326" y="698"/>
      <point x="325" y="703"/>
      <point x="318" y="703" type="curve" smooth="yes"/>
      <point x="304" y="703" type="line" smooth="yes"/>
      <point x="298" y="703"/>
      <point x="295" y="702"/>
      <point x="293" y="698" type="curve" smooth="yes"/>
      <point x="234" y="593" type="line"/>
      <point x="175" y="698" type="line" smooth="yes"/>
      <point x="173" y="702"/>
      <point x="170" y="703"/>
      <point x="164" y="703" type="curve" smooth="yes"/>
      <point x="150" y="703" type="line" smooth="yes"/>
      <point x="143" y="703"/>
      <point x="142" y="698"/>
      <point x="146" y="692" type="curve" smooth="yes"/>
      <point x="210" y="583" type="line"/>
      <point x="215" y="576"/>
      <point x="220" y="574"/>
    </contour>
  </outline>
</glyph>
<glyph name="Dcaron" format="1">
  <advance width="558"/>
  <unicode hex="010E"/>
  <outline>
    <contour>
      <point x="90" y="9" type="line"/>
      <point x="90" y="2"/>
      <point x="93" y="0"/>
      <point x="98" y="0" type="curve" smooth="yes"/>
      <point x="344" y="0" type="line" smooth="yes"/>
      <point x="425" y="0"/>
      <point x="478" y="53"/>
      <point x="478" y="136" type="curve" smooth="yes"/>
      <point x="478" y="507" type="line" smooth="yes"/>
      <point x="478" y="590"/>
      <point x="425" y="643"/>
      <point x="344" y="643" type="curve" smooth="yes"/>
      <point x="98" y="643" type="line" smooth="yes"/>
      <point x="93" y="643"/>
      <point x="90" y="641"/>
      <point x="90" y="634" type="curve" smooth="yes"/>
    </contour>
    <contour>
      <point x="129" y="28" type="line"/>
      <point x="122" y="28"/>
      <point x="120" y="31"/>
      <point x="120" y="36" type="curve" smooth="yes"/>
      <point x="120" y="607" type="line" smooth="yes"/>
      <point x="120" y="612"/>
      <point x="122" y="615"/>
      <point x="129" y="615" type="curve" smooth="yes"/>
      <point x="344" y="615" type="line" smooth="yes"/>
      <point x="411" y="615"/>
      <point x="448" y="574"/>
      <point x="448" y="506" type="curve" smooth="yes"/>
      <point x="448" y="137" type="line" smooth="yes"/>
      <point x="448" y="69"/>
      <point x="411" y="28"/>
      <point x="344" y="28" type="curve" smooth="yes"/>
    </contour>
    <contour>
      <point x="269" y="707" type="curve"/>
      <point x="279" y="707" type="line"/>
      <point x="288" y="707"/>
      <point x="293" y="709"/>
      <point x="298" y="716" type="curve"/>
      <point x="362" y="825" type="line" smooth="yes"/>
      <point x="366" y="831"/>
      <point x="365" y="836"/>
      <point x="358" y="836" type="curve" smooth="yes"/>
      <point x="344" y="836" type="line" smooth="yes"/>
      <point x="338" y="836"/>
      <point x="335" y="835"/>
      <point x="333" y="831" type="curve" smooth="yes"/>
      <point x="274" y="726" type="line"/>
      <point x="215" y="831" type="line" smooth="yes"/>
      <point x="213" y="835"/>
      <point x="210" y="836"/>
      <point x="204" y="836" type="curve" smooth="yes"/>
      <point x="190" y="836" type="line" smooth="yes"/>
      <point x="183" y="836"/>
      <point x="182" y="831"/>
      <point x="186" y="825" type="curve" smooth="yes"/>
      <point x="250" y="716" type="line"/>
      <point x="255" y="709"/>
      <point x="260" y="707"/>
    </contour>
  </outline>
</glyph>
<glyph name="dcaron" format="1">
  <advance width="508"/>
  <unicode hex="010F"/>
  <outline>
    <contour>
      <point x="388" y="132" type="line"/>
      <point x="388" y="63"/>
      <point x="341" y="28"/>
      <point x="276" y="28" type="curve" smooth="yes"/>
      <point x="204" y="28" type="line" smooth="yes"/>
      <point x="137" y="28"/>
      <point x="100" y="69"/>
      <point x="100" y="137" type="curve" smooth="yes"/>
      <point x="100" y="373" type="line" smooth="yes"/>
      <point x="100" y="441"/>
      <point x="137" y="482"/>
      <point x="204" y="482" type="curve" smooth="yes"/>
      <point x="276" y="482" type="line" smooth="yes"/>
      <point x="341" y="482"/>
      <point x="388" y="447"/>
      <point x="388" y="378" type="curve" smooth="yes"/>
    </contour>
    <contour>
      <point x="278" y="0" type="line"/>
      <point x="341" y="0"/>
      <point x="370" y="26"/>
      <point x="384" y="52" type="curve"/>
      <point x="388" y="52" type="line"/>
      <point x="388" y="9" type="line" smooth="yes"/>
      <point x="388" y="2"/>
      <point x="391" y="0"/>
      <point x="396" y="0" type="curve" smooth="yes"/>
      <point x="410" y="0" type="line" smooth="yes"/>
      <point x="415" y="0"/>
      <point x="418" y="2"/>
      <point x="418" y="9" type="curve" smooth="yes"/>
      <point x="418" y="694" type="line" smooth="yes"/>
      <point x="418" y="701"/>
      <point x="415" y="703"/>
      <point x="410" y="703" type="curve" smooth="yes"/>
      <point x="396" y="703" type="line" smooth="yes"/>
      <point x="391" y="703"/>
      <point x="388" y="701"/>
      <point x="388" y="694" type="curve" smooth="yes"/>
      <point x="388" y="458" type="line"/>
      <point x="384" y="458" type="line"/>
      <point x="370" y="484"/>
      <point x="341" y="510"/>
      <point x="278" y="510" type="curve" smooth="yes"/>
      <point x="204" y="510" type="line" smooth="yes"/>
      <point x="123" y="510"/>
      <point x="70" y="457"/>
      <point x="70" y="374" type="curve" smooth="yes"/>
      <point x="70" y="136" type="line" smooth="yes"/>
      <point x="70" y="53"/>
      <point x="123" y="0"/>
      <point x="204" y="0" type="curve" smooth="yes"/>
    </contour>
    <contour>
      <point x="515" y="694" type="line"/>
      <point x="515" y="701"/>
      <point x="512" y="703"/>
      <point x="507" y="703" type="curve" smooth="yes"/>
      <point x="486" y="703" type="line" smooth="yes"/>
      <point x="481" y="703"/>
      <point x="478" y="701"/>
      <point x="478" y="694" type="curve" smooth="yes"/>
      <point x="478" y="471" type="line" smooth="yes"/>
      <point x="478" y="466"/>
      <point x="481" y="465"/>
      <point x="483" y="465" type="curve" smooth="yes"/>
      <point x="486" y="465"/>
      <point x="488" y="467"/>
      <point x="489" y="471" type="curve" smooth="yes"/>
      <point x="507" y="560" type="line" smooth="yes"/>
      <point x="512" y="584"/>
      <point x="515" y="598"/>
      <point x="515" y="615" type="curve" smooth="yes"/>
    </contour>
  </outline>
</glyph>
<glyph name="Dcroat" format="1">
  <advance width="500"/>
  <unicode hex="0110"/>
  <outline>
    <contour>
      <point x="344" y="0" type="line"/>
      <point x="425" y="0"/>
      <point x="478" y="53"/>
      <point x="478" y="136" type="curve" smooth="yes"/>
      <point x="478" y="507" type="line" smooth="yes"/>
      <point x="478" y="590"/>
      <point x="425" y="643"/>
      <point x="344" y="643" type="curve" smooth="yes"/>
      <point x="98" y="643" type="line" smooth="yes"/>
      <point x="93" y="643"/>
      <point x="90" y="641"/>
      <point x="90" y="634" type="curve" smooth="yes"/>
      <point x="90" y="398" type="line" smooth="yes"/>
      <point x="90" y="393"/>
      <point x="88" y="390"/>
      <point x="81" y="390" type="curve" smooth="yes"/>
      <point x="35" y="390" type="line" smooth="yes"/>
      <point x="28" y="390"/>
      <point x="26" y="387"/>
      <point x="26" y="382" type="curve" smooth="yes"/>
      <point x="26" y="370" type="line" smooth="yes"/>
      <point x="26" y="365"/>
      <point x="28" y="362"/>
      <point x="35" y="362" type="curve" smooth="yes"/>
      <point x="81" y="362" type="line" smooth="yes"/>
      <point x="88" y="362"/>
      <point x="90" y="359"/>
      <point x="90" y="354" type="curve" smooth="yes"/>
      <point x="90" y="9" type="line" smooth="yes"/>
      <point x="90" y="2"/>
      <point x="93" y="0"/>
      <point x="98" y="0" type="curve" smooth="yes"/>
    </contour>
    <contour>
      <point x="129" y="28" type="line"/>
      <point x="122" y="28"/>
      <point x="120" y="31"/>
      <point x="120" y="36" type="curve" smooth="yes"/>
      <point x="120" y="354" type="line" smooth="yes"/>
      <point x="120" y="359"/>
      <point x="122" y="362"/>
      <point x="129" y="362" type="curve" smooth="yes"/>
      <point x="295" y="362" type="line" smooth="yes"/>
      <point x="302" y="362"/>
      <point x="304" y="365"/>
      <point x="304" y="370" type="curve" smooth="yes"/>
      <point x="304" y="382" type="line" smooth="yes"/>
      <point x="304" y="387"/>
      <point x="302" y="390"/>
      <point x="295" y="390" type="curve" smooth="yes"/>
      <point x="129" y="390" type="line" smooth="yes"/>
      <point x="122" y="390"/>
      <point x="120" y="393"/>
      <point x="120" y="398" type="curve" smooth="yes"/>
      <point x="120" y="607" type="line" smooth="yes"/>
      <point x="120" y="612"/>
      <point x="122" y="615"/>
      <point x="129" y="615" type="curve" smooth="yes"/>
      <point x="344" y="615" type="line" smooth="yes"/>
      <point x="411" y="615"/>
      <point x="448" y="574"/>
      <point x="448" y="506" type="curve" smooth="yes"/>
      <point x="448" y="137" type="line" smooth="yes"/>
      <point x="448" y="69"/>
      <point x="411" y="28"/>
      <point x="344" y="28" type="curve" smooth="yes"/>
    </contour>
  </outline>
</glyph>
